<svg width="1440" height="830" viewBox="0 0 1440 830" fill="none" xmlns="http://www.w3.org/2000/svg">
<g clip-path="url(#clip0_331_45988)">
<path fill-rule="evenodd" clip-rule="evenodd" d="M748.981 777.371C774.904 757.74 785.88 798.38 819.028 747.039C825.835 736.495 887.24 738.899 893.505 744.873C896.616 747.836 921.299 765.128 927.406 764.372C937.639 763.104 963.162 713.753 1000.41 731.13C1072.98 764.985 1052.43 703.1 1105.83 705.872C1117.53 706.481 1124.77 682.353 1161.3 703.152C1182.23 715.077 1226.95 716.304 1245.87 697.393C1271.02 672.239 1260.15 685.546 1289.76 669.786C1318.2 654.653 1317.88 618.676 1328.55 591.045C1335.57 572.86 1331.21 543.577 1357.56 521.157C1388.7 494.657 1289.29 416.479 1356.69 390.559C1358.75 389.77 1395.52 365.621 1413.19 322.872C1434.85 270.499 1446.06 243.713 1448.5 243L1440.63 836.279H3V343.713C35.1763 343.713 22.49 328.713 38.123 368.213C41.314 376.275 38.9069 383.443 38.123 400.213C37.4972 413.603 42.123 430.213 47.7835 450.218C48.2768 464.237 35.2189 500.808 53.2888 521.529C82.6703 555.217 79.9004 544.736 79.9004 601.877C79.9004 641.936 66.1905 660.973 103.095 683.835C109.814 687.999 116.979 685.21 136.995 700.984C163.991 722.26 180.744 746.755 214.176 731.129C224.156 726.464 271.548 725.192 283.759 732.427C316.63 751.909 328.348 755.621 365.375 753.724C368.741 753.552 372.85 735.436 390.202 726.117C407.354 716.904 391.185 713.316 417.118 695.97C430.468 687.04 447.326 639.637 466.461 667.62C474.232 678.971 509.147 677.178 508.111 716.522C507.887 725.159 514.448 755.705 529.373 755.705C555.475 755.705 557.312 764.672 577.548 749.762C582.374 746.205 619.343 729.174 625.87 736.021C652.935 764.389 648.154 773.923 690.255 781.52C705.22 784.218 723.828 792.281 736.496 779.538C739.968 776.043 744.02 777.371 748.981 777.371Z" fill="#102A59"/>
<path fill-rule="evenodd" clip-rule="evenodd" d="M638.309 699.659C640.62 694.098 653.144 694.5 657.074 689.603C661.234 684.425 658.33 684.276 658.225 684.14C656.811 686.264 657.285 686.734 654.877 689.237C654.386 688.242 654.505 688.6 655.542 684.914C650.763 686.833 654.365 691.455 642.484 694.286C644.761 690.487 650.364 690.559 651.983 685.91C648.688 686.246 649.086 687.207 646.402 689.127C652.063 680.288 658.729 678.053 660.021 672.288C657.342 673.612 659.547 672.483 657.35 674.291C656.428 675.055 656.265 675.32 655.189 676.03C655.25 675.867 656.305 673.233 656.305 673.229C656.392 670.204 657.469 672.884 655.657 670.873L649.974 682.605C649.052 681.27 649.527 682.587 649.103 680.401C647.191 670.492 659.404 667.66 659.886 661.634C657.132 663.002 657.761 664.557 654.348 666.375C654.842 664.995 655.328 663.511 655.564 661.921C655.936 659.447 655.696 658.196 654.628 657.119L651.315 666.34C651.178 666.333 651.35 665.925 650.151 666.447C642.065 669.974 646.592 688.905 640.297 691.776C641.088 688.212 642.485 686.707 641.872 682.362C640.73 683.642 641.737 682.15 640.883 684.053C639.172 687.876 639.166 692.701 636.61 695.848C633.236 689.487 643.55 676.617 645.48 669.328C648.395 658.348 647.677 661.31 645.739 659.366C643.155 674.906 640.564 673.142 638.007 681.001C638.586 678.395 639.614 675.964 640.66 673.233C641.207 671.807 641.991 669.874 642.219 668.643L641.828 664.739C637.333 671.341 636.677 683.198 634.102 689.973C634.005 686.111 635.193 683.383 635.696 679.354C636.007 676.878 637.052 671.374 635.739 668.911C634.199 671.128 634.264 674.562 634.018 677.2C633.691 680.683 633.655 681.453 632.549 684.301C633.034 680.861 633.538 676.021 634.107 672.493L635.315 662.908C635.305 662.706 635.227 662.374 635.214 662.212L634.869 660.84C634.716 661.071 634.58 661.377 634.488 661.577L632.313 672.02C631.669 675.583 631.411 680.124 630.347 682.886C628.819 676.936 632.219 670.569 633.139 664.497L632.916 660.11C632.872 659.96 632.618 659.847 632.579 659.515C632.536 659.178 632.355 659.102 632.193 658.941C631.069 662.077 630.188 670.291 629.113 674.813C627.716 680.671 627.659 685.314 630.455 690.142C636.965 701.378 629.708 700.72 622.393 705.432C620.274 706.797 619.008 707.952 616.807 709.322C618.531 702.138 627.133 702.331 629.125 691.276C625.982 692.624 627.904 691.059 625.4 694.147L626.529 683.867C624.529 685.419 626.512 683.286 625.093 685.474L623.509 689.42C623.742 685.516 626.538 673.133 626.179 672.058C621.977 675.218 623.294 684.132 620.971 688.748L620.843 679.007C617.639 683.808 621.535 693.872 618.343 699.945C615.788 694.055 621.21 674.822 618.343 671.316C616.733 673.58 615.384 701.103 615.109 700.136C615.073 700.021 614.96 700.616 614.842 700.837C614.501 694.517 617.25 689.029 614.579 686.687C610.945 697.083 616.124 706.839 612.255 713.426C606.905 704.462 615.534 681.658 612.255 674.2L611.545 675.546C609.466 680.876 612.42 671.574 611.056 676.95L610.118 685.592C609.343 683.125 609.536 679.714 607.907 677.829C606.261 681.62 609.309 689.318 608.981 698.178L606.826 692.199C606.45 689.151 606.814 688.139 605.706 685.309C604.822 685.92 604.677 688.461 603.553 689.263L602.078 681.943C599.398 685.287 602.108 688.692 603.981 691.358C607.882 696.909 608.354 710.203 608.766 712.545C610.315 721.307 611.309 718.696 606.62 722.521L605.299 715.692C601.538 720.04 606.923 724.2 606.572 727.751C604.414 725.922 604.291 725.491 603.561 722.242C602.283 716.582 604.8 706.048 603.556 703.377C601.985 704.851 600.312 717.506 600.251 717.302C600.22 717.187 600.103 717.733 599.972 717.916C596.6 713.226 599.901 712.914 599.805 707.841C598.211 709.04 597.918 709.576 597.099 711.512C596.679 701.256 598.64 699.991 599.91 691.931C596.929 692.862 597.888 693.462 596.044 696.847C594.18 691.147 593.983 691.183 594.455 684.852C591.299 682.967 594.566 683.715 591.426 685.842L590.507 678.855C588.633 680.664 589.036 684.316 590.275 686.758C593.786 693.687 595.125 702.196 594.285 710.416C587.973 708.147 590.218 697.025 587.898 692.304C585.517 696.197 587.273 692.74 586.908 695.305C586.047 701.462 589.5 706.523 591.908 711.654C582.036 705.719 587.733 698.662 583.275 693.973C579.704 709.808 591.9 711.773 596.346 719.011C597.853 721.464 598.584 723.684 599.972 725.846C606.358 735.807 609.629 735.23 608.748 744.842L615.735 744.889L617.648 741.462C624.03 728.18 634.273 737.754 642.266 733.728C644.411 732.648 642.966 733.465 644.371 732.214L636.457 732.768C640.423 730.607 647.65 732.646 651.927 729.213C649.664 727.544 633.538 731.639 628.556 731.767C633.788 728.881 640.656 729.17 646.91 727.395C651.533 726.086 651.923 723.868 653.787 722.991C661.597 719.319 660.779 726.938 669.682 710.965C671.735 707.281 674.786 706.094 677.102 701.842C681.719 693.346 678.573 694.669 678.362 694.407C672.58 704.436 676.974 698.891 673.827 699.491C671.976 699.844 674.033 697.37 671.613 702.363L669.371 705.764C669.446 701.081 671.082 697.988 672.732 695.291C669.139 692.07 672.326 696.389 669.717 695.291C672.729 690.906 675.451 692.652 676.883 686.231L669.096 692.574C668.981 692.386 668.653 692.856 668.42 692.979C668.828 689.736 669.656 689.511 670.916 687.812C671.586 686.91 671.603 686.71 672.3 685.742C674.107 683.235 675.46 683.203 677.604 680.537C679.527 678.145 678.595 679.926 679.676 677.344C676.537 677.35 677.832 679.598 674.327 681.282C676.156 677.529 678.664 676.04 679.724 672.265C673.63 674.864 672.952 682.27 669.1 687.041C667.76 680.752 669.914 681.436 671.297 676.838C665.081 679.614 668.211 685.762 666.184 690.441C661.583 684.876 667.585 675.752 669.191 671.53C664.968 673.497 663.855 677.356 663.208 682.755C661.889 693.785 665.322 689.732 666.359 695.297C667.695 702.437 667.721 715.828 659.109 718.638C661.137 714.522 661.965 713.205 662.122 707.463C662.261 702.21 663.992 699.496 664.503 696.317C656.12 698.568 664.564 711.343 655.709 718.773C657.556 713.383 659.133 707.513 659.531 701.341C659.566 700.806 659.614 698.397 659.531 697.955L655.482 714.523C654.733 711.581 656.059 708.954 655.609 705.84C655.35 704.061 655.346 704.446 654.878 703.651L652.383 696.97C650.789 698.394 650.789 699.647 650.825 702.189C650.889 706.708 651.568 711.963 650.081 716C649.722 712.363 650.072 706.694 647.839 704.147C646.01 708.131 649.052 711.556 647.353 715.028C645.436 711.633 646.732 707.625 646.714 703.625C646.701 701.463 646.768 702.286 646.18 701.32C642.656 706.928 645.226 710.203 644.378 715.783C644.359 715.907 644.254 716.143 644.232 716.262C643.917 718.109 643.099 717.386 644.671 719.258C646.496 721.426 648.085 720.641 648.986 723.125C644.684 726.86 635.487 726.281 629.14 727.853C623.567 729.232 616.524 734.016 615.424 737.32C615.911 734.693 618.213 732.212 619.969 730.815C621.636 729.488 624.744 726.334 626.04 725.642C631.486 722.735 635.886 724.11 641.028 723.676C645.244 723.319 643.379 723.383 644.456 721.774L637.701 720.524C640.24 709.469 639.343 714.538 643.909 707.469C642.788 705.414 642.854 708.479 642.149 705.296C641.881 704.091 642.22 702.45 642.329 701.122L640.219 704.268C640.06 704.617 639.781 705.942 639.645 706.348C639.539 703.18 641.098 700.373 638.31 699.659L638.309 699.659ZM638.309 699.659C637.687 703.926 637.998 707.597 637.476 711.798C637.074 715.047 634.89 718.65 634.816 719.883L634.868 705.184C629.724 710.269 637.301 719.722 628.336 721.916C629.29 720.033 629.86 718.418 630.315 716.008C631.983 707.238 629.728 708.614 629.3 708.156C628.339 714.943 629.834 716.703 625.302 721.284L625.052 717.545C625.07 714.259 626.077 716.176 624.431 713.922C622.741 716.133 622.715 720.807 621.939 723.191C621.065 721.589 621.331 719.567 621.41 718.183C621.59 715.05 622.519 716.068 620.535 713.832L617.405 719.547C617.348 719.547 617.016 719.732 616.977 719.588C616.932 719.44 616.666 719.584 616.455 719.676L619.174 726.883C616.56 729.234 614.936 730.476 612.396 733.622C613.024 727.899 614.91 727.101 616.319 723.301C615.024 723.385 614.489 722.095 612.117 727.479C611.399 729.11 610.484 731.628 610.063 733.196C610.129 729.028 612.511 726.308 613.605 721.864C615.142 715.646 615.518 715.468 619.799 712.393C622.777 710.254 624.877 708.085 628.939 705.901C635.702 702.265 635.491 701.1 638.307 699.659L638.309 699.659Z" fill="#102A59"/>
<path fill-rule="evenodd" clip-rule="evenodd" d="M1128.52 666.041C1126.2 660.482 1113.68 660.883 1109.74 655.985C1105.58 650.806 1108.49 650.657 1108.59 650.522C1110.01 652.647 1109.53 653.117 1111.94 655.621C1112.43 654.626 1112.32 654.982 1111.27 651.295C1116.05 653.216 1112.45 657.837 1124.33 660.669C1122.05 656.868 1116.45 656.942 1114.83 652.294C1118.13 652.629 1117.73 653.59 1120.42 655.51C1114.76 646.671 1108.09 644.436 1106.8 638.671C1109.48 639.995 1107.27 638.865 1109.47 640.676C1110.39 641.438 1110.56 641.703 1111.63 642.412C1111.56 642.25 1110.51 639.615 1110.51 639.611C1110.42 636.587 1109.35 639.266 1111.16 637.256L1116.84 648.987C1117.76 647.653 1117.29 648.969 1117.71 646.782C1119.63 636.875 1107.42 634.043 1106.93 628.016C1109.69 629.384 1109.06 630.94 1112.47 632.756C1111.97 631.377 1111.49 629.894 1111.25 628.303C1110.88 625.83 1111.12 624.576 1112.18 623.502L1115.5 632.723C1115.64 632.716 1115.47 632.308 1116.67 632.829C1124.75 636.355 1120.23 655.287 1126.52 658.159C1125.73 654.594 1124.33 653.09 1124.94 648.744C1126.09 650.025 1125.07 648.532 1125.93 650.435C1127.65 654.258 1127.65 659.081 1130.21 662.231C1133.59 655.871 1123.27 643.001 1121.34 635.711C1118.42 624.731 1119.14 627.693 1121.09 625.749C1123.66 641.287 1126.26 639.526 1128.81 647.385C1128.23 644.779 1127.2 642.348 1126.16 639.616C1125.61 638.189 1124.82 636.256 1124.61 635.026L1124.99 631.123C1129.48 637.723 1130.14 649.581 1132.72 656.355C1132.82 652.496 1131.64 649.766 1131.11 645.737C1130.81 643.262 1129.76 637.759 1131.08 635.294C1132.62 637.51 1132.55 640.945 1132.8 643.583C1133.13 647.066 1133.16 647.835 1134.27 650.683C1133.79 647.244 1133.27 642.403 1132.72 638.877L1131.5 629.289C1131.51 629.089 1131.58 628.757 1131.6 628.594L1131.95 627.223C1132.1 627.452 1132.25 627.76 1132.33 627.96L1134.51 638.404C1135.15 641.966 1135.4 646.507 1136.47 649.269C1138 643.319 1134.6 636.951 1133.68 630.88L1133.9 626.493C1133.94 626.343 1134.2 626.23 1134.24 625.895C1134.28 625.561 1134.47 625.485 1134.62 625.323C1135.76 628.459 1136.64 636.673 1137.71 641.194C1139.1 647.053 1139.16 651.695 1136.37 656.523C1129.85 667.76 1137.11 667.102 1144.43 671.814C1146.54 673.178 1147.81 674.334 1150.01 675.704C1148.28 668.52 1139.68 668.713 1137.69 657.658C1140.84 659.005 1138.91 657.44 1141.42 660.529L1140.29 650.249C1142.29 651.801 1140.3 649.668 1141.72 651.854L1143.3 655.801C1143.08 651.898 1140.28 639.514 1140.64 638.44C1144.84 641.599 1143.52 650.514 1145.85 655.13L1145.98 645.388C1149.17 650.19 1145.28 660.254 1148.47 666.325C1151.03 660.437 1145.61 641.203 1148.47 637.697C1150.09 639.962 1151.43 667.486 1151.71 666.518C1151.74 666.401 1151.86 666.998 1151.97 667.219C1152.31 660.899 1149.57 655.411 1152.24 653.066C1155.87 663.464 1150.69 673.221 1154.57 679.808C1159.91 670.843 1151.29 648.039 1154.57 640.581L1155.27 641.927C1157.35 647.258 1154.39 637.956 1155.77 643.332L1156.7 651.975C1157.47 649.506 1157.28 646.097 1158.91 644.211C1160.56 648.003 1157.51 655.699 1157.83 664.56L1159.99 658.582C1160.37 655.533 1160 654.52 1161.12 651.691C1162 652.302 1162.14 654.843 1163.27 655.644L1164.74 648.325C1167.42 651.669 1164.7 655.074 1162.83 657.741C1158.93 663.291 1158.46 676.586 1158.04 678.928C1156.5 687.689 1155.51 685.078 1160.19 688.904L1161.52 682.074C1165.27 686.422 1159.9 690.582 1160.25 694.132C1162.4 692.304 1162.52 691.875 1163.26 688.625C1164.53 682.964 1162.02 672.429 1163.26 669.76C1164.83 671.233 1166.51 683.889 1166.55 683.685C1166.6 683.57 1166.71 684.116 1166.84 684.299C1170.22 679.608 1166.91 679.297 1167.02 674.223C1168.6 675.421 1168.89 675.958 1169.72 677.896C1170.14 667.639 1168.18 666.373 1166.91 658.315C1169.88 659.244 1168.93 659.845 1170.78 663.228C1172.65 657.53 1172.84 657.564 1172.36 651.236C1175.51 649.35 1172.25 650.096 1175.39 652.224L1176.3 645.237C1178.19 647.045 1177.78 650.698 1176.55 653.139C1173.03 660.068 1171.7 668.578 1172.54 676.797C1178.84 674.53 1176.6 663.406 1178.92 658.686C1181.31 662.578 1179.54 659.121 1179.9 661.686C1180.77 667.843 1177.32 672.905 1174.91 678.036C1184.78 672.099 1179.08 665.045 1183.53 660.356C1187.11 676.19 1174.92 678.155 1170.48 685.393C1168.96 687.846 1168.24 690.064 1166.84 692.227C1160.47 702.188 1157.18 701.61 1158.07 711.222L1151.08 711.269L1149.16 707.843C1142.79 694.56 1132.54 704.135 1124.55 700.109C1122.4 699.029 1123.86 699.845 1122.44 698.593L1130.35 699.149C1126.4 696.987 1119.17 699.027 1114.89 695.594C1117.16 693.924 1133.27 698.019 1138.26 698.147C1133.03 695.262 1126.15 695.551 1119.9 693.775C1115.28 692.465 1114.9 690.249 1113.02 689.372C1105.22 685.701 1106.04 693.319 1097.13 677.346C1095.08 673.661 1092.03 672.475 1089.72 668.223C1085.09 659.726 1088.24 661.048 1088.46 660.785C1094.23 670.816 1089.83 665.271 1092.98 665.872C1094.84 666.225 1092.78 663.752 1095.2 668.744L1097.44 672.145C1097.37 667.461 1095.73 664.37 1094.08 661.671C1097.68 658.451 1094.48 662.768 1097.1 661.671C1094.09 657.284 1091.36 659.031 1089.94 652.611L1097.73 658.954C1097.83 658.767 1098.17 659.236 1098.4 659.36C1097.99 656.116 1097.16 655.892 1095.9 654.193C1095.23 653.289 1095.21 653.09 1094.51 652.122C1092.71 649.614 1091.36 649.583 1089.21 646.916C1087.29 644.526 1088.23 646.304 1087.15 643.725C1090.28 643.729 1088.98 645.979 1092.48 647.662C1090.67 643.909 1088.15 642.42 1087.09 638.644C1093.19 641.245 1093.86 648.65 1097.72 653.421C1099.06 647.132 1096.9 647.815 1095.52 643.218C1101.73 645.994 1098.61 652.143 1100.63 656.82C1105.24 651.256 1099.23 642.134 1097.63 637.909C1101.85 639.878 1102.96 643.736 1103.61 649.134C1104.93 660.166 1101.49 656.112 1100.45 661.677C1099.12 668.817 1099.09 682.208 1107.7 685.018C1105.67 680.902 1104.85 679.584 1104.7 673.843C1104.55 668.591 1102.83 665.877 1102.31 662.697C1110.69 664.949 1102.25 677.724 1111.11 685.153C1109.25 679.763 1107.69 673.892 1107.28 667.721C1107.25 667.187 1107.21 664.776 1107.28 664.336L1111.34 680.903C1112.09 677.962 1110.76 675.333 1111.2 672.222C1111.46 670.441 1111.47 670.826 1111.94 670.03L1114.44 663.351C1116.03 664.775 1116.03 666.027 1116 668.569C1115.93 673.089 1115.24 678.342 1116.73 682.381C1117.1 678.742 1116.74 673.074 1118.98 670.526C1120.8 674.51 1117.76 677.936 1119.46 681.407C1121.37 678.012 1120.08 674.005 1120.1 670.006C1120.12 667.842 1120.05 668.667 1120.64 667.7C1124.16 673.307 1121.6 676.583 1122.43 682.163C1122.45 682.286 1122.57 682.522 1122.58 682.642C1122.9 684.487 1123.72 683.767 1122.14 685.638C1120.33 687.807 1118.73 687.022 1117.83 689.506C1122.13 693.241 1131.33 692.66 1137.67 694.233C1143.26 695.613 1150.3 700.397 1151.39 703.699C1150.91 701.073 1148.6 698.592 1146.85 697.196C1145.18 695.868 1142.06 692.714 1140.77 692.023C1135.33 689.115 1130.93 690.49 1125.8 690.055C1121.57 689.701 1123.45 689.763 1122.36 688.153L1129.12 686.903C1126.58 675.85 1127.47 680.918 1122.91 673.85C1124.04 671.793 1123.97 674.858 1124.67 671.676C1124.94 670.472 1124.6 668.83 1124.48 667.503L1126.6 670.647C1126.75 670.995 1127.03 672.322 1127.18 672.726C1127.28 669.56 1125.72 666.753 1128.51 666.039L1128.52 666.041ZM1128.52 666.041C1129.13 670.307 1128.82 673.979 1129.34 678.18C1129.74 681.43 1131.93 685.032 1132 686.264L1131.95 671.565C1137.1 676.651 1129.52 686.106 1138.48 688.298C1137.52 686.415 1136.96 684.799 1136.51 682.391C1134.82 673.621 1137.08 674.997 1137.52 674.539C1138.48 681.323 1136.98 683.086 1141.52 687.665L1141.76 683.928C1141.74 680.641 1140.74 682.557 1142.39 680.304C1144.08 682.514 1144.09 687.189 1144.88 689.574C1145.75 687.971 1145.49 685.948 1145.41 684.564C1145.23 681.431 1144.29 682.449 1146.29 680.216L1149.41 685.929C1149.46 685.929 1149.8 686.113 1149.84 685.969C1149.89 685.821 1150.15 685.966 1150.37 686.058L1147.64 693.265C1150.25 695.616 1151.87 696.858 1154.42 700.003C1153.8 694.281 1151.9 693.483 1150.5 689.683C1151.8 689.766 1152.33 688.477 1154.7 693.862C1155.41 695.49 1156.34 698.01 1156.75 699.575C1156.68 695.409 1154.31 692.689 1153.21 688.245C1151.67 682.026 1151.29 681.849 1147.01 678.775C1144.04 676.635 1141.94 674.466 1137.86 672.282C1131.11 668.647 1131.31 667.481 1128.52 666.041Z" fill="#102A59"/>
<path fill-rule="evenodd" clip-rule="evenodd" d="M272.944 691.928C275.257 686.366 287.78 686.769 291.713 681.873C295.871 676.694 292.966 676.546 292.865 676.409C291.448 678.533 291.919 679.003 289.514 681.507C289.026 680.512 289.142 680.869 290.18 677.183C285.401 679.103 289.001 683.724 277.122 686.556C279.398 682.755 285.004 682.828 286.619 678.18C283.324 678.515 283.721 679.477 281.037 681.396C286.7 672.559 293.366 670.323 294.657 664.558C291.979 665.882 294.186 664.752 291.99 666.562C291.063 667.325 290.901 667.591 289.826 668.3C289.887 668.137 290.942 665.501 290.942 665.499C291.029 662.473 292.104 665.154 290.294 663.142L284.614 674.875C283.689 673.539 284.163 674.856 283.743 672.669C281.829 662.761 294.039 659.93 294.523 653.902C291.768 655.271 292.399 656.826 288.984 658.642C289.48 657.264 289.963 655.778 290.203 654.19C290.575 651.716 290.335 650.462 289.266 649.389L285.949 658.608C285.817 658.603 285.983 658.193 284.786 658.715C276.702 662.241 281.227 681.172 274.932 684.045C275.724 680.48 277.121 678.975 276.508 674.629C275.364 675.911 276.375 674.417 275.521 676.321C273.807 680.144 273.804 684.967 271.246 688.116C267.87 681.756 278.184 668.885 280.118 661.597C283.03 650.617 282.315 653.579 280.375 651.635C277.793 667.173 275.197 665.41 272.646 673.27C273.224 670.664 274.253 668.234 275.299 665.5C275.845 664.075 276.629 662.144 276.855 660.911L276.466 657.007C271.97 663.607 271.312 675.465 268.74 682.24C268.642 678.38 269.828 675.65 270.333 671.621C270.643 669.145 271.693 663.643 270.378 661.178C268.834 663.396 268.904 666.83 268.654 669.468C268.327 672.95 268.291 673.72 267.187 676.568C267.671 673.128 268.176 668.288 268.743 664.76L269.953 655.175C269.942 654.973 269.866 654.641 269.85 654.48L269.507 653.107C269.352 653.337 269.214 653.644 269.126 653.845L266.947 664.288C266.308 667.85 266.048 672.391 264.985 675.154C263.458 669.204 266.859 662.836 267.777 656.764L267.555 652.378C267.508 652.228 267.256 652.114 267.215 651.78C267.174 651.444 266.994 651.37 266.832 651.207C265.706 654.343 264.825 662.558 263.749 667.081C262.353 672.938 262.295 677.581 265.091 682.407C271.602 693.645 264.346 692.986 257.029 697.699C254.912 699.064 253.646 700.22 251.444 701.589C253.171 694.405 261.772 694.598 263.764 683.544C260.621 684.891 262.543 683.326 260.037 686.414L261.167 676.134C259.166 677.685 261.147 675.553 259.732 677.74L258.148 681.687C258.376 677.784 261.173 665.399 260.817 664.326C256.611 667.485 257.93 676.399 255.607 681.015L255.48 671.273C252.278 676.075 256.171 686.139 252.981 692.211C250.424 686.322 255.85 667.089 252.981 663.582C251.369 665.847 250.021 693.371 249.744 692.402C249.711 692.288 249.598 692.883 249.48 693.104C249.14 686.785 251.886 681.296 249.217 678.953C245.583 689.351 250.762 699.106 246.893 705.694C241.541 696.73 250.169 673.926 246.893 666.468L246.181 667.814C244.104 673.143 247.06 663.842 245.691 669.217L244.755 677.861C243.982 675.392 244.173 671.983 242.543 670.097C240.898 673.888 243.946 681.586 243.618 690.445L241.464 684.467C241.088 681.418 241.453 680.405 240.342 677.578C239.457 678.187 239.316 680.73 238.187 681.531L236.713 674.209C234.033 677.555 236.745 680.959 238.618 683.625C242.517 689.176 242.99 702.471 243.402 704.812C244.952 713.574 245.946 710.964 241.258 714.79L239.933 707.96C236.177 712.308 241.557 716.468 241.207 720.019C239.052 718.19 238.929 717.76 238.197 714.509C236.921 708.85 239.437 698.316 238.193 695.645C236.621 697.118 234.947 709.775 234.889 709.569C234.855 709.455 234.738 710 234.608 710.185C231.235 705.495 234.539 705.183 234.441 700.109C232.846 701.307 232.554 701.844 231.734 703.781C231.314 693.525 233.276 692.258 234.544 684.201C231.566 685.13 232.524 685.73 230.68 689.114C228.815 683.415 228.618 683.449 229.095 677.121C225.937 675.235 229.203 675.981 226.065 678.109L225.145 671.122C223.269 672.932 223.674 676.583 224.911 679.025C228.423 685.955 229.761 694.464 228.92 702.683C222.611 700.416 224.854 689.292 222.537 684.571C220.154 688.463 221.907 685.007 221.546 687.571C220.682 693.729 224.137 698.79 226.546 703.922C216.672 697.985 222.37 690.93 217.911 686.241C214.342 702.075 226.538 704.04 230.982 711.278C232.49 713.732 233.219 715.949 234.607 718.115C240.993 728.074 244.265 727.495 243.384 737.108L250.371 737.156L252.285 733.729C258.666 720.447 268.912 730.021 276.905 725.995C279.049 724.915 277.601 725.732 279.008 724.481L271.095 725.035C275.058 722.873 282.289 724.914 286.566 721.482C284.3 719.812 268.174 723.906 263.192 724.035C268.425 721.149 275.29 721.438 281.55 719.663C286.168 718.354 286.559 716.134 288.424 715.259C296.232 711.589 295.413 719.208 304.318 703.233C306.372 699.549 309.424 698.362 311.737 694.111C316.359 685.614 313.211 686.936 312.998 686.675C307.215 696.704 311.613 691.159 308.464 691.76C306.611 692.112 308.67 689.64 306.251 694.632L304.009 698.033C304.083 693.35 305.722 690.257 307.37 687.56C303.775 684.339 306.963 688.657 304.354 687.56C307.366 683.174 310.087 684.92 311.518 678.499L303.731 684.842C303.617 684.655 303.288 685.125 303.058 685.249C303.465 682.004 304.293 681.779 305.552 680.08C306.223 679.178 306.242 678.978 306.939 678.011C308.742 675.503 310.097 675.471 312.241 672.804C314.162 670.414 313.231 672.194 314.312 669.614C311.175 669.619 312.472 671.867 308.965 673.55C310.794 669.797 313.303 668.308 314.363 664.535C308.267 667.132 307.59 674.539 303.735 679.311C302.399 673.02 304.552 673.705 305.934 669.106C299.717 671.882 302.846 678.032 300.821 682.709C296.222 677.145 302.222 668.022 303.828 663.798C299.605 665.766 298.491 669.624 297.846 675.024C296.525 686.055 299.958 682.001 300.997 687.565C302.329 694.706 302.358 708.097 293.745 710.908C295.776 706.791 296.601 705.474 296.757 699.733C296.9 694.48 298.63 691.766 299.141 688.586C290.759 690.837 299.2 703.613 290.344 711.042C292.196 705.651 293.771 699.781 294.166 693.609C294.2 693.076 294.25 690.664 294.168 690.224L290.117 706.793C289.369 703.85 290.696 701.222 290.246 698.111C289.988 696.329 289.982 696.715 289.514 695.92L287.017 689.239C285.426 690.664 285.425 691.917 285.46 694.459C285.524 698.978 286.206 704.231 284.716 708.269C284.357 704.631 284.708 698.964 282.475 696.414C280.644 700.4 283.689 703.824 281.99 707.296C280.073 703.902 281.369 699.893 281.348 695.894C281.336 693.731 281.404 694.555 280.813 693.588C277.29 699.195 279.86 702.472 279.013 708.053C278.995 708.174 278.889 708.411 278.869 708.531C278.553 710.376 277.732 709.655 279.307 711.526C281.132 713.695 282.721 712.909 283.623 715.394C279.317 719.128 270.12 718.549 263.773 720.121C258.2 721.5 251.161 726.285 250.061 729.588C250.546 726.961 252.849 724.48 254.604 723.083C256.27 721.756 259.381 718.602 260.675 717.91C266.119 715.002 270.522 716.378 275.662 715.945C279.881 715.588 278.013 715.651 279.089 714.042L272.335 712.792C274.876 701.738 273.978 706.806 278.544 699.737C277.423 697.682 277.488 700.747 276.782 697.565C276.516 696.359 276.854 694.718 276.966 693.39L274.856 696.535C274.697 696.884 274.414 698.211 274.281 698.615C274.174 695.448 275.734 692.641 272.944 691.926V691.928ZM272.944 691.928C272.324 696.195 272.633 699.865 272.111 704.068C271.709 707.316 269.525 710.919 269.452 712.151L269.507 697.453C264.363 702.539 271.938 711.991 262.972 714.185C263.927 712.302 264.496 710.687 264.953 708.276C266.621 699.507 264.366 700.883 263.938 700.425C262.978 707.211 264.47 708.972 259.939 713.552L259.692 709.814C259.708 706.528 260.717 708.445 259.069 706.192C257.379 708.401 257.354 713.075 256.577 715.46C255.702 713.858 255.967 711.834 256.048 710.451C256.226 707.318 257.156 708.336 255.172 706.101L252.046 711.814C251.988 711.815 251.656 712 251.612 711.857C251.569 711.709 251.304 711.852 251.093 711.945L253.815 719.151C251.198 721.502 249.575 722.746 247.034 725.891C247.661 720.168 249.549 719.371 250.96 715.569C249.66 715.654 249.13 714.364 246.755 719.748C246.036 721.377 245.124 723.897 244.702 725.464C244.77 721.296 247.149 718.576 248.244 714.132C249.778 707.913 250.156 707.736 254.437 704.661C257.415 702.522 259.513 700.353 263.578 698.168C270.342 694.534 270.131 693.368 272.943 691.928H272.944Z" fill="#102A59"/>
<path fill-rule="evenodd" clip-rule="evenodd" d="M964.038 724.618C965.818 724.913 967.688 725.649 968.656 725.785C971.063 726.123 970.555 725.438 973.388 725.535C973.764 726.057 974.382 724.88 973.847 727.41C973.807 727.595 973.375 728.451 973.26 728.66L976.263 727.723C977.462 728.495 976.57 727.48 977.068 729.328C982.155 725.861 988.019 727.513 992.754 729.312C992.209 725.256 992.573 728.515 990.115 725.536C993.223 725.624 1000.11 729.267 1001.71 728.332C1000.36 727.286 998.159 726.335 996.801 725.489L1003.01 722.594L1000.69 721.822C1000.19 721.688 999.174 721.562 998.629 721.416C999.528 721.222 1001.91 720.812 1002.75 720.551C1004.84 719.91 1003.02 720.654 1004.48 719.85C1006.14 718.937 1004.82 719.889 1006.05 718.533L997.633 719.662C1000.69 717.177 1004.81 716.233 1008.22 713.131C1006.1 712.423 1006.67 714.581 1005.52 712.285C1003.69 708.685 1007.07 713.037 1005.62 709.67L1000.03 712.571C1001.21 709.833 1001.04 708.773 1002.92 706.265C1004.46 704.206 1006.36 702.419 1006.14 699.912C1003.49 700.943 1001.71 705.265 999.825 706.679L997.882 707.336C995.261 708.319 996.658 709.12 993.3 711.955C994.132 709.112 995.136 706.777 996.677 704.286C997.566 702.857 999.643 699.851 999.441 698.18L998.198 698.129C995.567 699.041 997.862 698.076 996.811 699.306C994.946 701.496 992.353 704.888 991.233 707.686C991.176 707.54 991.128 707.316 991.109 707.229C991.09 707.143 991.022 706.881 990.994 706.773L990.841 705.842C990.448 702.436 991.501 701.649 991.932 699.42C992.582 696 991.789 697.205 991.826 694.756C991.846 693.44 992.323 692.022 992.429 690.562C990.382 690.507 991.185 689.491 990.258 693.565C989.472 697.01 988.507 703.132 987.119 705.928C984.145 694.031 986.871 702.97 983.427 694.567C982.653 692.693 983.303 693.899 982.71 693.131C980.194 699.594 983.924 704.245 984.107 711.882C982.71 709.134 983.35 707.583 981.494 704.479L980.615 703.171C979.993 702.294 980.136 702.503 979.734 701.998C979.677 701.93 979.467 701.859 979.429 701.661C979.39 701.467 979.247 701.427 979.122 701.34C977.887 704.075 980.069 707.832 980.203 710.671L976.854 705.53C971.894 701.072 974.491 700.551 970.52 696.939C969.088 700.259 971.759 702.66 972.835 706.512C971.203 705.556 972.542 706.476 971.37 705.367C971.123 705.136 970.295 704.139 970.288 704.128C968.212 701.995 970.616 702.94 967.859 702.642C969.131 706.749 970.69 707.36 972.142 710.671C971.972 710.555 971.749 710.41 971.628 710.327L970.165 709.332C967.412 707.304 964.299 702.366 961.449 701.923C962.203 704.032 964.526 706.658 965.682 708.783C969.215 715.276 967.197 711.115 970.56 715.291C965.95 713.028 961.681 709.246 958.863 707.858C959.48 711.131 960.863 712.141 963.547 713.228L960.11 714.443C961.651 715.354 963.752 715.552 964.987 716.724C966.409 718.081 964.803 719.087 967.95 719.525L960.127 719.131L961.463 720.669C962.71 721.679 964.867 721.914 966.623 722.157C969.123 722.501 971.412 722.214 973.401 723.006C969.399 723.419 967.101 722.76 964.037 724.618L964.038 724.618Z" fill="#102A59"/>
<path fill-rule="evenodd" clip-rule="evenodd" d="M858.467 730.811C859.719 731.019 861.028 731.535 861.711 731.63C863.401 731.869 863.046 731.388 865.034 731.455C865.3 731.823 865.733 730.995 865.358 732.773C865.331 732.903 865.025 733.504 864.945 733.652L867.054 732.993C867.896 733.534 867.274 732.822 867.62 734.121C871.192 731.684 875.312 732.846 878.648 734.109C878.258 731.26 878.512 733.549 876.787 731.455C878.972 731.519 883.808 734.078 884.933 733.421C883.987 732.687 882.443 732.019 881.483 731.423L885.848 729.39L884.219 728.847C883.864 728.752 883.151 728.664 882.77 728.562C883.4 728.426 885.069 728.136 885.664 727.954C887.131 727.504 885.856 728.027 886.881 727.461C888.041 726.821 887.117 727.489 887.984 726.537L882.066 727.33C884.224 725.584 887.114 724.921 889.507 722.742C888.019 722.244 888.422 723.76 887.606 722.147C886.325 719.617 888.693 722.676 887.678 720.311L883.751 722.348C884.582 720.424 884.464 719.679 885.782 717.919C886.868 716.472 888.198 715.216 888.041 713.454C886.184 714.179 884.929 717.215 883.611 718.209L882.24 718.67C880.406 719.362 881.383 719.923 879.027 721.916C879.61 719.918 880.314 718.278 881.4 716.527C882.022 715.522 883.479 713.411 883.334 712.238L882.468 712.202C880.621 712.842 882.232 712.164 881.491 713.03C880.179 714.567 878.357 716.951 877.574 718.916C877.53 718.815 877.499 718.657 877.487 718.595C877.473 718.535 877.422 718.35 877.408 718.274L877.299 717.62C877.021 715.228 877.762 714.675 878.059 713.109C878.524 710.706 877.962 711.553 877.985 709.831C877.998 708.908 878.34 707.911 878.418 706.885C876.974 706.846 877.535 706.132 876.882 708.994C876.33 711.414 875.656 715.716 874.68 717.682C872.592 709.322 874.51 715.602 872.084 709.697C871.546 708.381 872.001 709.228 871.585 708.69C869.812 713.23 872.438 716.498 872.561 721.864C871.58 719.933 872.036 718.844 870.732 716.663L870.115 715.744C869.677 715.129 869.774 715.275 869.493 714.92C869.454 714.872 869.31 714.823 869.279 714.684C869.252 714.547 869.152 714.519 869.065 714.458C868.197 716.381 869.73 719.019 869.826 721.013L867.471 717.402C863.987 714.27 865.813 713.904 863.018 711.366C862.017 713.699 863.889 715.386 864.646 718.092C863.501 717.419 864.442 718.067 863.617 717.288C863.443 717.125 862.861 716.424 862.857 716.418C861.399 714.918 863.089 715.583 861.15 715.373C862.042 718.258 863.142 718.689 864.161 721.014C864.043 720.932 863.885 720.831 863.798 720.772L862.774 720.074C860.839 718.649 858.651 715.179 856.65 714.867C857.179 716.349 858.808 718.194 859.622 719.687C862.104 724.25 860.685 721.325 863.051 724.259C859.81 722.67 856.811 720.014 854.828 719.038C855.262 721.339 856.234 722.047 858.121 722.81L855.708 723.665C856.789 724.305 858.265 724.444 859.131 725.267C860.134 726.221 859.004 726.927 861.216 727.235L855.717 726.959L856.654 728.039C857.533 728.749 859.049 728.914 860.283 729.085C862.038 729.326 863.649 729.123 865.042 729.681C862.235 729.971 860.62 729.507 858.466 730.814L858.467 730.811Z" fill="#102A59"/>
<path fill-rule="evenodd" clip-rule="evenodd" d="M1257.93 641.623C1255.77 640.618 1257.7 641.752 1256.36 640.034C1255.1 638.425 1256.73 639.646 1254.81 638.168C1253.7 638.916 1254.11 638.474 1253.24 639.343C1253.47 643.591 1261.08 642.126 1258.51 657.247C1254.08 655.964 1258.06 652.697 1256.68 649.469L1254.52 649.221C1254.43 652.225 1255.78 651.365 1254.12 653.827C1249.85 652.246 1253.14 649.615 1250.09 646.286C1249.34 645.463 1249.86 646.033 1249.23 645.293L1245.6 644.77C1246.75 647.421 1248.63 646.283 1249.46 651.71C1246.07 650.506 1245.78 648.261 1244.78 652.932L1251.48 654.667C1248.98 655.879 1249.38 653.828 1246.85 655.735C1247.88 658.105 1246.56 656.988 1249.83 656.371L1250.14 658.613C1251.8 657.878 1251.04 658.23 1251.62 657.733C1251.74 657.629 1252.2 657.226 1252.31 657.119C1252.4 657.043 1252.56 656.872 1252.62 656.808C1252.69 656.746 1252.84 656.589 1252.95 656.494C1256.76 659.18 1257.11 659.005 1258.14 665.233L1257.37 665.343C1257.23 665.383 1256.07 665.339 1255.43 666.479C1257.09 670.107 1257.62 665.306 1258.11 670.138C1256.66 669.498 1254.29 668.567 1253.18 667.645C1252.81 662.246 1252.99 664.403 1254.31 660.766C1252.33 660.175 1250.19 660.551 1248.45 661.244C1249.44 666.29 1250.97 660.185 1251.36 666.635C1242.93 662.627 1249.1 660.595 1244.85 657.116C1243.15 660.091 1245.45 658.781 1244.22 661.271C1242.67 659.704 1243.5 659.264 1241.46 658.726C1239.71 661.042 1243.68 663.004 1244.64 665.033C1242.21 664.472 1243.11 663.398 1241.09 663.987C1241.67 666.416 1241.82 666.315 1245.53 666.898C1249.62 667.544 1248.64 667.623 1251.12 669.549C1255.11 672.659 1258.24 671.505 1259.46 677.991C1253.31 676.263 1258.11 673.625 1254.18 672.714C1253.06 675.144 1254.54 673.562 1254.14 676.872C1252.84 676.634 1251.65 676.482 1250.82 677.687C1252.42 678.754 1255.15 678.611 1256.85 679.432C1259.88 680.909 1257.37 682.267 1258.35 684.84C1260.48 685.38 1263.44 685.473 1265.6 684.831C1265.66 684.673 1265.7 684.249 1265.72 684.337L1265.78 682.35C1265.61 680.437 1265.27 681.422 1265.46 678.778C1273.88 671.891 1276.75 680.621 1278.47 681.77C1278.57 681.602 1278.66 681.129 1278.7 681.226L1279.72 678.452C1280.98 679.337 1281.32 679.943 1282.47 679.671C1282.94 676.587 1282.16 678.722 1280.34 675.865C1277.28 676.391 1278 677.102 1274.71 675.867C1274.42 669.139 1280.58 673.787 1282.83 673.922C1285.39 669.743 1280.1 673.595 1282.94 670.837C1284.03 669.781 1286.43 670.816 1288.09 671.126C1288.03 668.553 1287.51 670.369 1288.64 668.347C1287.51 667.723 1286.46 668.193 1285.41 667.102L1287.54 664.644L1285.29 663.408C1282.88 666.245 1283.8 668.023 1279.3 669.362C1279.04 665.593 1280.43 668.302 1280.88 664.676C1277.05 664.659 1278.84 663.6 1277.15 667.005C1276.14 669.011 1276.26 669.179 1274.12 670.253C1272.9 668.093 1273.73 668.643 1274.63 666.338L1271.67 666.605L1271.28 672.646C1268.19 672.018 1270.02 669.786 1268.04 667.967C1266.76 669.759 1267.32 668.867 1267.83 671.461C1265.54 672.468 1266.81 670.218 1266.08 672.556C1265.82 673.394 1267.91 673.749 1264.4 673.71C1262.82 668.929 1269.28 664.281 1272.26 662.595C1275.45 661.959 1274.71 665.452 1284.67 660.252C1283.39 657.617 1282.45 658.808 1280.66 659.92C1279.67 659.5 1280.23 658.748 1278.47 658.427C1278.01 659.599 1278.89 662.678 1275.65 660.252C1278.97 656.259 1278.48 656.591 1285.33 656.758C1285.72 655.719 1286.19 654.199 1286.44 652.931C1281.51 652.643 1287.14 654.018 1282.37 653.942C1282.09 651.589 1282.87 651.774 1284 650.126L1281.53 648.714C1281.05 650.565 1280.79 656.076 1278.21 654.802C1275.96 653.686 1279.84 649.71 1280.78 648.857C1279.85 646.357 1281 649.623 1279.75 647.461C1279.71 647.397 1279.62 647.235 1279.59 647.17L1276.53 646.561C1277.46 650.143 1279.2 647.506 1277.14 651.466C1275.77 651.189 1276.62 651.199 1275.59 650.689C1274.02 649.915 1276.31 650.16 1273.69 649.971C1273.6 652.159 1274.82 653.238 1274.73 655.342C1274.57 658.981 1273.57 657.437 1271.38 657.504C1271.19 658.689 1272.39 660.656 1267.38 662.582C1267.65 660.27 1268.25 659.322 1269.48 657.478C1270.57 655.819 1272.02 653.771 1271 651.937C1267.37 652.402 1269.23 651.917 1268.11 655.351L1266.8 655.284C1265.89 655.272 1267.47 654.593 1264.97 655.506C1265.48 657.787 1266.31 657.67 1265.19 660.615C1263.89 664.06 1264.77 664.264 1262.28 665.969C1261.68 664.778 1261.08 661.168 1261.16 659.598C1261.44 654.918 1268.23 649.75 1272.87 648.895L1273.84 646.864C1275.54 645.361 1275.35 647.549 1275.69 644.92C1273.84 643.437 1274.82 644.334 1272.13 645.284C1272.59 640.598 1274.42 643.173 1275.8 639.688L1273.47 638.697C1269.28 642.191 1271.05 645.377 1268.51 647.19C1266.74 644.693 1269.84 641.237 1268.51 638.511L1266.65 638.271C1265.83 640.376 1267.32 639.966 1265.94 641.427C1265.67 641.709 1265.47 641.196 1264.99 642.191C1266.71 646.334 1265.84 650.088 1261.69 653.182C1261.68 644.993 1267.12 639.048 1262.06 637.691C1261.19 641.449 1262.82 642.989 1260.02 643.297C1260.22 640.573 1260.46 638.958 1259.74 636.188C1259.15 633.859 1260.85 634.502 1258.55 633.338C1257.11 634.285 1257.98 632.741 1257.5 634.824C1256.89 637.432 1258.77 638.884 1257.93 641.621L1257.93 641.623Z" fill="#102A59"/>
<path fill-rule="evenodd" clip-rule="evenodd" d="M111.521 626.893C108.734 627.328 104.972 626.131 104.522 622.241C104.066 618.312 106.412 618.515 106.67 615.546C106.85 613.472 107.074 615.214 106.188 613.835C103.101 614.493 104.778 614.104 103.372 616.179L102.804 617.423C100.549 614.166 103.813 614.774 100.267 611.591C96.8172 615.905 101.674 621.527 103.281 628.52C114.541 630.789 112.742 643.25 110.624 651.942C106.349 648.958 108.737 647.405 107.855 641.864C107.284 638.275 106.762 639.936 106.383 636.731C106.197 635.155 106.636 634.398 106.354 632.223C103.005 633.21 102.52 635.561 100.98 638.433C102.066 640.136 103.212 639.944 104.581 641.327L102.418 642.253C102.337 642.079 102.087 642.526 101.92 642.661C105.395 645.595 103.467 642.125 105.44 645.199C101.093 648.927 104.34 643.437 99.3739 645.709C99.3569 651.215 100.607 647.958 104.68 649.284C107.715 654.4 108.577 655.497 112.611 659.083C117.102 663.077 118.725 662.202 120.149 669.727C119.984 669.805 119.712 669.792 119.609 669.809L116.104 670.573C120.638 677.995 121.238 664.684 122.822 688.942C119.645 688.155 119.612 687.362 120.34 684.033C118.418 683.42 118.592 683.717 116.659 684.561L117.761 679.942C114.658 680.217 116.55 679.336 115 681.204L114.896 676.116C107.045 679.301 119.924 672.67 113.194 677.512C112.703 677.864 112.673 679.706 110.625 676.452C107.155 670.937 109.149 668.423 108.656 665.675C108.248 663.399 107.249 662.071 105.032 661.133C104.907 672.986 109.468 680.548 116.621 688.045L122.859 693.31C124.405 696.928 119.59 706.51 119.553 711.389C119.528 714.887 125.829 713.839 128.179 712.838C129.138 709.907 126.498 710.162 126.413 705.27C126.377 703.157 127.036 698.163 127.23 695.682C127.879 695.291 133.001 691.921 134.002 691.646C138.77 690.346 136.528 696.126 139.726 690.719C137.475 687.883 136.521 688.368 132.786 688.848C131.648 681.684 133.831 688.241 133.729 682.517C125.104 683.434 133.664 685.899 128.18 691.716C125.655 688.308 126.545 681.021 128.718 677.869C132.178 672.847 137.821 673.592 138.047 669.727C136.137 668.326 135.541 669.606 133.502 670.349C134.57 662.814 136.022 664.722 140.512 661.269C138.741 657.387 139.14 660.577 136.926 659.655C138.869 657.751 138.811 658.281 141.559 657.138C140.064 653.461 141.497 656.265 138.654 654.502C139.922 653.375 141.683 653.39 142.039 652.058C142.114 651.777 142.369 651.77 142.497 651.595C141.552 650.217 140.277 650.001 139.213 649.428C140.371 639.864 141.968 641.464 148.56 638.433C148.123 634.051 149.202 637.34 145.977 635.895C147.178 633.371 148.253 633.519 147.634 631.548C144.702 630.513 145.318 632.099 143.751 635.409C142.03 639.045 141.466 638.063 140.436 639.591L140.327 628.002L144.113 626.591C142.746 622.415 142.917 627.028 141.713 622.05C144.697 619.555 143.859 621.874 144.312 617.925L141.713 616.761C140.611 619.194 139.572 621.849 139.758 624.814C137.207 623.662 139.304 623.725 137.032 623.031C136.928 622.999 136.61 622.987 136.524 622.968L135.46 623.065C134.154 627.442 135.67 623.507 137.628 627.437C137.017 629.055 136.624 628.649 134.665 629.974L137.921 632.512L134.88 635.049C136.841 636.483 137.698 636.652 137.655 640.072L134.102 658.572C132.785 654.914 131.847 649.29 131.878 645.199C135.16 642.174 133.819 646.051 135.533 642.661C134.632 639.898 136.011 640.745 131.228 641.537C131.383 641.312 131.616 641.048 131.716 640.874C131.812 640.711 132.052 640.423 132.148 640.227C133.53 637.444 132.471 637.579 131.564 636.668C126.132 639.044 128.878 643.184 129.267 649.597C126.261 647.835 128.166 646.137 124.502 645.117C123.673 648.791 125.933 650.304 128.048 652.11C134.371 657.509 132.529 670.44 125.718 675.047L121.502 662.34C123.515 659.522 123.989 661.564 124.695 658.493L121.699 657.903C123.549 655.961 123.72 657.191 124.441 654.865C122.747 653.811 121.769 654.448 120.31 653.657C121.001 649.664 122.705 647.741 123.188 643.494C123.698 639.006 122.169 635.81 122.54 632.629C122.942 629.17 125.322 628.076 127.325 625.754C131.617 620.782 128.989 624.015 134.657 621.222C133.157 615.912 131.838 618.962 129.058 618.877C127.465 618.828 129.274 617.571 126.502 618.922C125.664 621.879 127.136 615.496 126.763 620.938C126.678 622.177 127.641 621.297 126.217 622.17C123.674 623.728 126.934 619.445 123.92 623.109C122.026 625.412 123.247 623.298 121.157 624.726C119.321 625.983 120.753 626.297 120.624 627.262C119.682 634.354 120.178 633.244 120.307 640.19C120.461 648.555 118.93 645.326 116.538 647.737C117.082 652.066 117.496 648.768 117.928 658.6C107.706 653.33 119.739 650.731 112.225 629.974C113.722 628.291 113.4 628.684 114.636 626.484C115.905 624.225 115.789 624.953 115.718 622.877C115.577 618.771 117.244 617.804 112.06 617.937L111.521 626.893H111.521Z" fill="#102A59"/>
<path fill-rule="evenodd" clip-rule="evenodd" d="M762.882 739.064C761.201 738.283 762.712 739.163 761.665 737.827C760.68 736.576 761.959 737.525 760.462 736.374C759.607 736.959 759.91 736.614 759.24 737.289C759.419 740.596 765.338 739.455 763.333 751.219C759.893 750.22 762.992 747.678 761.915 745.167L760.231 744.974C760.159 747.311 761.211 746.641 759.919 748.557C756.609 747.327 759.158 745.28 756.789 742.69C756.206 742.052 756.614 742.494 756.111 741.918L753.305 741.512C754.193 743.574 755.656 742.689 756.303 746.911C753.664 745.975 753.437 744.227 752.661 747.862L757.87 749.211C755.931 750.154 756.234 748.558 754.268 750.041C755.069 751.886 754.045 751.017 756.588 750.536L756.829 752.279C758.115 751.71 757.529 751.983 757.985 751.595C758.081 751.515 758.427 751.201 758.519 751.12C758.585 751.058 758.716 750.925 758.769 750.876C758.821 750.827 758.921 750.706 759.009 750.632C761.973 752.722 762.252 752.586 763.046 757.431L762.446 757.516C762.34 757.548 761.435 757.513 760.949 758.4C762.236 761.223 762.642 757.488 763.023 761.247C761.898 760.749 760.059 760.025 759.192 759.307C758.904 755.107 759.048 756.784 760.068 753.956C758.536 753.497 756.872 753.788 755.516 754.328C756.278 758.253 757.481 753.503 757.779 758.521C751.217 755.403 756.02 753.822 752.709 751.116C751.401 753.43 753.173 752.41 752.228 754.349C751.016 753.129 751.667 752.787 750.07 752.368C748.717 754.17 751.794 755.696 752.543 757.275C750.657 756.838 751.362 756.003 749.79 756.463C750.237 758.352 750.355 758.272 753.236 758.727C756.417 759.228 755.659 759.29 757.586 760.789C760.693 763.207 763.132 762.31 764.078 767.355C759.302 766.011 763.023 763.959 759.976 763.25C759.101 765.141 760.257 763.911 759.937 766.486C758.921 766.3 758.006 766.183 757.362 767.121C758.601 767.95 760.734 767.837 762.043 768.476C764.406 769.626 762.446 770.683 763.212 772.684C764.874 773.103 767.177 773.176 768.854 772.676C768.902 772.553 768.942 772.223 768.946 772.291L769.002 770.746C768.871 769.258 768.599 770.024 768.744 767.967C775.302 762.609 777.529 769.401 778.869 770.295C778.952 770.164 779.018 769.795 779.044 769.873L779.84 767.716C780.813 768.403 781.094 768.874 781.973 768.661C782.35 766.262 781.737 767.924 780.323 765.701C777.941 766.111 778.507 766.665 775.946 765.703C775.714 760.469 780.503 764.084 782.262 764.189C784.254 760.938 780.139 763.937 782.345 761.791C783.191 760.968 785.063 761.774 786.351 762.014C786.306 760.013 785.899 761.425 786.784 759.853C785.895 759.367 785.094 759.734 784.267 758.884L785.931 756.974L784.171 756.011C782.306 758.218 783.015 759.601 779.513 760.643C779.308 757.711 780.389 759.818 780.743 756.997C777.758 756.984 779.159 756.162 777.836 758.81C777.057 760.37 777.145 760.5 775.481 761.336C774.536 759.655 775.174 760.083 775.88 758.291L773.573 758.497L773.266 763.198C770.862 762.709 772.285 760.972 770.754 759.557C769.755 760.952 770.197 760.258 770.587 762.275C768.804 763.059 769.795 761.31 769.227 763.127C769.024 763.779 770.649 764.056 767.917 764.025C766.692 760.306 771.716 756.691 774.028 755.378C776.518 754.885 775.941 757.602 783.689 753.555C782.692 751.505 781.964 752.432 780.572 753.297C779.797 752.971 780.239 752.387 778.869 752.137C778.51 753.048 779.193 755.444 776.676 753.555C779.259 750.45 778.874 750.707 784.201 750.837C784.511 750.03 784.87 748.848 785.068 747.862C781.23 747.637 785.602 748.707 781.898 748.648C781.688 746.817 782.291 746.962 783.171 745.679L781.249 744.58C780.878 746.021 780.672 750.308 778.668 749.318C776.907 748.449 779.937 745.357 780.66 744.692C779.946 742.749 780.838 745.289 779.858 743.607C779.832 743.556 779.762 743.431 779.735 743.381L777.363 742.908C778.081 745.693 779.433 743.641 777.831 746.722C776.768 746.507 777.434 746.514 776.627 746.117C775.407 745.517 777.184 745.707 775.153 745.56C775.074 747.263 776.024 748.101 775.954 749.738C775.836 752.57 775.052 751.368 773.345 751.42C773.204 752.342 774.132 753.873 770.237 755.371C770.46 753.574 770.91 752.835 771.865 751.4C772.724 750.11 773.852 748.516 773.056 747.089C770.224 747.451 771.674 747.076 770.81 749.745L769.791 749.694C769.085 749.684 770.307 749.157 768.363 749.866C768.757 751.642 769.405 751.549 768.538 753.841C767.523 756.521 768.21 756.68 766.275 758.006C765.806 757.08 765.335 754.27 765.404 753.05C765.619 749.408 770.901 745.389 774.509 744.724L775.267 743.144C776.588 741.974 776.435 743.676 776.698 741.631C775.267 740.478 776.024 741.175 773.941 741.915C774.3 738.268 775.718 740.272 776.791 737.561L774.987 736.791C771.716 739.509 773.096 741.987 771.121 743.396C769.743 741.454 772.149 738.766 771.121 736.646L769.673 736.46C769.029 738.096 770.198 737.778 769.117 738.912C768.906 739.132 768.754 738.734 768.377 739.508C769.712 742.73 769.043 745.65 765.82 748.057C765.804 741.687 770.041 737.063 766.105 736.007C765.421 738.931 766.688 740.128 764.516 740.369C764.674 738.249 764.854 736.993 764.302 734.838C763.838 733.027 765.16 733.527 763.37 732.62C762.253 733.358 762.932 732.155 762.555 733.778C762.082 735.806 763.549 736.935 762.883 739.065L762.882 739.064Z" fill="#102A59"/>
<path fill-rule="evenodd" clip-rule="evenodd" d="M1334.92 579.519C1334.86 579.422 1334.81 579.154 1334.78 579.21C1334.77 579.267 1334.68 578.977 1334.66 578.899C1334.46 578.243 1334.26 576.787 1334.52 566.459C1334.58 563.955 1334.98 554.643 1334.14 552.977C1332.51 554.501 1330.95 562.123 1330.63 564.931L1330.13 576.269C1330.08 580.391 1330.01 579.01 1329.44 579.44C1328.24 576.692 1329.66 571.813 1329.2 568.608C1327.23 554.766 1330.85 550.295 1330.08 546.609C1329.88 545.66 1326.57 540.08 1325.79 538.762C1324.31 536.236 1322.77 533.613 1321.97 530.423C1321.05 526.733 1322.27 523.192 1321.93 519.094C1321.45 513.087 1318.87 501.721 1325.18 500.161C1325.8 509.493 1324.08 507.638 1327.26 520.099C1328.98 526.844 1327.22 532.144 1331.22 538.055C1332.43 532.777 1331.06 523.333 1331.32 517.489C1331.43 514.994 1332.28 509.572 1331.56 507.551C1330.61 504.865 1329.34 503.368 1328.41 500.111C1326.76 494.189 1325.95 489.411 1323.51 484.262C1322.06 481.213 1317.41 471.432 1320.82 468.333C1320.98 468.559 1322.28 473.162 1322.84 474.34C1326.4 482.019 1334.04 496.952 1333.42 504.974C1333.12 508.929 1333.07 508.008 1333.97 511.813C1335.01 516.222 1336.81 529.125 1336.9 533.554C1336.96 536.185 1336.82 538.86 1336.56 541.421C1336.14 545.477 1335.62 544.562 1336.66 548.66C1337.66 552.623 1336.09 559.62 1335.79 563.724C1335.6 566.418 1335.52 568.845 1335.41 571.549L1335.3 578.559C1335.01 579.838 1335.2 579.06 1334.92 579.519ZM1344 490.143C1345.26 487.916 1345.33 481.627 1346.37 478.423C1347.86 473.869 1347.4 473.691 1348.03 469.572C1348.1 469.17 1348.24 468.209 1348.34 467.862C1348.38 467.758 1348.4 467.652 1348.44 467.555L1349.02 466.579C1350.8 469.669 1349.42 479.728 1348.6 483.365C1345.69 496.248 1352.21 507.784 1350.7 517.253C1349.52 524.699 1349.07 523.2 1352.58 532.775C1354.11 530.326 1354.06 523.557 1355.76 519.145C1356.42 517.461 1357.58 516.346 1357.92 515.381C1359.27 511.709 1352.99 498.374 1354.08 485.358C1354.38 481.819 1355.53 479.023 1355.56 475.593C1355.61 473.176 1356.97 458.328 1359.21 455.87C1359.66 456.649 1359.65 461.767 1359.82 463.523C1360.43 469.531 1358.34 471.308 1360.72 487.834C1361.69 494.556 1362.56 495.034 1361.8 502.561C1361.57 505.025 1361.47 507.897 1361 510.311C1360.5 512.921 1359.29 514.238 1359.37 517.08C1359.55 524.406 1358.68 525.92 1357.43 532.136C1356.36 537.523 1356.98 542.957 1356.5 548.427C1355.58 559.054 1357.08 562.565 1355.35 572.756C1354.85 575.727 1355.28 578.363 1354.92 579.727C1354.56 581.104 1354.94 580.032 1354.5 580.683C1352.64 578.383 1355.23 569.34 1355 565.658C1354.74 561.45 1352.78 556.151 1352.21 551.801C1350.9 552.917 1350.86 555.563 1349.84 558.255C1349.11 560.133 1347.38 562.354 1347.18 564.168C1346.79 567.637 1347.81 579.027 1346.64 580.804C1345.71 579.727 1346.15 565.666 1346.17 563.706C1346.22 560.194 1347.43 556.497 1347.94 552.889C1348.54 548.599 1347.15 534.818 1345.92 530.887C1341.94 534.458 1342.87 549.55 1341.88 555.794C1341.1 560.631 1340.25 563.014 1338.84 567.211C1337.46 571.259 1339.33 576.732 1337.71 580.478C1336.58 579.401 1337.46 578.174 1337.53 575.863C1337.59 574.137 1337.35 572.49 1337.35 570.766C1337.35 565.856 1338.07 560.46 1338.23 555.362C1338.4 549.857 1338.79 544.506 1339.03 539.031C1339.27 533.086 1341.1 530.486 1342.13 525.495C1342.67 522.82 1342.62 521.248 1343.44 518.576C1346.43 509 1340.93 510.612 1339.65 499.436C1338.86 492.551 1339.69 490.57 1340.43 484.21C1340.79 481.191 1340.33 478.857 1340.4 475.958C1340.47 473.489 1341.07 470.893 1341.58 468.532C1343.14 461.464 1341.66 455.315 1343.15 453.193C1344.28 453.998 1344.57 455.685 1344.92 456.977C1346.35 462.313 1348.52 465.796 1347.14 470.979C1346.37 473.814 1345.4 476.708 1344.64 479.436C1344.22 480.985 1343.91 488.186 1344 490.144L1344 490.143Z" fill="#102A59"/>
<path fill-rule="evenodd" clip-rule="evenodd" d="M462.791 634.095C460.757 631.997 462.52 635.041 461.772 630.543L461.579 629.257C457.723 630.903 460.668 629.546 458.309 632.923C456.356 627.887 459.491 628.148 458.008 625.574C454.066 626.67 456.812 626.293 454.436 629.414L452.064 624.853C448.368 626.406 452.972 623.81 449.18 627.923C446.481 630.85 447.263 625.794 446.652 631.443C449.921 634.211 448.875 630.887 453.572 634.083C464.879 641.776 471.778 640.834 469.887 647.641C468.828 648.208 469.838 648.287 467.899 648.119C464.152 647.794 466.801 646.258 458.539 641.71L456.222 638.35C453.208 639.297 455.461 638.781 454.33 639.299C452.595 640.093 454.2 639.962 451.768 640.338C450.349 637.258 450.382 636.352 447.134 635.104C444.713 638.181 447.288 638.938 449.323 641.263C449.128 641.427 448.779 641.342 448.668 641.659L446.769 642.699C445.08 643.607 446.14 642.499 444.132 644.246L444.914 647.155C448.443 645.922 445.186 645.606 450.007 644.988C452.294 644.696 455.743 644.817 457.476 645.94C454.973 646.401 453.036 646.104 451.091 647.513L452.778 650.782C457.287 649.277 455.146 647.768 461.899 647.365C464.762 652.707 469.27 653.918 466.043 658.566C463.273 656.902 464.451 659.534 465.418 654.416C460.519 655.082 462.821 655.341 460.397 653.252C458.917 651.978 461.549 652.878 458.729 651.995C452.683 658.524 467.461 659.92 464.257 667.254C461.009 664.854 462.468 663.857 457.72 661.19C451.267 657.563 455.789 656.304 451.952 654.159L449.695 655.147C450.154 662.089 455.851 660.833 457.902 665.363C445.098 665.387 448.861 659.12 442.571 658.068C440.866 663.032 441.588 662.586 445.76 664.339C445.241 667.19 444.732 667.401 445.084 670.259C447.075 669.686 453.426 665.538 459.573 670.041C466.656 675.228 459.109 681.6 461.767 683.458C461.776 683.465 472.552 685.725 471.466 681.214C471.151 679.898 467.829 676.274 471.392 672.538C473.629 670.196 480.869 670.1 477.651 663.636C473.647 664.608 477.13 663.266 474.885 666.16C473.121 668.434 475.897 667.531 471.572 668.652C468.32 662.295 476.321 662.621 478.821 656.208L474.689 654.594L473.151 653.089C477.491 653.28 479.902 652.455 483.443 654.244C487.121 656.103 487.961 659.726 489.869 654.657C487.194 651.635 486.88 653.907 484.152 651.084C485.343 648.882 488.245 646.938 490.933 646.335C494.834 645.462 490.977 647.291 494.115 645.727C492.745 640.388 492.767 645.661 491.629 641.129C490.671 637.315 495.665 637.734 488.362 637.253C488.223 637.487 488.139 637.607 488.101 638.031C488.065 638.452 487.912 638.606 487.863 638.814C487.816 639.018 487.721 639.354 487.663 639.607C487.171 641.822 488.21 645.206 482.016 645.898C480.248 638.406 487.474 641.566 488.026 631.814C481.36 630.424 488.621 632.515 481.626 633.64C481.127 637.21 482.073 635.001 481.709 636.911C481.021 640.551 481.866 637.072 479.752 639.756C477.081 643.149 478.548 644.495 477.931 648.711C475.992 648.174 473.147 647.599 472.534 641.288C474.652 639.404 475.169 640.184 476.539 637.76L474.105 636.172C469.311 637.399 473.961 640.337 468.008 637.519C467.211 629.346 477.576 634.888 478.303 626.995C476.404 625.496 479.503 626.227 476.206 625.795C470.314 625.025 479.309 628.357 467.71 630.062C469.153 626.409 470.288 626.74 470.739 622.517C463.997 622.187 467.174 622.389 465.976 627.859C465.81 627.672 465.692 627.049 465.644 627.183L464.611 624.522C463.692 622.825 466.243 623.341 462.469 622.782C460.127 626.77 466.086 629.193 462.789 634.095L462.791 634.095Z" fill="#102A59"/>
<path fill-rule="evenodd" clip-rule="evenodd" d="M680.056 768.994C681.308 769.201 682.617 769.719 683.299 769.813C684.99 770.051 684.635 769.57 686.621 769.639C686.89 770.006 687.322 769.177 686.946 770.956C686.919 771.086 686.613 771.687 686.534 771.834L688.644 771.176C689.484 771.719 688.859 771.005 689.209 772.303C692.781 769.867 696.9 771.03 700.231 772.292C699.846 769.442 700.101 771.732 698.375 769.639C700.56 769.701 705.397 772.261 706.522 771.604C705.572 770.868 704.032 770.201 703.068 769.607L707.432 767.573L705.808 767.03C705.454 766.935 704.74 766.847 704.358 766.746C704.988 766.609 706.658 766.32 707.253 766.137C708.719 765.688 707.445 766.21 708.47 765.644C709.629 765.003 708.706 765.672 709.573 764.719L703.654 765.513C705.812 763.767 708.701 763.104 711.097 760.924C709.608 760.426 710.011 761.943 709.197 760.329C707.914 757.801 710.281 760.858 709.266 758.493L705.339 760.53C706.171 758.607 706.054 757.863 707.371 756.101C708.457 754.653 709.788 753.398 709.629 751.636C707.774 752.361 706.516 755.398 705.2 756.39L703.829 756.852C701.995 757.544 702.971 758.105 700.616 760.096C701.198 758.1 701.904 756.46 702.989 754.709C703.611 753.705 705.068 751.593 704.924 750.42L704.057 750.385C702.21 751.025 703.821 750.347 703.081 751.211C701.767 752.75 699.947 755.133 699.163 757.099C699.119 756.997 699.088 756.839 699.076 756.778C699.063 756.718 699.01 756.533 698.995 756.458L698.883 755.803C698.607 753.41 699.351 752.857 699.648 751.291C700.113 748.888 699.552 749.735 699.573 748.013C699.587 747.089 699.929 746.092 700.004 745.067C698.563 745.027 699.123 744.314 698.471 747.177C697.92 749.597 697.245 753.898 696.27 755.863C694.181 747.505 696.099 753.785 693.673 747.881C693.135 746.564 693.59 747.41 693.174 746.871C691.401 751.412 694.028 754.68 694.151 760.046C693.17 758.115 693.625 757.025 692.317 754.844L691.699 753.926C691.266 753.31 691.362 753.457 691.081 753.102C691.042 753.055 690.893 753.005 690.868 752.865C690.841 752.728 690.741 752.699 690.654 752.639C689.786 754.562 691.318 757.201 691.415 759.196L689.059 755.584C685.571 752.453 687.4 752.086 684.608 749.548C683.605 751.881 685.478 753.568 686.237 756.274C685.09 755.603 686.031 756.249 685.203 755.47C685.033 755.307 684.449 754.607 684.445 754.6C682.988 753.1 684.678 753.765 682.738 753.554C683.631 756.44 684.73 756.869 685.75 759.196C685.631 759.114 685.475 759.013 685.386 758.954L684.358 758.255C682.423 756.831 680.239 753.361 678.238 753.049C678.767 754.53 680.396 756.375 681.21 757.869C683.691 762.431 682.274 759.506 684.638 762.44C681.397 760.851 678.399 758.195 676.416 757.219C676.849 759.52 677.822 760.228 679.708 760.992L677.296 761.845C678.378 762.486 679.853 762.625 680.719 763.448C681.722 764.401 680.593 765.108 682.804 765.416L677.305 765.138L678.242 766.22C679.123 766.93 680.637 767.095 681.871 767.266C683.627 767.507 685.237 767.306 686.63 767.862C683.819 768.151 682.204 767.688 680.055 768.995L680.056 768.994Z" fill="#102A59"/>
<path fill-rule="evenodd" clip-rule="evenodd" d="M1203.44 686.462C1201.37 684.665 1201.62 683.285 1200.96 680.691C1200.05 681.739 1200.69 680.196 1200.42 681.899C1199.9 685.304 1203.12 687.152 1203.14 690.996C1199.85 688.682 1200.85 688.119 1198.7 684.891C1196.85 688.606 1203.03 690.505 1203.52 694.993C1201.85 694.05 1202.02 693.244 1200.5 692.872C1200.8 694.176 1201.28 694.746 1202.04 695.491C1204.02 697.44 1203.47 695.449 1204.11 698.302C1203.04 699.01 1203.88 697.975 1202.48 698.302C1203.03 699.998 1206.47 703.488 1207.42 705.379C1205.04 703.831 1204.99 703.274 1203.25 701.293C1202.85 704.535 1206.41 706.381 1208.61 707.598C1209.12 710.319 1208.34 706.41 1207.57 709.182L1210.84 709.86C1211.53 713.144 1209.47 713.139 1213.03 713.299C1213.11 713.17 1213.17 712.788 1213.19 712.866L1214.24 709.975C1214.8 709.173 1215.81 708.73 1216.88 707.671C1218.1 706.484 1220.22 703.13 1219.25 701.276C1217.65 703.006 1218.61 702.344 1217.65 704.612C1216.76 706.724 1216.71 706.004 1215.42 707.374C1215.41 705.714 1216.36 704.965 1217.24 703.052C1218.6 700.125 1218.01 700.686 1220.26 698.915C1225.65 694.648 1227.44 695.995 1228.36 693.402C1226.69 693.66 1225.69 694.418 1223.74 694.984C1226.09 691.612 1228.36 692.647 1229.53 688.152C1227.03 689.243 1228.47 689.903 1225.75 691.31L1226.63 686.519C1223.82 688.895 1225.79 692.897 1218.99 698.184C1219.86 694.483 1223.43 689.085 1223.53 686.297C1221.63 687.613 1218.82 694.717 1217.85 697.615C1216.4 701.978 1214.17 705.467 1212.6 709.319C1212.38 709.095 1210.8 709.643 1212.32 706.496C1212.86 705.383 1213.47 704.441 1213.95 703.05C1215.68 698.056 1215.99 692.4 1221.4 685.733C1222.96 683.808 1223.02 685.022 1224.21 682.521C1222.23 683.105 1221.75 683.752 1220.58 684.577L1221.56 679.833C1218.5 681.601 1220.51 688.359 1217.19 689.792C1217.33 686.885 1218.17 680.648 1216.89 678.463C1216.66 678.891 1216.67 678.507 1216.55 679.642C1216.49 680.217 1216.54 681.155 1216.55 681.759L1214.89 682.311C1218.56 686.749 1214.1 699.659 1212.02 704.934C1211.08 703.472 1211.3 700.896 1211.76 699.239C1212.21 697.573 1213 696.213 1213.48 694.314C1214.39 690.769 1214.19 686.231 1212.48 683.334C1212.1 683.998 1212.09 682.645 1212.22 684.814C1212.22 684.94 1212.5 686.226 1212.57 686.52C1213.28 690.045 1213.12 694.906 1210.94 697.684C1210.2 693.413 1210.76 692.597 1211.51 688.766C1209.78 689.781 1210.47 690.104 1209.82 690.031C1208.64 687.254 1207.3 685.945 1206.69 682.711C1205.19 684.363 1206.15 685.626 1207.69 688.194C1208.98 690.352 1209.36 691.336 1208.78 694.04C1207.09 701.804 1210.82 698.98 1210.06 706.42C1206.06 700.958 1208.53 693.449 1206.95 688.962C1206.41 689.619 1206.74 688.733 1206.41 690.137C1206.23 690.852 1206.25 690.903 1206.21 691.638C1205.98 695.447 1207.02 700.394 1206.61 702.068C1203.71 695.633 1205.13 679.923 1203.1 677.616L1203.44 686.463L1203.44 686.462Z" fill="#102A59"/>
<path fill-rule="evenodd" clip-rule="evenodd" d="M569.484 717.301C567.641 717.482 569.387 717.472 567.807 716.857C566.323 716.277 567.907 716.447 566.035 716.217C565.597 717.153 565.679 716.704 565.447 717.624C567.281 720.38 571.799 716.391 576.054 727.539C572.582 728.428 573.957 724.666 571.751 723.049L570.201 723.74C571.33 725.787 571.896 724.677 571.756 726.984C568.28 727.608 569.435 724.549 566.082 723.523C565.251 723.268 565.829 723.443 565.102 723.202L562.479 724.278C564.291 725.603 565.102 724.096 567.807 727.404C565.057 727.938 563.973 726.551 565.154 730.074L570.328 728.588C569.134 730.384 568.581 728.858 567.645 731.133C569.273 732.316 567.946 732.087 569.89 730.382L570.99 731.76C571.803 730.616 571.44 731.15 571.637 730.584C571.676 730.464 571.817 730.019 571.851 729.902C571.878 729.817 571.921 729.637 571.942 729.566C571.96 729.499 571.991 729.342 572.026 729.234C575.642 729.527 575.812 729.265 578.96 733.036L578.488 733.413C578.409 733.496 577.613 733.926 577.648 734.936C580.191 736.712 578.64 733.29 580.877 736.334C579.656 736.476 577.708 736.787 576.591 736.61C574.211 733.14 575.187 734.512 574.626 731.556C573.076 731.939 571.795 733.037 570.897 734.19C573.548 737.182 572.17 732.483 574.981 736.651C567.74 737.302 571.071 733.5 566.847 732.851C566.895 735.509 567.906 733.73 568.073 735.881C566.409 735.445 566.799 734.819 565.215 735.27C564.961 737.51 568.388 737.26 569.837 738.239C567.986 738.823 568.169 737.744 567.049 738.939C568.397 740.337 568.458 740.21 571.168 739.138C574.167 737.951 573.545 738.39 575.965 738.703C579.871 739.206 581.516 737.193 584.891 741.058C580.098 742.327 582.256 738.669 579.275 739.606C579.481 741.679 579.853 740.032 580.886 742.412C579.915 742.77 579.069 743.132 578.99 744.27C580.479 744.353 582.256 743.173 583.71 743.057C586.331 742.847 585.176 744.753 586.852 746.087C588.499 745.603 590.521 744.496 591.711 743.212C591.688 743.083 591.554 742.779 591.594 742.835L590.857 741.475C589.987 740.261 590.144 741.059 589.225 739.212C592.144 731.267 597.516 735.982 599.127 736.071C599.131 735.918 599 735.567 599.061 735.617L598.65 733.357C599.841 733.455 600.318 733.718 600.969 733.087C600.073 730.83 600.388 732.573 598.046 731.377C596.199 732.94 596.964 733.132 594.272 733.604C591.414 729.214 597.376 729.894 598.943 729.09C599.009 725.277 596.987 729.952 597.796 726.981C598.107 725.844 600.125 725.586 601.36 725.139C600.305 723.439 600.672 724.859 600.633 723.057C599.622 723.091 599.113 723.814 597.976 723.502L598.436 721.011L596.431 721.077C595.945 723.926 597.259 724.755 594.776 727.432C593.108 725.011 595.108 726.277 593.98 723.666C591.4 725.174 592.189 723.753 592.4 726.706C592.521 728.445 592.661 728.514 591.655 730.079C589.987 729.111 590.753 729.155 590.45 727.251L588.569 728.602L590.691 732.808C588.376 733.608 588.717 731.388 586.677 730.948C586.527 732.658 586.554 731.835 587.916 733.374C586.777 734.956 586.743 732.945 587.176 734.799C587.334 735.465 588.874 734.877 586.507 736.238C583.561 733.659 586.052 727.99 587.374 725.687C589.269 723.995 590.149 726.628 594.767 719.206C592.868 717.947 592.714 719.112 591.952 720.566C591.121 720.679 591.204 719.952 589.895 720.432C590.049 721.402 591.856 723.117 588.731 722.768C589.375 718.783 589.173 719.201 593.827 716.605C593.681 715.752 593.393 714.551 593.061 713.602C589.641 715.358 593.953 714.057 590.731 715.887C589.619 714.419 590.215 714.237 590.32 712.685L588.105 712.715C588.521 714.144 590.521 717.941 588.289 718.108C586.332 718.253 587.37 714.049 587.655 713.11C586.052 711.801 588.114 713.533 586.411 712.582C586.363 712.555 586.236 712.483 586.192 712.451L583.908 713.252C585.944 715.285 586.061 712.829 586.25 716.298C585.225 716.653 585.803 716.321 584.905 716.388C583.548 716.491 585.177 715.749 583.352 716.657C584.147 718.163 585.395 718.402 586.166 719.847C587.502 722.346 586.218 721.71 584.774 722.622C585.12 723.489 586.7 724.333 584.105 727.604C583.382 725.943 583.394 725.078 583.491 723.357C583.575 721.809 583.736 719.863 582.327 719.038C580.068 720.791 581.127 719.73 581.736 722.469L580.834 722.943C580.221 723.292 581.006 722.218 579.696 723.814C580.935 725.145 581.447 724.735 581.867 727.15C582.352 729.973 583.022 729.762 582.034 731.886C581.158 731.328 579.324 729.149 578.764 728.061C577.096 724.818 579.605 718.67 582.375 716.262L582.222 714.517C582.765 712.84 583.5 714.382 582.685 712.488C580.864 712.221 581.871 712.437 580.453 714.134C578.909 710.812 581.153 711.813 580.693 708.935L578.751 709.19C577.318 713.191 579.766 714.625 578.781 716.844C576.605 715.872 577.314 712.332 575.349 711.03L574.005 711.605C574.285 713.342 575.126 712.473 574.776 714.001C574.706 714.296 574.372 714.03 574.438 714.889C577.227 716.984 578.133 719.84 576.588 723.55C573.332 718.074 574.631 711.937 570.705 713.028C571.602 715.893 573.301 716.283 571.554 717.592C570.608 715.687 570.126 714.513 568.56 712.938C567.238 711.613 568.629 711.373 566.625 711.504C566.038 712.705 566.016 711.324 566.515 712.912C567.137 714.9 568.971 715.129 569.484 717.299L569.484 717.301Z" fill="#102A59"/>
<path fill-rule="evenodd" clip-rule="evenodd" d="M1177.61 675.386C1177.09 671.789 1178.53 670.625 1180.12 667.457C1178.31 667.72 1180.29 666.729 1178.54 668.204C1175.07 671.156 1176.69 675.793 1173.37 679.656C1172.08 674.481 1173.57 674.79 1174.2 669.689C1169.14 671.805 1173.7 679.076 1170.29 683.984C1169.44 681.596 1170.31 680.934 1169.1 679.242C1168.28 680.811 1168.26 681.793 1168.38 683.196C1168.66 686.861 1169.84 684.388 1168.01 687.809C1166.34 687.589 1168.06 687.276 1166.38 686.386C1165.47 688.566 1165.88 695.045 1165.19 697.748C1164.14 694.133 1164.59 693.546 1164.57 690.055C1161.35 692.949 1163.31 697.869 1164.46 701.004C1162.61 704.161 1165.21 699.57 1162.04 701.685L1164.73 705.199C1162.57 709.075 1160.53 707.289 1163.92 710.53C1164.12 710.476 1164.53 710.139 1164.47 710.239L1168.02 708.256C1169.27 707.93 1170.68 708.368 1172.67 708.244C1174.91 708.103 1179.95 706.598 1180.58 703.897C1177.48 704.245 1179.01 704.413 1176.09 705.848C1173.37 707.187 1173.94 706.428 1171.47 706.682C1172.89 705.006 1174.47 705.072 1177.03 703.926C1180.9 702.173 1179.86 702.233 1183.62 702.402C1192.72 702.811 1193.34 705.706 1196.51 703.915C1194.62 702.719 1192.96 702.613 1190.53 701.499C1195.79 700.157 1197.17 703.159 1202.23 699.676C1198.77 698.596 1199.67 700.518 1195.72 699.559L1200.75 695.528C1195.88 695.474 1194.37 701.182 1183 700.575C1187.05 697.617 1195.33 695.328 1197.83 692.618C1194.79 692.284 1185.84 696.963 1182.35 699.027C1177.12 702.131 1171.87 703.689 1166.97 706.179C1166.93 705.769 1164.87 704.939 1169.13 703.111C1170.62 702.464 1172.06 702.056 1173.74 701.081C1179.79 697.577 1185.01 692.191 1196.2 690.214C1199.43 689.643 1198.43 690.901 1201.79 689.43C1199.3 688.296 1198.26 688.53 1196.38 688.344L1201.46 684.441C1196.87 683.563 1193.04 692.07 1188.48 690.625C1191.12 687.832 1197.37 682.327 1197.98 679.027C1197.38 679.255 1197.73 678.883 1196.61 679.912C1196.06 680.432 1195.3 681.412 1194.77 682.025L1192.65 681.143C1192.47 688.765 1176.83 697.808 1170.2 701.302C1170.5 699.014 1172.96 696.627 1174.84 695.359C1176.74 694.088 1178.73 693.423 1180.85 691.937C1184.81 689.163 1188.55 684.452 1189.35 680.076C1188.4 680.419 1189.56 679.054 1187.8 681.335C1187.71 681.466 1186.88 682.997 1186.69 683.342C1184.35 687.489 1179.95 692.203 1175.39 693.109C1178.33 688.182 1179.61 687.862 1183.68 684.679C1181.06 684.189 1181.47 685.114 1180.89 684.477C1182.12 680.67 1181.92 678.209 1184.09 674.432C1181.17 674.801 1181.04 676.892 1180.35 680.791C1179.77 684.067 1179.3 685.382 1176.37 687.58C1167.96 693.886 1174.13 694.294 1166.94 701.085C1167.66 692.145 1176.64 686.776 1178.95 680.927C1177.83 681.101 1178.93 680.505 1177.38 681.619C1176.58 682.187 1176.57 682.258 1175.89 682.955C1172.36 686.566 1169.12 692.418 1167.23 693.725C1169.93 684.79 1184.96 670.3 1184.93 666.232L1177.61 675.385L1177.61 675.386Z" fill="#102A59"/>
<path fill-rule="evenodd" clip-rule="evenodd" d="M200.653 708.338C197.267 708.105 196.487 706.555 193.908 704.481C193.789 706.191 193.274 704.192 194.278 706.071C196.29 709.826 200.845 709.262 203.72 713.045C198.736 713.21 199.313 711.908 194.78 710.321C195.714 715.365 203.253 712.635 207.063 716.717C204.715 717.024 204.283 716.1 202.497 716.867C203.77 717.926 204.663 718.137 205.967 718.312C209.371 718.768 207.344 717.21 210.11 719.545C209.579 721.04 209.634 719.396 208.486 720.766C210.3 722.026 216.301 722.916 218.632 724.088C215.122 724.331 214.675 723.806 211.482 723.14C213.492 726.644 218.37 725.835 221.462 725.394C223.98 727.71 220.3 724.429 221.608 727.733L225.349 725.971C228.463 728.71 226.426 730.235 230.059 727.753C230.048 727.562 229.817 727.143 229.899 727.202L228.788 723.566C228.735 722.365 229.414 721.169 229.691 719.324C230.005 717.25 229.623 712.349 227.28 711.244C226.99 714.137 227.443 712.773 228.178 715.728C228.864 718.48 228.284 717.802 228.028 720.114C226.778 718.484 227.152 717.044 226.607 714.496C225.771 710.596 225.615 711.579 226.515 708.167C228.682 699.937 231.446 699.942 230.437 696.689C228.968 698.191 228.546 699.684 227.051 701.683C226.864 696.607 229.874 695.944 227.691 690.632C226.025 693.572 227.954 693.143 226.301 696.561L223.611 691.173C222.603 695.607 227.521 698.1 224.723 708.379C222.822 704.082 222.36 696.081 220.379 693.257C219.473 695.975 221.983 705.078 223.181 708.659C224.987 714.052 225.373 719.158 226.682 724.133C226.301 724.071 225.138 725.794 224.305 721.552C224.011 720.051 223.919 718.663 223.36 716.934C221.35 710.719 217.461 704.891 217.86 694.276C217.975 691.212 218.928 692.374 218.245 689.019C216.717 691.07 216.728 692.063 216.187 693.747L213.622 688.335C211.918 692.349 218.932 697.533 216.712 701.419C214.684 698.446 210.887 691.652 207.993 690.446C208.082 691.043 207.812 690.652 208.532 691.865C208.897 692.48 209.641 693.371 210.101 693.959L208.875 695.736C215.803 697.395 220.978 713.474 222.863 720.218C220.833 719.484 219.139 716.77 218.352 714.798C217.566 712.816 217.346 710.873 216.408 708.642C214.655 704.477 211.088 700.136 207.252 698.537C207.375 699.475 206.358 698.144 208.096 700.194C208.196 700.313 209.429 701.373 209.708 701.618C213.034 704.574 216.476 709.508 216.404 713.857C212.484 710.197 212.442 708.967 210.338 704.621C209.374 706.917 210.3 706.719 209.605 707.13C206.366 705.267 204.081 704.96 201.059 702.227C200.821 704.962 202.705 705.5 206.13 706.899C209.008 708.074 210.116 708.762 211.547 711.871C215.65 720.795 217.239 715.234 222.024 723.146C213.999 720.729 210.865 711.468 205.98 708.198C205.917 709.265 205.589 708.14 206.301 709.776C206.665 710.61 206.725 710.643 207.226 711.402C209.83 715.339 214.536 719.453 215.36 721.424C207.73 717.204 197.456 700.625 193.735 699.851L200.653 708.338V708.338Z" fill="#102A59"/>
<path fill-rule="evenodd" clip-rule="evenodd" d="M417.835 702.131C419.033 701.713 420.432 701.538 421.075 701.295C422.674 700.692 422.13 700.441 423.908 699.547C424.317 699.741 424.3 698.807 424.824 700.547C424.862 700.674 424.882 701.348 424.882 701.517L426.42 699.926C427.417 699.998 426.527 699.673 427.456 700.645C429.423 696.793 433.593 695.837 437.124 695.348C435.416 693.034 436.738 694.919 434.219 693.912C436.164 692.919 441.639 692.842 442.312 691.727C441.127 691.538 439.451 691.691 438.324 691.63L441.179 687.753L439.491 688.056C439.135 688.143 438.468 688.408 438.081 688.503C438.572 688.079 439.898 687.025 440.332 686.579C441.402 685.48 440.533 686.553 441.161 685.563C441.873 684.445 441.384 685.474 441.686 684.223L436.875 687.756C437.93 685.191 440.148 683.222 441.204 680.161C439.657 680.441 440.74 681.576 439.248 680.552C436.911 678.948 440.457 680.496 438.431 678.906L435.962 682.578C435.769 680.491 435.311 679.894 435.621 677.717C435.878 675.927 436.442 674.187 435.461 672.715C434.177 674.243 434.536 677.508 433.853 679.014L432.872 680.076C431.594 681.562 432.721 681.587 431.609 684.464C431.164 682.432 430.994 680.655 431.106 678.598C431.171 677.418 431.438 674.865 430.747 673.906L429.97 674.29C428.654 675.739 429.744 674.371 429.511 675.484C429.095 677.466 428.641 680.428 428.896 682.529C428.809 682.46 428.706 682.336 428.665 682.289C428.625 682.242 428.491 682.105 428.442 682.046L428.031 681.524C426.64 679.558 427.025 678.717 426.538 677.199C425.79 674.869 425.706 675.88 424.901 674.36C424.469 673.541 424.29 672.504 423.864 671.568C422.578 672.227 422.73 671.331 423.531 674.155C424.209 676.543 425.678 680.641 425.766 682.831C419.922 676.501 424.619 681.09 419.659 677.072C418.554 676.177 419.359 676.7 418.736 676.428C419.358 681.263 423.23 682.869 425.913 687.519C424.127 686.295 424 685.122 421.81 683.834L420.827 683.325C420.149 682.993 420.304 683.076 419.887 682.899C419.831 682.875 419.679 682.903 419.588 682.793C419.499 682.686 419.393 682.709 419.291 682.697C419.453 684.799 422.062 686.381 423.103 688.085L419.304 686.046C414.743 684.97 416.169 683.773 412.503 682.885C412.741 685.413 415.195 685.996 417.159 688.006C415.828 687.966 416.964 688.081 415.868 687.795C415.638 687.734 414.793 687.398 414.782 687.395C412.787 686.776 414.586 686.551 412.785 687.298C414.953 689.399 416.12 689.25 418.134 690.801C417.99 690.787 417.803 690.774 417.699 690.764L416.462 690.644C414.08 690.321 410.499 688.325 408.592 689.011C409.767 690.058 412.084 690.894 413.513 691.816C417.881 694.628 415.231 692.741 418.714 694.183C415.108 694.342 411.204 693.449 408.997 693.544C410.481 695.354 411.674 695.51 413.695 695.275L411.987 697.181C413.242 697.224 414.605 696.639 415.76 696.945C417.096 697.302 416.444 698.464 418.532 697.674L413.577 700.066L414.917 700.566C416.026 700.766 417.435 700.185 418.6 699.742C420.259 699.113 421.573 698.164 423.063 697.983C420.737 699.586 419.098 699.953 417.835 702.131H417.835Z" fill="#102A59"/>
<path fill-rule="evenodd" clip-rule="evenodd" d="M498.929 705.495C497.983 705.387 497.004 705.212 495.986 704.954L497.852 703.106C497.852 703.106 499.449 703.321 501.046 704.098C501.529 704.333 501.94 704.398 502.28 704.375C502.588 704.262 502.905 704.143 503.229 704.019C503.384 703.899 503.463 703.796 503.463 703.796C503.463 703.796 503.636 702.285 502.341 701.725C501.046 701.164 499.579 701.336 499.579 701.336L502.298 698.143C502.298 698.143 503.765 697.97 505.707 698.574C507.649 699.178 508.685 698.056 508.685 698.056C508.685 698.056 509.246 696.804 507.304 696.028C505.361 695.251 503.722 696.33 503.722 696.33C503.722 696.33 505.368 694.735 507.5 691.56C508.703 691.384 509.53 691.911 511.535 692.166C513.909 692.468 514.038 690.655 514.038 690.655C514.038 690.655 513.563 689.058 511.621 689.015C510.472 688.99 509.323 689.478 508.576 689.881C509.335 688.642 510.127 687.224 510.908 685.629C511.757 685.805 513.323 686.021 514.685 685.606C516.67 685.001 517.232 684.138 517.232 683.146C517.232 682.153 515.333 682.067 514.599 682.455C513.866 682.843 511.447 684.499 511.447 684.499L511.446 684.501C512.236 682.791 513.005 680.895 513.705 678.816L513.909 677.19L513.704 678.82C513.704 678.82 518.009 676.975 518.44 676.241C518.871 675.507 519.044 673.997 518.569 673.35C518.095 672.702 516.411 673.522 515.937 674.558C515.631 675.226 514.877 676.125 514.38 676.681C514.575 676.019 514.764 675.34 514.943 674.644C514.943 674.644 515.305 673.092 515.377 670.307C516.234 670.007 518.037 669.24 519.001 667.825C520.296 665.926 518.872 664.502 518.872 664.502C518.872 664.502 516.973 664.33 516.628 666.142C516.407 667.305 515.795 668.166 515.384 668.633C515.358 667.208 515.253 665.554 515.011 663.699L514.297 662.085L515.011 663.7C516.848 662.682 518.354 658.719 518.354 658.719C518.354 658.719 518.57 656.388 517.491 655.828C516.412 655.266 515.937 656.389 515.937 656.389C515.937 656.389 515.463 657.899 515.333 659.884C515.265 660.939 514.976 661.495 514.721 661.783L514.722 661.781C514.41 659.95 513.967 657.956 513.349 655.82L512.571 654.533L513.349 655.821C513.349 655.821 515.117 651.081 515.592 649.872C516.066 648.664 515.98 647.196 514.858 646.506C513.735 645.815 513.217 647.585 513.217 647.585C513.217 647.585 512.743 650.433 512.959 651.728C513.091 652.517 512.917 653.386 512.762 653.945L512.766 653.93C512.059 651.765 511.173 649.471 510.066 647.067L510.059 647.051C510.439 645.925 511.398 643.153 512.009 641.931C512.786 640.378 511.319 639.039 511.319 639.039C511.319 639.039 509.636 639.169 509.204 640.722C508.773 642.276 508.989 644.674 508.989 644.674V644.672C508.273 643.043 507.674 641.593 507.172 640.298C507.166 640.195 507.023 637.421 508.082 636.32C509.161 635.198 508.687 633.99 508.687 633.99C508.687 633.99 507.78 632.738 507.003 633.687C506.237 634.624 506.213 637.592 506.212 637.675C503.701 630.312 505.233 629.717 505.233 629.717C505.233 629.717 505.406 627.559 504.025 628.163C502.643 628.768 502.385 630.321 502.385 630.321C502.385 630.321 502.428 633.342 504.543 637.011C505.128 638.027 505.999 640.041 506.952 642.422C506.265 640.707 504.497 640.118 503.336 640.118C502.17 640.118 501.782 641.37 501.782 641.37C501.782 641.37 501.523 642.06 504.026 642.664C506.523 643.267 508.034 645.194 508.042 645.203C508.596 646.644 509.151 648.128 509.673 649.54C509.669 649.537 507.563 648.059 506.097 647.671C504.63 647.282 504.199 648.534 504.199 648.534C504.199 648.534 504.285 650.735 506.615 650.95C508.942 651.166 511.089 653.433 511.096 653.441C511.644 654.96 512.072 656.169 512.301 656.817C511.432 656.125 510.537 655.531 509.768 655.33C508.525 655.006 506.851 655.215 506.686 656.014C506.521 656.813 508.317 657.884 509.529 657.335C510.315 656.98 511.873 657.992 512.844 658.763C513.134 660.038 513.528 662.094 513.757 664.623C512.659 663.26 512.463 664.288 511.205 663.426C509.947 662.564 509.026 661.364 508.728 662.152C508.429 662.939 508.401 664.195 509.554 664.999C510.328 665.54 512.564 666.543 513.915 667.157C513.961 668.51 513.949 669.95 513.847 671.444C513.358 670.461 512.805 669.557 512.202 669.054C511.215 668.232 509.61 667.71 509.121 668.363C508.633 669.016 509.803 670.749 511.133 670.767C512.051 670.781 513.102 672.567 513.628 673.676C513.326 676.028 512.779 678.463 511.878 680.857C511.612 679.404 511.101 677.957 510.478 677.052C509.751 675.993 507.922 675.294 507.275 675.79C506.627 676.287 507.284 678.271 508.56 678.65C509.787 679.015 511.248 682.153 511.257 682.372C510.628 683.784 509.864 685.173 508.944 686.512C508.944 686.512 508.869 686.646 508.72 686.896C508.836 685.337 508.749 683.656 508.126 683.072C507.435 682.424 505.57 681.315 504.922 681.811C504.275 682.307 504.932 684.292 506.207 684.67C507.482 685.049 507.821 688.451 507.709 688.433L507.892 688.236C507.185 689.347 506.122 690.945 504.707 692.88C504.714 691.208 504.026 688.945 503.399 688.358C502.709 687.71 502.051 687.205 501.405 687.701C500.757 688.197 500.013 690.129 501.696 690.992C503.124 691.724 503.583 693.672 503.69 694.247C502.703 695.551 501.577 696.973 500.314 698.478C500.443 696.781 499.859 694.063 499.019 693.6C498.156 693.126 497.638 692.824 496.99 693.32C496.343 693.816 495.955 695.564 497.638 696.427C499.321 697.29 499.023 699.987 499.023 699.987C497.863 701.32 496.601 702.705 495.239 704.118C495.381 702.437 494.71 700.022 493.861 699.555C492.998 699.08 491.919 699.685 491.919 699.685C491.919 699.685 490.883 701.152 492.566 702.015C493.623 702.557 494.024 703.667 494.177 704.419C493.854 704.311 493.529 704.198 493.199 704.075C491.893 703.584 490.584 703.104 489.281 702.635L490.303 705.92C490.303 705.92 491.45 707.718 498.93 705.495L498.929 705.495ZM514.218 676.86L514.223 676.855L514.268 676.804L514.218 676.86H514.218ZM514.996 670.431L514.974 670.437L514.971 670.438L514.996 670.431ZM512.63 654.369L512.64 654.338L512.642 654.334L512.63 654.369H512.63ZM506.967 642.461C507.311 643.322 507.666 644.23 508.022 645.156C507.936 644.935 507.558 643.962 506.967 642.461Z" fill="#102A59"/>
<path fill-rule="evenodd" clip-rule="evenodd" d="M838.331 753.706C839.277 753.598 840.256 753.422 841.273 753.165L839.408 751.317C839.408 751.317 837.811 751.532 836.214 752.309C835.731 752.544 835.319 752.609 834.98 752.586C834.672 752.473 834.355 752.354 834.031 752.23C833.876 752.11 833.797 752.007 833.797 752.007C833.797 752.007 833.624 750.496 834.919 749.935C836.214 749.374 837.681 749.547 837.681 749.547L834.962 746.353C834.962 746.353 833.495 746.181 831.553 746.785C829.611 747.389 828.575 746.267 828.575 746.267C828.575 746.267 828.014 745.015 829.956 744.239C831.898 743.462 833.538 744.541 833.538 744.541C833.538 744.541 831.891 742.946 829.76 739.77C828.557 739.595 827.729 740.122 825.725 740.377C823.351 740.679 823.222 738.866 823.222 738.866C823.222 738.866 823.696 737.269 825.638 737.226C826.788 737.201 827.937 737.689 828.684 738.092C827.925 736.852 827.133 735.435 826.351 733.84C825.503 734.016 823.937 734.231 822.574 733.817C820.589 733.212 820.028 732.349 820.028 731.357C820.028 730.364 821.927 730.278 822.66 730.666C823.394 731.054 825.812 732.71 825.812 732.71L825.814 732.712C825.024 731.002 824.255 729.106 823.554 727.027L823.351 725.401L823.555 727.031C823.555 727.031 819.251 725.185 818.82 724.452C818.388 723.718 818.216 722.208 818.691 721.561C819.165 720.913 820.848 721.733 821.323 722.769C821.629 723.437 822.382 724.336 822.88 724.892C822.685 724.23 822.496 723.551 822.317 722.855C822.317 722.855 821.955 721.303 821.882 718.518C821.026 718.218 819.223 717.451 818.259 716.036C816.964 714.137 818.388 712.713 818.388 712.713C818.388 712.713 820.287 712.54 820.632 714.353C820.853 715.516 821.465 716.377 821.876 716.844C821.901 715.419 822.007 713.765 822.249 711.91L822.962 710.296L822.248 711.911C820.412 710.892 818.905 706.93 818.905 706.93C818.905 706.93 818.69 704.599 819.769 704.039C820.848 703.477 821.323 704.6 821.323 704.6C821.323 704.6 821.797 706.11 821.927 708.095C821.995 709.15 822.284 709.705 822.539 709.994L822.537 709.992C822.849 708.161 823.292 706.167 823.911 704.031L824.689 702.744L823.911 704.032C823.911 704.032 822.143 699.292 821.668 698.083C821.194 696.875 821.28 695.407 822.402 694.717C823.524 694.026 824.042 695.796 824.042 695.796C824.042 695.796 824.517 698.644 824.301 699.939C824.169 700.728 824.342 701.597 824.498 702.155L824.494 702.141C825.201 699.976 826.087 697.682 827.194 695.278L827.201 695.262C826.82 694.136 825.862 691.364 825.251 690.142C824.474 688.589 825.941 687.25 825.941 687.25C825.941 687.25 827.624 687.38 828.055 688.933C828.487 690.487 828.271 692.885 828.271 692.885V692.883C828.987 691.254 829.586 689.804 830.088 688.509C830.094 688.406 830.236 685.632 829.177 684.531C828.098 683.409 828.573 682.201 828.573 682.201C828.573 682.201 829.48 680.949 830.256 681.898C831.022 682.835 831.047 685.803 831.047 685.885C833.559 678.523 832.027 677.928 832.027 677.928C832.027 677.928 831.854 675.77 833.235 676.374C834.616 676.979 834.875 678.532 834.875 678.532C834.875 678.532 834.832 681.553 832.717 685.221C832.132 686.238 831.26 688.252 830.307 690.633C830.994 688.918 832.763 688.329 833.924 688.329C835.09 688.329 835.478 689.581 835.478 689.581C835.478 689.581 835.736 690.271 833.233 690.875C830.736 691.478 829.225 693.405 829.218 693.414C828.664 694.855 828.109 696.339 827.587 697.751C827.591 697.748 829.697 696.27 831.162 695.881C832.63 695.493 833.061 696.745 833.061 696.745C833.061 696.745 832.975 698.945 830.644 699.161C828.318 699.377 826.17 701.644 826.164 701.652C825.616 703.171 825.188 704.38 824.959 705.028C825.828 704.336 826.723 703.742 827.492 703.541C828.735 703.217 830.409 703.426 830.574 704.225C830.738 705.024 828.943 706.095 827.731 705.546C826.945 705.191 825.387 706.203 824.416 706.974C824.126 708.249 823.732 710.305 823.503 712.834C824.601 711.471 824.796 712.499 826.055 711.637C827.313 710.775 828.233 709.575 828.532 710.363C828.83 711.15 828.859 712.406 827.706 713.21C826.932 713.751 824.696 714.754 823.345 715.368C823.299 716.72 823.311 718.161 823.413 719.655C823.902 718.671 824.454 717.767 825.058 717.265C826.045 716.443 827.65 715.921 828.138 716.574C828.627 717.227 827.456 718.96 826.127 718.978C825.209 718.992 824.158 720.778 823.632 721.887C823.934 724.239 824.481 726.673 825.382 729.068C825.648 727.615 826.159 726.168 826.782 725.263C827.509 724.204 829.338 723.505 829.985 724.001C830.632 724.498 829.975 726.482 828.7 726.861C827.473 727.225 826.012 730.364 826.003 730.583C826.632 731.995 827.395 733.384 828.315 734.723C828.315 734.723 828.391 734.857 828.54 735.107C828.424 733.548 828.51 731.867 829.134 731.282C829.825 730.635 831.69 729.525 832.337 730.022C832.985 730.518 832.328 732.503 831.053 732.881C829.778 733.259 829.439 736.662 829.551 736.643L829.368 736.447C830.074 737.558 831.137 739.156 832.552 741.091C832.546 739.419 833.234 737.156 833.86 736.569C834.551 735.921 835.208 735.416 835.855 735.912C836.503 736.408 837.247 738.34 835.563 739.203C834.136 739.935 833.676 741.883 833.57 742.458C834.557 743.761 835.683 745.184 836.946 746.688C836.817 744.992 837.401 742.273 838.241 741.811C839.104 741.337 839.622 741.035 840.269 741.531C840.917 742.027 841.305 743.775 839.622 744.638C837.939 745.501 838.237 748.198 838.237 748.198C839.397 749.531 840.659 750.916 842.021 752.329C841.879 750.648 842.55 748.233 843.399 747.766C844.262 747.291 845.341 747.895 845.341 747.895C845.341 747.895 846.376 749.363 844.694 750.226C843.637 750.768 843.235 751.878 843.083 752.63C843.406 752.522 843.731 752.409 844.061 752.286C845.367 751.795 846.676 751.315 847.978 750.846L846.957 754.131C846.957 754.131 845.809 755.929 838.33 753.706L838.331 753.706ZM823.041 725.071L823.037 725.065L822.991 725.015L823.042 725.071H823.041ZM822.264 718.642L822.286 718.648L822.289 718.649L822.264 718.642ZM824.63 702.58L824.619 702.549L824.618 702.545L824.63 702.58H824.63ZM830.293 690.672C829.949 691.533 829.594 692.441 829.238 693.367C829.323 693.146 829.701 692.173 830.293 690.672Z" fill="#102A59"/>
</g>
<defs>
<clipPath id="clip0_331_45988">
<rect width="1446" height="836" fill="white"/>
</clipPath>
</defs>
</svg>
