<svg width="1440" height="830" viewBox="0 0 1440 830" fill="none" xmlns="http://www.w3.org/2000/svg">
<path fill-rule="evenodd" clip-rule="evenodd" d="M309.277 601.191C314.733 604.454 315.651 607.239 319.079 612.429C315.098 613.758 318.95 610.3 316.015 612.162C319.429 616.561 320.747 612.399 320.958 621.423L317.537 620.023C319.045 623.51 319.835 621.126 321.94 627.813C323.57 632.99 326.007 631.824 323.862 637.188L320.386 632.777C320.299 632.647 320.143 632.413 320.004 632.247C320.401 635.779 324.093 642.603 318.923 645.129C315.17 641.643 319.297 633.503 318.303 628.278L317.945 627.1C316.302 630.436 317.414 637.045 315.679 640.392C313.237 635.098 316.81 618.854 315.677 616.869L313.818 621.745C311.932 621.229 312.897 621.014 311.993 621.228C312.684 625.281 313.582 627 313.521 632.164C310.878 630.407 307.609 626.157 308.35 622.217C309.189 617.747 312.386 618.751 312.091 609.94L310.393 614.517C309.861 616.58 310.311 616.616 308.428 618.03C308.932 615.606 310.222 612.051 308.88 609.608L307.864 614.987L305.359 611.968C305.509 614.469 306.789 616.255 307.008 618.298C307.31 621.125 306.137 622.347 307.092 626.08C308.402 631.186 312.053 631.321 313.078 637.51C308.89 636.983 308.946 636.936 306.669 634.856C307.639 641.637 314.383 633.535 315.155 647.089C312.645 645.829 313.83 645.8 311.431 645.426C314.414 652.021 324.083 652.651 324.357 661.212C324.455 664.274 324.025 668.046 323.939 671.241C314.81 665.153 322.713 665.689 320.633 657.045C319.063 657.854 321.446 656.733 319.793 657.88C318.279 658.932 320.389 658.485 317.878 658.883C315.764 656.715 317.165 657.082 315.679 654.912C314.039 657.924 317.35 659.66 318.777 661.267L317.161 666.266L314.248 662.838C313.883 668.857 319.496 668.296 321.892 673.145C323.07 675.533 322.401 676.933 324.329 679.861C327.462 684.615 325.085 681.289 325.679 686.675C336.96 687.316 323.839 684.076 340.362 672.364C344.136 669.69 344.112 671.926 345.742 667.198C343.263 669.058 345.188 668.764 342.12 669.621L341.123 665.903C339.88 671.671 339.877 672.097 335.194 673.978C339.539 659.539 346.567 664.675 347.136 660.85L341.361 661.765C343.701 657.639 343.695 659.233 346.309 657.142C349.417 654.655 347.779 652.996 347.835 649.699C345.29 653.28 349.11 653.814 345.141 656.022L343.867 650.654C341.29 656.703 345.705 655.415 340.807 659.433C337.957 653.081 340.043 652.497 342.273 647.002C343.167 644.801 343.089 644.905 344.198 643.137L342.422 642.963C341.563 642.645 341.42 641.059 340.963 643.298C340.15 647.282 342.13 646.029 339.097 649.901L336.825 647.678C336.259 646.808 335.868 645.804 335.416 644.648C337.83 640.731 337.636 641.304 341.687 638.922C343.95 637.593 347.469 636.802 347.863 633.668C346.34 635.382 346.427 635.527 343.687 635.747C343.789 633.172 344.916 630.521 343.571 628.426C343.152 631.118 342.639 635.678 340.608 637.391C337.185 631.104 340.527 630.165 340.927 624.103L338.665 627.708C337.981 629.504 338.076 630.261 337.587 631.885C337.416 631.814 337.181 631.462 337.114 631.597C337.049 631.73 336.743 631.366 336.653 631.293C336.564 631.225 336.323 631.055 336.214 630.966L333.617 628.68C335.86 635.357 342.286 634.709 335.54 641.616C333.9 640.563 332.231 639.333 330.831 638.013C330.885 633.091 331.631 636.149 333.004 632.561H329.751C329.463 634.288 329.781 637.734 327.879 638.183L326.121 638.603C329.675 641.644 331.038 639.011 332.724 642.7C335.961 649.783 341.501 660.192 336.067 667.099C335.978 666.956 333.001 658.904 332.614 657.748C331.355 653.983 329.299 652.817 333.63 649.001L331.265 646.99C331.171 646.911 330.969 646.743 330.825 646.61C330.806 648.215 331.064 648.157 330.549 649.702C329.542 652.714 330.495 650.567 329.276 651.461C326.519 645.949 330.329 647.343 329.791 642.74L327.58 645.799C326.658 644.742 326.794 644.85 325.036 644.179L327.376 651.072C328.607 655.66 329.991 654.647 331.248 658.34L326.775 655.149C328.615 661.893 336.986 660.907 332.878 673.205C332.095 675.547 330.958 677.341 328.925 678.69C329.608 671.078 332.518 674.415 332.203 665.853C331.088 668.035 331.914 669.822 329.679 670.8L331.383 663.504C331.425 663.499 331.259 663.508 331.236 663.606C331.212 663.707 330.985 663.673 330.951 663.676C328.935 663.916 332.014 664.563 329.614 663.682L327.347 662.073C327.215 661.967 327.015 661.741 326.813 661.627C327.656 664.366 328.247 664.47 328.997 666.555L327.079 666.257C328.874 671.549 328.618 671.213 327.24 677.273C323.962 673.02 326.948 662.872 326.025 657.673C324.666 650.028 319.374 649.896 323.152 642.294C325.478 637.611 331.284 625.527 335.839 623.247C340.172 621.079 341.053 624.204 342.371 618.803C342.195 618.915 341.955 618.913 341.871 619.18C341.378 620.733 338.243 621.14 336.819 621.391C338.143 617.401 339.838 612.801 340.053 607.688C337.318 610.628 338.628 618.233 334.84 620.256C331.481 614.504 337.479 611.339 337.11 605.091C335.566 607.211 335.503 608.001 334.593 610.707C332.535 607.13 333.155 604.527 333.166 599.889C329.56 604.461 333.057 609.594 332.493 615.24C330.907 613.411 330.765 612.271 330.119 609.722C327.524 614.637 335.099 619.049 332.506 623.732C329.789 623.57 328.582 617.077 327.765 615.255C325.663 618.52 329.652 622.59 330.793 625.763C329.571 628.339 328.089 631.141 325.953 632.596C324.202 628.596 324.546 627.632 328.438 625.652C328.323 625.538 328.111 625.22 328.067 625.334L325.166 620.923C325.127 624.347 325.861 624.748 323.989 627.185C319.419 620.483 328.312 611.214 326.949 600.562L325.786 605.71C323.065 605.212 325.779 604.046 323.359 604.611C324.148 606.957 325.233 607.292 324.6 610.381L321.722 615.093C320.425 611.905 319.347 610.28 319.855 607.376C320.519 603.577 323.004 602.315 321.722 599.749L319.834 602.752C318.041 599.544 319.986 600.713 317.16 599.096C317.646 601.873 319.164 605.119 317.945 607.311C315.2 604.997 312.492 601.756 311.477 598.048L310.971 599.124C309.846 601.092 309.49 599.887 309.277 601.193V601.191Z" fill="#1E4CA1"/>
<path fill-rule="evenodd" clip-rule="evenodd" d="M375.331 687.114C376.149 686.283 377.229 686.224 378.327 686.072C380.935 685.707 383.79 683.855 384.562 681.944C379.328 681.74 379.026 686.007 375.398 685.409C375.705 684.757 374.726 685.462 376.104 684.747C376.91 684.329 378.681 684.081 379.411 682.779C378.13 682.509 376.395 683.309 375.028 682.96C375.824 680.958 380.284 684.141 382.432 679.084C384.28 674.728 378.084 669.502 379.373 659.847C379.827 656.458 380.607 654.799 381.51 651.817C382.618 648.162 380.979 645.837 380.013 642.074C379.095 638.505 379.438 635.44 378.216 631.501C377.039 627.711 375.999 625.256 375.97 621.232C375.957 619.562 376.046 613.902 377.562 612.822C378.346 614.867 378.128 616.837 379.283 619.493C383.599 629.423 380.78 629.695 383.462 637.779C383.482 637.84 383.69 638.388 383.706 638.419L384.239 639.143C384.348 636.198 384.617 634.834 384.225 631.381C383.544 625.382 381.612 619.54 386.569 613.414C387.304 612.504 387.567 611.052 388.793 610.682C388.596 611.963 388.076 612.855 387.936 614.498L387.651 627.774C388.168 637.677 389.523 634.174 386.874 645.097C383.377 659.513 392.718 667.544 388.341 676.59C387.836 677.634 386.93 679.135 386.741 680.181C388.994 679.043 390.697 676.927 391.724 674.812C396.413 665.177 392.198 666.839 391.759 657.934C391.095 644.524 394.864 643.1 396.427 634.823C398.079 626.077 392.414 620.859 391.646 618.17C394.587 617.835 397.58 621.036 398.697 624.58C401.135 632.312 400.08 638.71 396.948 645.64C395.146 649.625 394.533 650.212 394.212 655.13C393.964 658.953 393.735 662.163 394.383 666.231C395.154 671.082 391.501 678.305 386.893 680.932C384.634 682.222 384.83 684.029 381.353 685.946C379.107 687.185 375.92 687.218 375.829 687.213L375.332 687.114L375.331 687.114ZM391.801 682.336C394.942 680.181 396.777 677.197 400.132 674.993C402.499 673.438 409.162 670.162 412.255 669.973C412.001 671.222 410.111 672.177 408.884 673.13C407.586 674.141 406.521 675.07 405.359 676.19C403.252 678.223 401.023 680.476 398.195 682.25C394.975 684.271 377.65 689.243 375.904 688.671C376.497 687.772 378.535 687.847 379.536 687.592C387.459 685.578 388.857 684.126 392.407 677.742C393.413 675.933 393.951 674.339 394.716 672.109C395.433 670.019 395.988 668.304 397.103 666.504C398.287 664.589 399.968 663.404 400.761 661.698C403.47 655.864 403.336 645.921 406.215 643.82C407.767 642.684 406.835 645.337 407.348 649.402C408.124 655.537 408.165 658.488 405.431 662.32C403.15 665.521 399.321 668.678 398.245 671.999C397.501 674.293 396.663 675.62 395.39 677.304C394.173 678.916 392.969 680.695 391.8 682.335L391.801 682.336ZM374.749 681.335C375.883 679.945 378.114 679.902 378.155 675.3C378.209 669.3 374.061 670.443 373.119 658.516C372.86 655.264 371.232 653.404 371.628 649.8C372.39 642.869 369.026 644.72 367.208 632.953C366.565 628.8 367.674 620.123 371.238 618.852C371.413 619.856 370.311 621.781 370.406 626.205C370.467 629.043 370.945 631.954 371.334 634.804C371.834 638.467 372.686 640.004 374.283 642.982C377.96 649.837 374.654 650.169 375.313 654.706C375.539 656.259 376.311 657.761 376.258 659.286C375.95 668.308 379.768 667.19 378.827 676.159C378.668 677.651 376.924 682.401 374.749 681.335ZM382.296 681.45L385.553 680.81C388.158 676.157 388.166 669.526 386.028 664.173C385.703 663.36 384.031 659.507 383.631 659.103C382.108 663.001 383.521 666.427 383.919 670.853C384.611 678.566 382.156 679.907 382.297 681.45H382.296Z" fill="#1E4CA1"/>
<path fill-rule="evenodd" clip-rule="evenodd" d="M751.702 679.006C747.701 679.769 751.15 680.458 747.994 680.472L748.392 676.267C745.63 676.997 746.234 677.157 746.703 679.699C744.116 678.504 744.623 677.299 744.01 681.307C746.418 682.593 743.42 680.207 746.014 681.454C746.427 683.59 746.978 683.685 745.214 685.255C743.328 686.943 743.638 684.667 742.718 687.359C746.379 689.942 742.229 685.892 745.399 687.981C745.148 690.203 744.763 690.221 743.419 691.173C743.218 687.408 742.57 689.39 741.523 686.795C743.118 684.564 741.743 685.276 744.211 683.828C743.064 681.656 743.23 683.282 742.656 682.697C741.86 681.876 742.885 683.708 742.347 682.063C742.324 682.01 742.324 681.826 742.307 681.769C741.807 680.106 743.34 681.371 741.212 680.065C739.802 679.199 741.196 679.216 739.61 679.765C738.556 682.049 739.57 679.181 740.362 682.538C740.924 684.912 740.259 684.594 739.019 684.855C736.643 678.575 737.352 680.335 736.502 680.66L735.242 680.968C735.137 680.972 734.883 680.935 734.791 680.933C734.69 680.931 734.379 681.039 734.3 680.87C734.221 680.692 733.964 680.787 733.793 680.795C734.751 683.355 734.068 682.987 734.704 685.116L736.674 684.745C736.722 684.593 736.901 684.596 737.032 684.56C738.126 687.525 738.709 686.247 740.687 687.948C741.629 692.742 740.393 694.951 740.652 699.141C738.612 697.767 735.965 695.598 734.847 693.322C735.684 692.782 736.472 693.155 737.745 693.388C737.404 690.185 737.211 691.968 738.184 689.31C737.67 689.024 737.706 689.059 737.146 688.589L736.559 688.037C733.648 685.222 737.793 688.406 735.606 686.999C734.199 689.759 736.459 689.09 734.27 691.198C731.747 689.306 733.358 690.096 733.126 687.715L732.921 685.107C732.011 685.313 732.37 685.303 731.866 685.528C728.522 687.024 733.81 685.039 730.934 685.996C730.995 683.355 732.518 683.728 730.115 682.697L729.454 686.016C728.272 685.244 728.644 685.164 727.121 685.379C727.35 688.434 726.522 686.401 728.465 687.942C730.475 689.539 731.976 689.883 732.107 692.698L731.923 693.476C729.498 693.779 730.002 689.891 726.531 689.66C727.411 692.335 727.226 689.621 728.036 692.728C725.564 694.045 726.67 691.044 726.071 695.101L727.178 695.141C727.187 695.14 728.062 694.774 728.154 694.743C728.224 695.123 728.453 696.602 728.517 696.77C729.165 698.532 728.286 697.318 729.701 698.229L730.151 695.212C735.215 694.92 734.388 696 736.677 698.628C738.779 701.039 740.45 700.449 739.023 705.247C737.29 705.278 733.109 703.388 733.148 700.958C733.179 699.331 733.026 700.058 734.348 699.255C734.248 699.157 734.077 699.046 734.02 698.993L733.45 698.485C732.357 697.34 734.156 697.316 731.555 696.496C730.886 699.532 731.726 699.664 731.056 701.953C729.025 701.041 728.355 698.896 726.841 697.62L725.523 699.593C724.288 697.103 726.853 698.237 723.819 697.015L724.499 700.442C722.336 701.675 723.263 698.026 721.771 701.629C726.149 703.168 726.079 701.211 727.851 701.442C727.899 701.555 727.905 701.744 727.9 701.804C727.741 703.411 726.447 704.181 725.369 705.268C723.488 704.568 724.38 704.334 722.595 704.136C722.231 707.139 722.296 705.311 724.577 706.975C722.748 708.847 721.684 707.504 723.142 710.445C724.411 709.817 725.563 708.744 726.21 707.925C726.718 712.082 723.785 708.56 725.916 712.441C727.724 710.211 727.357 706.687 728.635 705.438C731.064 703.058 733.318 705.16 734.436 706.97C732.622 710.7 732.561 710.544 729.542 709.76C730.137 711.9 729.983 713.041 732.501 712.238C731.796 713.952 731.319 713.435 732.492 715.204C732.597 715.127 732.719 714.983 732.767 714.926L733.57 713.996C734.251 713.128 733.162 714.204 734.326 712.918C734.213 716.973 733.074 715.885 736.051 715.847C737.036 714.478 736.41 716.542 736.3 714.817C736.208 713.31 735.574 713.793 735.342 711.668C735.07 709.183 735.661 708.89 737.236 707.886C743.939 710.555 736.484 719.418 737.601 722.651C739.82 723.389 745.428 723.394 747.554 722.621C748.137 720.157 746.368 720.084 745.939 718.028C745.789 717.322 745.995 716.167 746.272 715.478C748.816 709.106 753.503 716.493 755.499 718.646C756.901 716.083 755.526 714.991 755.311 713.791C757.238 714.072 758.271 716.144 758.302 716.073C758.345 715.978 758.484 716.287 758.585 716.347L759.723 715.277L756.498 711.89C757.676 710.693 759.338 710.074 760.901 711.763C762.569 713.566 761.085 715.302 764.368 715.001L763.357 711.859C765.857 712.715 764.547 713.551 766.417 712.904C767.551 710.44 766.487 711.247 763.646 710.325C766.002 708.765 765.419 710.713 765.515 708.315C761.816 706.444 764.149 712.753 759.12 708.751C759.623 707.164 760.069 707.783 761.449 706.796C763.024 705.67 762.21 706.708 762.959 704.794C765.419 706.426 761.208 706.812 765.446 706.113C765.109 704.604 764.499 704.87 765.126 703.713L766.469 704.399C768.072 704.984 766.18 705.244 767.643 704.541C768.33 702.492 767.682 703.309 766.391 702.163L763.941 699.616L763.313 701.012C762.346 703.036 761.195 704.793 758.853 704.413C759.899 699.323 761.509 699.829 763.077 698.444L762.319 697.325C761.838 696.312 762.171 695.868 763.941 694.945C766.009 695.988 764.858 695.588 766.346 697.255L768.027 696.169L766.373 693.917C769.005 691.902 768.138 694.325 769.021 692.263C767.718 689.519 767.625 692.149 765.331 690.167C764.189 689.176 765.266 689.587 763.65 688.82C762.036 692.616 762.726 689.278 764.662 692.136L760.771 694.71L760.38 690.84C757.583 693.845 761.037 695.194 758.551 699.816C755.788 704.942 756.326 703.696 756.226 708.152C754.962 708.573 754.165 709.221 753.324 709.516C752.382 709.845 753.14 709.771 752.02 709.772C750.522 709.774 751.639 709.991 750.641 709.345C752.593 706.57 751.525 709.642 753.153 707.457C754.444 705.728 753.21 706.536 753.178 705.59C753.118 703.623 754.51 703.321 753.284 701.213C752.291 703.301 753.178 703.108 751.236 702.582C751.062 703.425 751.123 704.189 751.113 704.254C750.973 705.352 751.328 704.397 750.884 705.307C748.789 704.197 749.419 703.83 750.334 701.765C753.012 695.692 754.19 701.142 755.888 701.852C756.834 697.738 757.842 699.872 758.459 696.284C756.537 696.506 757.057 696.742 756.843 696.786C753.144 697.533 753.787 698.563 753.559 696.876C753.262 694.71 754.242 696.738 754.326 692.774L754.904 693.465C755.762 694.248 754.979 694.135 756.147 694.214C758.646 694.382 757.714 693.494 757.885 693.323C756.375 690.385 757.118 694 755.74 690.948C755.766 690.934 756.546 690.415 756.712 690.279C761.024 686.721 758.065 688.602 761.343 688.906L761.409 686.648C761.698 685.149 762.56 687.883 761.672 685.054L758.871 685.251C758.804 685.356 758.691 685.53 758.626 685.642L757.583 687.199L757.023 683.335C758.477 682.484 758.738 683.047 760.088 682.048C758.375 678.773 759.956 681.74 757.381 680.268C758.309 677.989 758.717 679.22 757.662 677.014C754.378 678.598 757.438 678.773 754.746 679.987L753.661 680.268C754.646 682.484 758.427 686.983 752.75 687.888C753.634 690.847 754.62 688.784 752.925 692.322C750.815 696.728 747.519 699.801 747.62 704.968C747.47 704.854 747.318 704.675 747.208 704.581L746.031 703.58C744.892 702.779 746.372 703.184 744.533 702.878C744.503 705.771 746.345 704.942 746.661 708.307L743.631 709.119C743.469 698.403 743.163 703.781 746.324 699.571L747.545 697.713C748.45 696.48 747.445 698.639 748.652 696.29C747.273 693.005 748.341 698.252 747.409 694.474C748.438 693.312 749.125 693.423 749.68 692.157C746.884 691.038 747.637 692.372 746.044 693.89C744.656 695.211 744.753 693.218 744.799 695.52L745.382 697.037C745.413 696.943 745.558 697.313 745.6 697.469C742.567 698.86 745.934 697.983 743.171 699.266C742.064 696.8 742.599 695.049 744.091 693.665C747.903 690.126 745.22 691.44 747.322 689.075C749.719 689.615 749.169 691.458 751.173 689.964C751.309 687.589 751.392 689.836 750.592 688.303C747.978 683.303 750.994 690.847 749.725 686.796C750.758 686.227 751.012 687.221 752.372 686.486L754.198 685.638L752.666 682.282C750.525 682.889 751.76 683.274 751.641 683.438L749.003 685.442C748.143 685.846 748.502 685.88 747.738 685.811C747.202 683.125 750.132 681.838 751.699 679.008L751.702 679.006Z" fill="#1E4CA1"/>
<path fill-rule="evenodd" clip-rule="evenodd" d="M869.766 627.808C867.745 626.87 869.561 627.929 868.299 626.322C867.118 624.817 868.655 625.959 866.851 624.575C865.827 625.278 866.186 624.862 865.385 625.674C865.599 629.651 872.717 628.28 870.309 642.427C866.168 641.227 869.894 638.17 868.598 635.149L866.571 634.918C866.492 637.729 867.753 636.925 866.199 639.226C862.22 637.749 865.284 635.287 862.435 632.173C861.734 631.403 862.224 631.936 861.62 631.244L858.245 630.756C859.313 633.234 861.073 632.171 861.848 637.247C858.678 636.121 858.398 634.019 857.47 638.392L863.738 640.014C861.401 641.147 861.765 639.23 859.405 641.013C860.365 643.233 859.135 642.186 862.19 641.608L862.483 643.707C864.027 643.02 863.324 643.348 863.875 642.884C863.988 642.785 864.405 642.409 864.515 642.31C864.593 642.239 864.752 642.077 864.812 642.017C864.877 641.96 865 641.813 865.104 641.725C868.668 644.238 869.005 644.073 869.96 649.901L869.238 650.003C869.111 650.041 868.02 650 867.438 651.066C868.984 654.461 869.474 649.969 869.933 654.49C868.581 653.891 866.369 653.021 865.324 652.157C864.978 647.106 865.154 649.123 866.379 645.72C864.535 645.168 862.535 645.52 860.907 646.169C861.822 650.889 863.266 645.177 863.626 651.212C855.733 647.46 861.507 645.56 857.528 642.306C855.952 645.089 858.087 643.862 856.945 646.193C855.492 644.726 856.275 644.315 854.354 643.811C852.726 645.977 856.43 647.813 857.331 649.713C855.059 649.187 855.908 648.184 854.017 648.735C854.554 651.007 854.7 650.911 858.162 651.458C861.988 652.061 861.076 652.137 863.393 653.938C867.132 656.847 870.065 655.769 871.199 661.836C865.46 660.22 869.933 657.751 866.269 656.9C865.219 659.173 866.606 657.693 866.221 660.789C865 660.566 863.901 660.425 863.121 661.555C864.615 662.55 867.175 662.416 868.755 663.185C871.596 664.567 869.238 665.838 870.157 668.245C872.157 668.749 874.928 668.837 876.945 668.235C877.002 668.088 877.051 667.692 877.054 667.773L877.12 665.916C876.968 664.126 876.639 665.046 876.814 662.572C884.697 656.13 887.377 664.296 888.991 665.371C889.088 665.216 889.167 664.772 889.202 664.864L890.156 662.27C891.33 663.097 891.662 663.663 892.726 663.408C893.177 660.523 892.436 662.521 890.738 659.848C887.875 660.34 888.55 661.006 885.472 659.85C885.196 653.555 890.952 657.902 893.072 658.029C895.466 654.12 890.516 657.724 893.172 655.142C894.188 654.155 896.439 655.124 897.989 655.413C897.935 653.007 897.45 654.704 898.509 652.815C897.441 652.23 896.473 652.67 895.484 651.648L897.481 649.35L895.366 648.192C893.119 650.847 893.974 652.509 889.767 653.763C889.518 650.237 890.817 652.771 891.242 649.376C887.652 649.363 889.338 648.374 887.749 651.559C886.812 653.435 886.912 653.59 884.913 654.597C883.779 652.575 884.549 653.091 885.397 650.933L882.623 651.181L882.251 656.837C879.362 656.249 881.073 654.159 879.231 652.458C878.032 654.136 878.561 653.3 879.029 655.726C876.884 656.669 878.08 654.565 877.391 656.751C877.147 657.536 879.104 657.868 875.821 657.833C874.345 653.357 880.392 649.01 883.166 647.432C886.164 646.837 885.469 650.105 894.783 645.24C893.589 642.774 892.717 643.888 891.042 644.928C890.108 644.536 890.638 643.833 888.992 643.532C888.558 644.63 889.377 647.511 886.352 645.24C889.455 641.505 888.996 641.815 895.4 641.97C895.777 640.999 896.21 639.577 896.442 638.392C891.828 638.122 897.089 639.409 892.635 639.335C892.385 637.136 893.107 637.309 894.166 635.767L891.855 634.444C891.408 636.176 891.159 641.333 888.746 640.141C886.633 639.097 890.275 635.378 891.147 634.578C890.283 632.24 891.36 635.297 890.183 633.272C890.148 633.213 890.06 633.062 890.03 633.001L887.18 632.432C888.043 635.784 889.667 633.315 887.74 637.02C886.463 636.761 887.264 636.77 886.296 636.292C884.824 635.569 886.966 635.799 884.522 635.621C884.426 637.669 885.568 638.678 885.485 640.648C885.342 644.051 884.395 642.607 882.347 642.669C882.176 643.779 883.297 645.62 878.608 647.421C878.876 645.259 879.418 644.37 880.57 642.645C881.602 641.094 882.955 639.177 882.001 637.461C878.596 637.895 880.338 637.443 879.296 640.654L878.07 640.593C877.226 640.582 878.692 639.947 876.358 640.8C876.831 642.936 877.61 642.825 876.565 645.581C875.342 648.804 876.17 648.995 873.841 650.59C873.281 649.476 872.706 646.097 872.795 644.63C873.053 640.251 879.409 635.418 883.746 634.615L884.658 632.716C886.246 631.309 886.063 633.357 886.377 630.896C884.658 629.51 885.568 630.348 883.06 631.239C883.493 626.853 885.2 629.262 886.487 626L884.32 625.075C880.39 628.344 882.043 631.325 879.667 633.02C878.012 630.685 880.909 627.451 879.667 624.901L877.929 624.676C877.153 626.645 878.559 626.263 877.259 627.628C877.005 627.891 876.821 627.412 876.37 628.343C877.978 632.218 877.167 635.732 873.297 638.626C873.276 630.965 878.37 625.402 873.639 624.132C872.816 627.65 874.339 629.09 871.725 629.379C871.915 626.83 872.133 625.317 871.468 622.726C870.912 620.547 872.501 621.148 870.347 620.061C869.004 620.945 869.822 619.501 869.367 621.451C868.797 623.891 870.561 625.249 869.764 627.808H869.766Z" fill="#1E4CA1"/>
<path fill-rule="evenodd" clip-rule="evenodd" d="M1113.95 543.387C1108.48 544.431 1113.21 545.373 1108.88 545.389L1109.43 539.639C1105.66 540.639 1106.48 540.856 1107.12 544.335C1103.58 542.701 1104.28 541.053 1103.44 546.533C1106.73 548.292 1102.64 545.027 1106.19 546.734C1106.75 549.657 1107.5 549.784 1105.1 551.933C1102.5 554.24 1102.93 551.13 1101.67 554.811C1106.68 558.344 1101 552.806 1105.34 555.661C1105 558.7 1104.47 558.725 1102.64 560.027C1102.36 554.877 1101.47 557.586 1100.04 554.039C1102.22 550.988 1100.34 551.963 1103.72 549.981C1102.15 547.009 1102.38 549.235 1101.59 548.433C1100.5 547.31 1101.9 549.816 1101.16 547.569C1101.13 547.495 1101.13 547.244 1101.12 547.164C1100.43 544.89 1102.52 546.62 1099.61 544.834C1097.68 543.649 1099.59 543.673 1097.42 544.424C1095.98 547.548 1097.38 543.625 1098.46 548.217C1099.22 551.461 1098.3 551.029 1096.61 551.384C1093.37 542.797 1094.33 545.201 1093.17 545.647L1091.44 546.071C1091.3 546.075 1090.96 546.024 1090.83 546.022C1090.7 546.018 1090.27 546.166 1090.16 545.935C1090.06 545.693 1089.7 545.821 1089.46 545.832C1090.77 549.334 1089.85 548.832 1090.71 551.742L1093.41 551.235C1093.47 551.026 1093.72 551.031 1093.9 550.983C1095.39 555.039 1096.19 553.292 1098.9 555.617C1100.18 562.174 1098.49 565.193 1098.85 570.926C1096.07 569.047 1092.43 566.08 1090.91 562.967C1092.06 562.228 1093.13 562.738 1094.88 563.056C1094.41 558.676 1094.14 561.115 1095.47 557.478C1094.77 557.086 1094.82 557.135 1094.06 556.492L1093.24 555.735C1089.27 551.888 1094.95 556.242 1091.94 554.319C1090.02 558.093 1093.11 557.177 1090.12 560.061C1086.67 557.473 1088.87 558.553 1088.56 555.296L1088.28 551.729C1087.02 552.011 1087.52 551.998 1086.83 552.305C1082.26 554.352 1089.49 551.637 1085.56 552.946C1085.64 549.333 1087.72 549.845 1084.44 548.432L1083.53 552.971C1081.92 551.919 1082.42 551.808 1080.35 552.102C1080.65 556.281 1079.52 553.502 1082.17 555.606C1084.93 557.79 1086.98 558.261 1087.16 562.113L1086.91 563.177C1083.6 563.59 1084.28 558.27 1079.53 557.958C1080.74 561.617 1080.49 557.905 1081.59 562.155C1078.21 563.955 1079.72 559.851 1078.9 565.401L1080.41 565.456C1080.43 565.454 1081.63 564.952 1081.75 564.91C1081.85 565.43 1082.17 567.451 1082.25 567.682C1083.13 570.09 1081.94 568.432 1083.87 569.676L1084.48 565.552C1091.42 565.152 1090.29 566.631 1093.41 570.221C1096.28 573.52 1098.57 572.715 1096.62 579.275C1094.25 579.318 1088.54 576.734 1088.59 573.411C1088.62 571.185 1088.42 572.179 1090.23 571.082C1090.1 570.947 1089.86 570.794 1089.78 570.722L1089.01 570.027C1087.5 568.462 1089.96 568.429 1086.4 567.309C1085.49 571.458 1086.64 571.641 1085.72 574.771C1082.95 573.521 1082.03 570.59 1079.95 568.845L1078.16 571.545C1076.47 568.139 1079.97 569.689 1075.83 568.019L1076.76 572.705C1073.79 574.391 1075.08 569.4 1073.03 574.328C1079.01 576.432 1078.92 573.756 1081.34 574.073C1081.41 574.228 1081.42 574.485 1081.41 574.566C1081.19 576.765 1079.42 577.818 1077.95 579.305C1075.37 578.347 1076.6 578.028 1074.15 577.757C1073.66 581.864 1073.75 579.364 1076.87 581.64C1074.36 584.199 1072.91 582.365 1074.9 586.385C1076.64 585.525 1078.2 584.058 1079.1 582.938C1079.79 588.624 1075.78 583.807 1078.69 589.113C1081.17 586.066 1080.66 581.244 1082.41 579.538C1085.73 576.282 1088.82 579.157 1090.35 581.632C1087.87 586.735 1087.78 586.52 1083.66 585.45C1084.47 588.375 1084.26 589.937 1087.7 588.837C1086.74 591.182 1086.09 590.476 1087.69 592.896C1087.83 592.79 1088 592.592 1088.07 592.514L1089.16 591.242C1090.1 590.054 1088.6 591.526 1090.2 589.769C1090.04 595.314 1088.49 593.828 1092.55 593.774C1093.9 591.902 1093.04 594.723 1092.9 592.366C1092.78 590.303 1091.9 590.965 1091.59 588.056C1091.22 584.659 1092.02 584.259 1094.18 582.885C1103.36 586.536 1093.15 598.658 1094.68 603.079C1097.71 604.087 1105.38 604.096 1108.29 603.037C1109.09 599.669 1106.67 599.567 1106.08 596.757C1105.88 595.791 1106.16 594.212 1106.53 593.269C1110.01 584.554 1116.43 594.658 1119.16 597.603C1121.07 594.096 1119.2 592.602 1118.91 590.961C1121.54 591.345 1122.95 594.18 1122.99 594.083C1123.04 593.953 1123.24 594.374 1123.37 594.456L1124.93 592.994L1120.53 588.362C1122.14 586.722 1124.41 585.877 1126.55 588.189C1128.83 590.652 1126.79 593.027 1131.3 592.615L1129.9 588.32C1133.32 589.49 1131.54 590.632 1134.08 589.748C1135.64 586.378 1134.19 587.479 1130.29 586.221C1133.52 584.088 1132.72 586.751 1132.86 583.472C1127.8 580.91 1130.99 589.541 1124.11 584.067C1124.8 581.897 1125.4 582.742 1127.3 581.394C1129.46 579.853 1128.33 581.273 1129.36 578.654C1132.72 580.887 1126.96 581.415 1132.77 580.459C1132.31 578.395 1131.47 578.758 1132.32 577.176L1134.16 578.115C1136.36 578.915 1133.77 579.271 1135.76 578.309C1136.7 575.507 1135.82 576.622 1134.06 575.057L1130.69 571.574L1129.85 573.482C1128.52 576.25 1126.95 578.653 1123.74 578.134C1125.18 571.173 1127.37 571.865 1129.52 569.97L1128.49 568.44C1127.83 567.055 1128.28 566.448 1130.69 565.186C1133.53 566.612 1131.96 566.066 1134 568.347L1136.3 566.859L1134.02 563.779C1137.62 561.023 1136.43 564.337 1137.65 561.519C1135.86 557.764 1135.75 561.362 1132.61 558.649C1131.04 557.295 1132.51 557.857 1130.3 556.807C1128.1 562 1129.04 557.436 1131.68 561.344L1126.37 564.864L1125.83 559.57C1122.01 563.68 1126.73 565.525 1123.33 571.848C1119.56 578.858 1120.29 577.153 1120.15 583.25C1118.43 583.825 1117.33 584.713 1116.18 585.115C1114.89 585.565 1115.93 585.465 1114.39 585.465C1112.35 585.467 1113.88 585.764 1112.51 584.879C1115.18 581.085 1113.72 585.287 1115.94 582.299C1117.71 579.933 1116.02 581.038 1115.98 579.744C1115.9 577.056 1117.8 576.643 1116.13 573.758C1114.77 576.616 1115.98 576.351 1113.32 575.632C1113.08 576.783 1113.17 577.83 1113.16 577.917C1112.97 579.419 1113.46 578.114 1112.84 579.358C1109.97 577.841 1110.84 577.34 1112.09 574.514C1115.76 566.209 1117.37 573.661 1119.68 574.632C1120.99 569.005 1122.36 571.923 1123.2 567.018C1120.58 567.319 1121.29 567.643 1121 567.703C1115.94 568.726 1116.81 570.134 1116.51 567.827C1116.1 564.865 1117.43 567.637 1117.56 562.216L1118.35 563.162C1119.52 564.232 1118.45 564.078 1120.05 564.186C1123.46 564.417 1122.19 563.201 1122.42 562.968C1120.35 558.949 1121.38 563.894 1119.48 559.72C1119.52 559.699 1120.59 558.991 1120.81 558.804C1126.71 553.939 1122.67 556.513 1127.15 556.928L1127.24 553.839C1127.63 551.789 1128.81 555.528 1127.61 551.661L1123.76 551.928C1123.67 552.072 1123.52 552.311 1123.43 552.462L1122.01 554.592L1121.24 549.307C1123.23 548.144 1123.58 548.914 1125.43 547.548C1123.09 543.07 1125.26 547.126 1121.73 545.113C1123 541.996 1123.56 543.679 1122.11 540.664C1117.62 542.829 1121.81 543.068 1118.12 544.729L1116.64 545.112C1117.99 548.144 1123.17 554.298 1115.4 555.533C1116.6 559.581 1117.96 556.759 1115.64 561.599C1112.75 567.625 1108.24 571.829 1108.38 578.894C1108.18 578.739 1107.97 578.495 1107.81 578.366L1106.21 576.997C1104.65 575.9 1106.67 576.455 1104.16 576.036C1104.12 579.994 1106.64 578.859 1107.07 583.462L1102.93 584.573C1102.7 569.917 1102.28 577.27 1106.61 571.513L1108.28 568.972C1109.52 567.286 1108.14 570.238 1109.79 567.025C1107.91 562.534 1109.36 569.708 1108.1 564.543C1109.5 562.954 1110.43 563.105 1111.2 561.373C1107.37 559.843 1108.41 561.668 1106.23 563.743C1104.33 565.55 1104.46 562.824 1104.53 565.972L1105.33 568.049C1105.36 567.919 1105.56 568.426 1105.62 568.638C1101.47 570.54 1106.07 569.342 1102.29 571.095C1100.78 567.725 1101.52 565.329 1103.56 563.435C1108.77 558.595 1105.11 560.391 1107.98 557.156C1111.25 557.897 1110.5 560.417 1113.25 558.373C1113.43 555.127 1113.54 558.198 1112.44 556.102C1108.88 549.265 1113 559.583 1111.26 554.041C1112.67 553.262 1113.02 554.622 1114.88 553.616L1117.38 552.457L1115.28 547.867C1112.36 548.698 1114.04 549.223 1113.89 549.446L1110.27 552.189C1109.1 552.742 1109.59 552.786 1108.54 552.69C1107.81 549.021 1111.82 547.258 1113.96 543.389L1113.95 543.387Z" fill="#1E4CA1"/>
<path fill-rule="evenodd" clip-rule="evenodd" d="M803.44 643.747C801.942 640.14 793.818 640.401 791.271 637.225C788.574 633.867 790.457 633.77 790.522 633.682C791.441 635.059 791.135 635.366 792.698 636.989C793.012 636.344 792.938 636.576 792.265 634.184C795.364 635.429 793.031 638.427 800.73 640.263C799.256 637.798 795.623 637.845 794.572 634.831C796.711 635.048 796.454 635.672 798.192 636.918C794.519 631.185 790.198 629.735 789.358 625.997C791.095 626.856 789.665 626.122 791.092 627.296C791.692 627.792 791.796 627.962 792.492 628.423C792.453 628.317 791.771 626.608 791.771 626.607C791.713 624.644 791.017 626.382 792.191 625.08L795.873 632.687C796.471 631.821 796.165 632.675 796.441 631.257C797.679 624.832 789.762 622.995 789.447 619.085C791.232 619.974 790.825 620.983 793.04 622.16C792.72 621.266 792.405 620.303 792.246 619.273C792.007 617.668 792.164 616.855 792.857 616.159L795.005 622.138C795.093 622.134 794.987 621.869 795.763 622.208C801.007 624.494 798.069 636.771 802.153 638.634C801.638 636.322 800.731 635.348 801.129 632.529C801.873 633.36 801.217 632.39 801.772 633.626C802.884 636.105 802.884 639.234 804.543 641.276C806.733 637.151 800.043 628.804 798.791 624.076C796.901 616.955 797.364 618.875 798.62 617.614C800.297 627.693 801.978 626.55 803.638 631.647C803.261 629.956 802.596 628.38 801.917 626.608C801.563 625.684 801.049 624.431 800.907 623.632L801.16 621.1C804.075 625.38 804.5 633.07 806.168 637.465C806.234 634.962 805.463 633.191 805.135 630.578C804.934 628.972 804.255 625.404 805.108 623.806C806.107 625.243 806.063 627.47 806.225 629.182C806.439 631.44 806.461 631.939 807.174 633.786C806.863 631.555 806.536 628.417 806.168 626.128L805.384 619.912C805.388 619.782 805.437 619.567 805.45 619.462L805.672 618.571C805.769 618.72 805.862 618.92 805.919 619.049L807.333 625.821C807.749 628.132 807.915 631.078 808.606 632.868C809.595 629.01 807.389 624.88 806.794 620.942L806.938 618.098C806.969 618 807.131 617.926 807.158 617.71C807.183 617.493 807.303 617.444 807.407 617.338C808.138 619.374 808.707 624.7 809.408 627.633C810.314 631.432 810.35 634.443 808.536 637.574C804.311 644.862 809.018 644.435 813.764 647.491C815.138 648.376 815.957 649.125 817.387 650.014C816.267 645.354 810.691 645.48 809.4 638.311C811.434 639.184 810.192 638.17 811.815 640.172L811.079 633.505C812.38 634.51 811.092 633.129 812.012 634.547L813.042 637.106C812.892 634.575 811.075 626.543 811.307 625.847C814.034 627.895 813.181 633.677 814.686 636.67L814.77 630.352C816.844 633.466 814.318 639.994 816.389 643.931C818.048 640.113 814.529 627.638 816.389 625.364C817.436 626.834 818.311 644.685 818.489 644.057C818.513 643.982 818.583 644.369 818.661 644.512C818.881 640.412 817.098 636.853 818.832 635.334C821.186 642.077 817.828 648.403 820.337 652.676C823.808 646.861 818.214 632.074 820.337 627.236L820.797 628.109C822.145 631.566 820.227 625.533 821.116 629.02L821.725 634.624C822.224 633.023 822.101 630.813 823.155 629.59C824.225 632.05 822.25 637.041 822.461 642.787L823.857 638.909C824.102 636.932 823.866 636.278 824.588 634.442C825.16 634.837 825.253 636.486 825.984 637.006L826.939 632.259C828.677 634.427 826.917 636.636 825.703 638.364C823.174 641.965 822.866 650.587 822.6 652.106C821.597 657.787 820.95 656.095 823.992 658.576L824.849 654.146C827.288 656.966 823.8 659.663 824.023 661.967C825.424 660.781 825.502 660.502 825.975 658.394C826.803 654.723 825.175 647.891 825.979 646.16C827 647.114 828.085 655.323 828.124 655.19C828.142 655.115 828.22 655.469 828.304 655.589C830.493 652.547 828.348 652.345 828.414 649.054C829.447 649.832 829.634 650.179 830.169 651.435C830.439 644.784 829.166 643.963 828.344 638.737C830.278 639.34 829.657 639.729 830.852 641.925C832.061 638.228 832.187 638.25 831.881 634.147C833.929 632.922 831.811 633.407 833.846 634.787L834.442 630.256C835.659 631.428 835.396 633.797 834.595 635.38C832.314 639.874 831.447 645.393 831.995 650.724C836.083 649.253 834.63 642.039 836.136 638.978C837.681 641.501 836.543 639.261 836.775 640.923C837.334 644.916 835.094 648.2 833.535 651.527C839.935 647.678 836.241 643.101 839.134 640.06C841.449 650.33 833.54 651.603 830.655 656.298C829.679 657.889 829.206 659.329 828.304 660.731C824.164 667.191 822.04 666.816 822.614 673.051L818.083 673.081L816.839 670.858C812.702 662.245 806.058 668.454 800.876 665.843C799.484 665.142 800.421 665.672 799.51 664.861L804.641 665.221C802.071 663.82 797.383 665.141 794.608 662.915C796.077 661.833 806.536 664.488 809.766 664.572C806.374 662.7 801.922 662.888 797.86 661.736C794.866 660.886 794.612 659.448 793.404 658.879C788.34 656.499 788.869 661.441 783.094 651.081C781.763 648.692 779.785 647.922 778.284 645.164C775.286 639.652 777.329 640.512 777.465 640.342C781.218 646.846 778.363 643.25 780.407 643.64C781.606 643.868 780.27 642.265 781.843 645.503L783.296 647.708C783.248 644.671 782.185 642.665 781.116 640.916C783.449 638.827 781.38 641.627 783.073 640.916C781.121 638.072 779.352 639.203 778.424 635.04L783.477 639.153C783.551 639.032 783.765 639.337 783.913 639.417C783.647 637.313 783.112 637.167 782.294 636.065C781.861 635.48 781.847 635.351 781.396 634.722C780.229 633.097 779.349 633.077 777.957 631.346C776.712 629.795 777.317 630.95 776.612 629.276C778.648 629.28 777.808 630.738 780.083 631.831C778.898 629.396 777.268 628.431 776.582 625.982C780.534 627.667 780.976 632.471 783.471 635.566C784.344 631.486 782.946 631.929 782.049 628.947C786.08 630.748 784.049 634.736 785.363 637.769C788.347 634.162 784.457 628.245 783.415 625.506C786.15 626.781 786.873 629.284 787.293 632.786C788.152 639.938 785.923 637.311 785.249 640.918C784.385 645.55 784.369 654.235 789.954 656.056C788.636 653.388 788.098 652.533 787.997 648.81C787.905 645.404 786.785 643.643 786.452 641.581C791.888 643.042 786.413 651.327 792.155 656.144C790.956 652.649 789.936 648.842 789.679 644.839C789.656 644.492 789.626 642.93 789.679 642.643L792.305 653.389C792.79 651.481 791.928 649.776 792.221 647.758C792.387 646.605 792.393 646.853 792.699 646.337L794.315 642.006C795.347 642.929 795.347 643.742 795.325 645.389C795.282 648.32 794.838 651.728 795.807 654.346C796.038 651.987 795.811 648.311 797.26 646.658C798.45 649.242 796.471 651.464 797.574 653.715C798.818 651.515 797.978 648.915 797.991 646.32C797.999 644.919 797.956 645.453 798.337 644.825C800.622 648.462 798.958 650.587 799.505 654.205C799.518 654.285 799.588 654.439 799.601 654.516C799.802 655.713 800.337 655.243 799.312 656.459C798.13 657.865 797.101 657.355 796.516 658.967C799.308 661.389 805.274 661.013 809.39 662.033C813.005 662.928 817.571 666.03 818.28 668.173C817.969 666.467 816.477 664.86 815.338 663.954C814.252 663.093 812.238 661.048 811.398 660.599C807.865 658.714 805.012 659.606 801.676 659.324C798.945 659.093 800.153 659.134 799.456 658.092L803.834 657.278C802.187 650.111 802.77 653.398 799.81 648.813C800.537 647.48 800.494 649.468 800.954 647.404C801.124 646.623 800.906 645.559 800.831 644.696L802.2 646.736C802.302 646.962 802.485 647.824 802.572 648.085C802.642 646.032 801.631 644.212 803.439 643.749L803.44 643.747ZM803.44 643.747C803.843 646.513 803.641 648.895 803.982 651.619C804.241 653.727 805.659 656.062 805.707 656.862L805.671 647.33C809.008 650.627 804.092 656.759 809.909 658.181C809.288 656.96 808.92 655.913 808.622 654.35C807.54 648.663 809.003 649.555 809.283 649.257C809.905 653.658 808.938 654.801 811.874 657.771L812.037 655.347C812.024 653.215 811.371 654.458 812.439 652.997C813.534 654.43 813.551 657.461 814.054 659.008C814.623 657.97 814.448 656.657 814.4 655.76C814.282 653.728 813.678 654.388 814.965 652.939L816.996 656.644C817.032 656.644 817.246 656.763 817.276 656.671C817.303 656.575 817.473 656.668 817.613 656.73L815.848 661.403C817.543 662.927 818.598 663.733 820.245 665.772C819.837 662.062 818.616 661.544 817.696 659.078C818.541 659.133 818.887 658.297 820.423 661.789C820.892 662.845 821.484 664.48 821.759 665.496C821.71 662.793 820.17 661.029 819.461 658.147C818.462 654.113 818.217 654 815.442 652.004C813.512 650.616 812.151 649.211 809.514 647.793C805.129 645.436 805.264 644.679 803.439 643.747L803.44 643.747Z" fill="#1E4CA1"/>
<path fill-rule="evenodd" clip-rule="evenodd" d="M582.715 630.399C581.034 629.618 582.544 630.499 581.494 629.163C580.513 627.912 581.787 628.86 580.291 627.71C579.441 628.294 579.738 627.95 579.072 628.625C579.249 631.93 585.171 630.791 583.166 642.554C579.725 641.556 582.821 639.014 581.743 636.502L580.057 636.31C579.992 638.647 581.042 637.977 579.747 639.892C576.438 638.664 578.99 636.617 576.621 634.026C576.034 633.386 576.441 633.829 575.943 633.254L573.137 632.847C574.021 634.909 575.483 634.024 576.13 638.245C573.496 637.309 573.264 635.562 572.488 639.196L577.702 640.547C575.759 641.488 576.061 639.893 574.099 641.376C574.896 643.221 573.876 642.352 576.415 641.871L576.66 643.616C577.943 643.045 577.357 643.319 577.816 642.933C577.913 642.851 578.254 642.536 578.346 642.455C578.411 642.395 578.543 642.26 578.596 642.212C578.648 642.164 578.749 642.041 578.836 641.968C581.799 644.058 582.084 643.921 582.876 648.767L582.277 648.853C582.168 648.883 581.261 648.848 580.775 649.735C582.066 652.558 582.469 648.823 582.849 652.582C581.729 652.084 579.891 651.361 579.02 650.642C578.731 646.444 578.876 648.12 579.895 645.291C578.368 644.832 576.703 645.125 575.347 645.663C576.108 649.588 577.308 644.839 577.61 649.857C571.044 646.738 575.846 645.157 572.541 642.452C571.228 644.766 573.005 643.746 572.055 645.685C570.842 644.464 571.495 644.123 569.901 643.705C568.545 645.505 571.626 647.033 572.375 648.612C570.484 648.175 571.188 647.339 569.617 647.799C570.067 649.688 570.186 649.608 573.067 650.062C576.249 650.565 575.487 650.626 577.413 652.125C580.521 654.544 582.963 653.647 583.904 658.692C579.132 657.348 582.849 655.296 579.807 654.586C578.932 656.477 580.087 655.247 579.767 657.822C578.748 657.637 577.837 657.519 577.19 658.456C578.428 659.286 580.561 659.174 581.874 659.813C584.237 660.963 582.276 662.019 583.038 664.021C584.701 664.44 587.004 664.512 588.68 664.013C588.729 663.889 588.767 663.56 588.776 663.627L588.83 662.083C588.698 660.595 588.426 661.36 588.576 659.303C595.128 653.947 597.357 660.737 598.7 661.631C598.779 661.502 598.845 661.133 598.876 661.21L599.668 659.051C600.643 659.741 600.919 660.21 601.804 659.999C602.179 657.601 601.562 659.262 600.154 657.039C597.772 657.449 598.332 658.003 595.772 657.04C595.543 651.807 600.333 655.422 602.088 655.527C604.084 652.276 599.965 655.273 602.176 653.127C603.02 652.307 604.89 653.111 606.177 653.352C606.132 651.351 605.73 652.763 606.61 651.191C605.721 650.705 604.921 651.07 604.097 650.221L605.757 648.311L603.996 647.348C602.131 649.556 602.841 650.938 599.343 651.981C599.137 649.048 600.215 651.155 600.568 648.334C597.584 648.322 598.985 647.499 597.662 650.148C596.887 651.707 596.97 651.838 595.307 652.674C594.362 650.993 595.005 651.421 595.71 649.627L593.403 649.835L593.093 654.535C590.693 654.045 592.112 652.309 590.584 650.894C589.581 652.289 590.024 651.595 590.418 653.612C588.632 654.397 589.626 652.647 589.057 654.465C588.851 655.116 590.479 655.393 587.747 655.363C586.517 651.644 591.547 648.028 593.854 646.716C596.346 646.221 595.767 648.938 603.515 644.892C602.518 642.842 601.795 643.769 600.402 644.635C599.628 644.308 600.07 643.723 598.7 643.474C598.336 644.386 599.02 646.781 596.507 644.892C599.085 641.786 598.7 642.045 604.028 642.174C604.338 641.368 604.702 640.183 604.893 639.198C601.06 638.974 605.433 640.044 601.725 639.984C601.519 638.155 602.118 638.298 602.999 637.016L601.077 635.917C600.71 637.358 600.499 641.644 598.494 640.655C596.738 639.786 599.768 636.693 600.49 636.027C599.772 634.084 600.67 636.626 599.688 634.943C599.658 634.893 599.589 634.767 599.562 634.716L597.19 634.244C597.908 637.03 599.26 634.978 597.658 638.058C596.595 637.844 597.26 637.85 596.454 637.454C595.234 636.852 597.015 637.042 594.984 636.897C594.905 638.598 595.854 639.438 595.785 641.073C595.663 643.905 594.878 642.704 593.172 642.755C593.031 643.678 593.964 645.208 590.063 646.707C590.287 644.908 590.737 644.171 591.696 642.736C592.554 641.445 593.68 639.851 592.887 638.424C590.055 638.787 591.504 638.41 590.637 641.081L589.616 641.028C588.912 641.018 590.134 640.492 588.193 641.201C588.588 642.976 589.235 642.885 588.369 645.176C587.353 647.856 588.037 648.014 586.102 649.34C585.634 648.414 585.161 645.605 585.231 644.384C585.445 640.743 590.729 636.723 594.34 636.058L595.097 634.479C596.415 633.309 596.267 635.012 596.524 632.966C595.094 631.812 595.85 632.51 593.767 633.249C594.127 629.604 595.548 631.607 596.616 628.894L594.813 628.126C591.547 630.844 592.926 633.323 590.946 634.732C589.574 632.79 591.982 630.101 590.946 627.98L589.498 627.794C588.855 629.431 590.024 629.113 588.943 630.248C588.737 630.467 588.584 630.068 588.203 630.843C589.542 634.065 588.869 636.986 585.651 639.394C585.629 633.022 589.866 628.398 585.935 627.341C585.252 630.265 586.517 631.464 584.346 631.704C584.5 629.584 584.683 628.326 584.132 626.173C583.667 624.361 584.985 624.863 583.195 623.956C582.078 624.694 582.761 623.491 582.385 625.114C581.912 627.142 583.373 628.271 582.713 630.399L582.715 630.399Z" fill="#1E4CA1"/>
<path fill-rule="evenodd" clip-rule="evenodd" d="M996.793 608.551C998.066 608.763 999.415 609.29 1000.1 609.388C1001.84 609.633 1001.47 609.139 1003.51 609.211C1003.78 609.585 1004.22 608.739 1003.83 610.556C1003.81 610.689 1003.5 611.304 1003.41 611.454L1005.58 610.78C1006.44 611.335 1005.8 610.607 1006.15 611.934C1009.8 609.443 1014.01 610.631 1017.42 611.922C1017.02 609.01 1017.29 611.349 1015.52 609.21C1017.75 609.274 1022.7 611.89 1023.85 611.218C1022.87 610.467 1021.3 609.784 1020.32 609.176L1024.78 607.097L1023.12 606.543C1022.76 606.446 1022.03 606.357 1021.63 606.252C1022.28 606.113 1023.99 605.816 1024.59 605.63C1026.1 605.169 1024.79 605.705 1025.84 605.125C1027.02 604.47 1026.08 605.154 1026.97 604.18L1020.91 604.992C1023.12 603.207 1026.08 602.53 1028.53 600.301C1027 599.793 1027.42 601.343 1026.58 599.694C1025.27 597.108 1027.69 600.233 1026.65 597.816L1022.64 599.898C1023.48 597.934 1023.37 597.171 1024.72 595.371C1025.82 593.892 1027.19 592.609 1027.02 590.809C1025.13 591.548 1023.85 594.652 1022.5 595.667L1021.09 596.139C1019.22 596.845 1020.22 597.42 1017.81 599.455C1018.4 597.414 1019.12 595.738 1020.23 593.948C1020.87 592.922 1022.37 590.764 1022.21 589.563L1021.32 589.527C1019.44 590.181 1021.08 589.487 1020.33 590.371C1018.99 591.945 1017.12 594.381 1016.32 596.39C1016.28 596.286 1016.25 596.125 1016.23 596.062C1016.22 596 1016.17 595.81 1016.16 595.734L1016.04 595.066C1015.75 592.62 1016.52 592.054 1016.83 590.454C1017.29 587.997 1016.73 588.863 1016.75 587.104C1016.76 586.159 1017.1 585.14 1017.19 584.092C1015.71 584.051 1016.28 583.323 1015.62 586.248C1015.06 588.722 1014.36 593.12 1013.37 595.127C1011.23 586.583 1013.19 593.002 1010.71 586.967C1010.17 585.622 1010.63 586.487 1010.21 585.938C1008.39 590.577 1011.08 593.919 1011.2 599.403C1010.2 597.43 1010.67 596.315 1009.33 594.087L1008.69 593.148C1008.25 592.518 1008.35 592.668 1008.06 592.304C1008.02 592.256 1007.87 592.205 1007.85 592.064C1007.81 591.923 1007.71 591.894 1007.62 591.832C1006.74 593.798 1008.31 596.495 1008.41 598.535L1006 594.841C1002.44 591.642 1004.29 591.266 1001.44 588.672C1000.42 591.057 1002.33 592.781 1003.11 595.546C1001.93 594.86 1002.9 595.521 1002.05 594.726C1001.88 594.558 1001.29 593.843 1001.28 593.835C999.797 592.302 1001.52 592.982 999.539 592.768C1000.45 595.717 1001.57 596.156 1002.62 598.534C1002.49 598.45 1002.33 598.345 1002.25 598.286L1001.19 597.572C999.213 596.115 996.975 592.569 994.937 592.251C995.473 593.765 997.137 595.65 997.97 597.177C1000.51 601.842 999.061 598.852 1001.48 601.85C998.162 600.226 995.1 597.511 993.072 596.512C993.512 598.864 994.507 599.59 996.439 600.368L993.972 601.241C995.081 601.896 996.592 602.038 997.472 602.88C998.496 603.855 997.339 604.578 999.597 604.892L993.981 604.609L994.947 605.715C995.837 606.439 997.386 606.608 998.65 606.782C1000.45 607.029 1002.08 606.822 1003.52 607.391C1000.64 607.689 998.994 607.216 996.794 608.55L996.793 608.551Z" fill="#1E4CA1"/>
<path fill-rule="evenodd" clip-rule="evenodd" d="M1178.61 513.679C1176.45 512.675 1178.39 513.809 1177.04 512.09C1175.78 510.482 1177.43 511.703 1175.5 510.224C1174.4 510.975 1174.79 510.531 1173.93 511.398C1174.17 515.649 1181.77 514.184 1179.19 529.304C1174.77 528.022 1178.75 524.753 1177.37 521.525L1175.2 521.277C1175.12 524.281 1176.47 523.421 1174.8 525.882C1170.55 524.303 1173.83 521.671 1170.78 518.342C1170.03 517.519 1170.56 518.088 1169.91 517.35L1166.3 516.828C1167.44 519.477 1169.32 518.339 1170.16 523.766C1166.76 522.562 1166.47 520.317 1165.48 524.989L1172.17 526.725C1169.68 527.936 1170.07 525.886 1167.55 527.791C1168.57 530.163 1167.25 529.046 1170.52 528.427L1170.84 530.67C1172.48 529.936 1171.73 530.287 1172.32 529.79C1172.44 529.686 1172.89 529.283 1173.01 529.177C1173.09 529.1 1173.25 528.927 1173.32 528.865C1173.39 528.803 1173.52 528.647 1173.63 528.551C1177.44 531.238 1177.81 531.061 1178.82 537.291L1178.04 537.4C1177.91 537.44 1176.75 537.396 1176.13 538.536C1177.78 542.165 1178.31 537.363 1178.79 542.195C1177.35 541.554 1174.99 540.625 1173.87 539.702C1173.5 534.304 1173.68 536.459 1175 532.822C1173.03 532.232 1170.89 532.607 1169.14 533.301C1170.12 538.346 1171.67 532.241 1172.05 538.691C1163.62 534.684 1169.79 532.651 1165.53 529.172C1163.85 532.147 1166.13 530.835 1164.92 533.328C1163.36 531.76 1164.2 531.321 1162.15 530.782C1160.4 533.096 1164.36 535.06 1165.33 537.089C1162.89 536.529 1163.81 535.454 1161.79 536.044C1162.36 538.473 1162.51 538.37 1166.21 538.953C1170.3 539.599 1169.33 539.68 1171.81 541.605C1175.79 544.716 1178.94 543.561 1180.15 550.047C1174.01 548.319 1178.79 545.68 1174.87 544.77C1173.75 547.2 1175.24 545.618 1174.82 548.928C1173.52 548.69 1172.35 548.538 1171.52 549.745C1173.11 550.81 1175.85 550.666 1177.53 551.487C1180.57 552.966 1178.04 554.324 1179.04 556.897C1181.16 557.435 1184.14 557.528 1186.29 556.886C1186.36 556.728 1186.4 556.305 1186.41 556.392L1186.48 554.406C1186.31 552.492 1185.97 553.478 1186.16 550.834C1194.58 543.946 1197.44 552.676 1199.16 553.825C1199.27 553.659 1199.36 553.184 1199.39 553.283L1200.41 550.51C1201.66 551.394 1202.02 551.999 1203.15 551.727C1203.64 548.642 1202.85 550.779 1201.03 547.921C1197.98 548.448 1198.69 549.159 1195.4 547.923C1195.1 541.194 1201.26 545.843 1203.53 545.978C1206.09 541.799 1200.78 545.651 1203.63 542.894C1204.72 541.837 1207.12 542.873 1208.77 543.182C1208.72 540.61 1208.2 542.425 1209.33 540.404C1208.19 539.779 1207.16 540.249 1206.1 539.158L1208.24 536.702L1205.99 535.464C1203.58 538.302 1204.49 540.079 1199.99 541.418C1199.73 537.649 1201.12 540.359 1201.58 536.732C1197.73 536.715 1199.54 535.659 1197.83 539.063C1196.84 541.067 1196.94 541.234 1194.81 542.309C1193.6 540.15 1194.42 540.7 1195.32 538.394L1192.36 538.66L1191.96 544.704C1188.87 544.074 1190.7 541.843 1188.74 540.024C1187.45 541.817 1188.02 540.924 1188.52 543.517C1186.22 544.526 1187.5 542.276 1186.77 544.614C1186.5 545.451 1188.59 545.807 1185.09 545.768C1183.51 540.985 1189.97 536.338 1192.93 534.652C1196.14 534.017 1195.4 537.509 1205.36 532.309C1204.07 529.673 1203.15 530.865 1201.35 531.977C1200.36 531.558 1200.92 530.806 1199.16 530.485C1198.7 531.658 1199.58 534.736 1196.34 532.309C1199.66 528.317 1199.17 528.65 1206.01 528.816C1206.41 527.776 1206.88 526.257 1207.13 524.989C1202.2 524.701 1207.81 526.076 1203.06 525.999C1202.79 523.647 1203.56 523.832 1204.69 522.184L1202.22 520.771C1201.74 522.622 1201.47 528.134 1198.9 526.859C1196.65 525.744 1200.54 521.768 1201.46 520.915C1200.55 518.415 1201.7 521.68 1200.44 519.518C1200.4 519.456 1200.3 519.292 1200.27 519.228L1197.23 518.62C1198.14 522.202 1199.89 519.563 1197.82 523.523C1196.46 523.247 1197.32 523.256 1196.28 522.746C1194.71 521.972 1197 522.219 1194.39 522.029C1194.29 524.217 1195.5 525.296 1195.41 527.401C1195.26 531.038 1194.25 529.495 1192.06 529.562C1191.88 530.746 1193.07 532.714 1188.06 534.64C1188.35 532.327 1188.94 531.381 1190.15 529.536C1191.27 527.878 1192.72 525.829 1191.69 523.996C1188.05 524.459 1189.91 523.976 1188.81 527.408L1187.49 527.342C1186.58 527.33 1188.15 526.653 1185.65 527.563C1186.17 529.846 1186.99 529.728 1185.89 532.673C1184.57 536.118 1185.45 536.32 1182.98 538.026C1182.38 536.836 1181.76 533.225 1181.85 531.656C1182.13 526.977 1188.92 521.809 1193.55 520.953L1194.53 518.922C1196.23 517.42 1196.04 519.606 1196.37 516.978C1194.53 515.495 1195.5 516.391 1192.82 517.341C1193.29 512.655 1195.11 515.231 1196.48 511.745L1194.17 510.757C1189.97 514.25 1191.74 517.436 1189.21 519.248C1187.44 516.752 1190.52 513.295 1189.21 510.569L1187.34 510.329C1186.51 512.434 1188.02 512.023 1186.63 513.484C1186.36 513.766 1186.17 513.253 1185.68 514.248C1187.39 518.391 1186.52 522.146 1182.39 525.239C1182.37 517.052 1187.82 511.104 1182.76 509.748C1181.89 513.506 1183.5 515.047 1180.71 515.355C1180.91 512.632 1181.15 511.015 1180.44 508.245C1179.84 505.917 1181.54 506.56 1179.24 505.396C1177.8 506.343 1178.68 504.8 1178.19 506.883C1177.59 509.49 1179.47 510.943 1178.61 513.678L1178.61 513.679Z" fill="#1E4CA1"/>
<path fill-rule="evenodd" clip-rule="evenodd" d="M1207.13 469.807C1206.18 468.848 1204.93 468.779 1203.66 468.601C1200.65 468.182 1197.34 466.039 1196.45 463.832C1202.5 463.596 1202.86 468.527 1207.05 467.836C1206.69 467.082 1207.82 467.898 1206.23 467.072C1205.3 466.587 1203.25 466.301 1202.41 464.797C1203.89 464.486 1205.89 465.411 1207.48 465.006C1206.55 462.694 1201.39 466.371 1198.91 460.527C1196.79 455.492 1203.94 449.455 1202.46 438.297C1201.93 434.38 1201.03 432.463 1199.97 429.018C1198.7 424.792 1200.6 422.106 1201.71 417.759C1202.77 413.634 1202.38 410.094 1203.78 405.542C1205.15 401.161 1206.34 398.323 1206.39 393.675C1206.4 391.744 1206.29 385.205 1204.54 383.955C1203.64 386.319 1203.89 388.595 1202.55 391.664C1197.57 403.14 1200.82 403.453 1197.73 412.795C1197.7 412.866 1197.47 413.5 1197.44 413.535L1196.83 414.372C1196.7 410.968 1196.38 409.392 1196.85 405.401C1197.62 398.47 1199.86 391.718 1194.13 384.639C1193.29 383.587 1192.98 381.908 1191.57 381.481C1191.79 382.962 1192.4 383.994 1192.55 385.89L1192.88 401.234C1192.28 412.676 1190.71 408.627 1193.78 421.252C1197.82 437.912 1187.04 447.192 1192.08 457.646C1192.66 458.851 1193.72 460.585 1193.94 461.794C1191.33 460.481 1189.37 458.034 1188.18 455.592C1182.76 444.458 1187.63 446.379 1188.13 436.087C1188.9 420.589 1184.54 418.944 1182.75 409.379C1180.83 399.273 1187.38 393.244 1188.26 390.135C1184.88 389.749 1181.42 393.448 1180.13 397.544C1177.3 406.478 1178.52 413.872 1182.15 421.88C1184.22 426.485 1184.93 427.164 1185.3 432.847C1185.59 437.265 1185.86 440.975 1185.1 445.677C1184.21 451.282 1188.44 459.627 1193.75 462.666C1196.37 464.154 1196.14 466.242 1200.16 468.46C1202.76 469.89 1206.44 469.929 1206.55 469.923L1207.12 469.808L1207.13 469.807ZM1188.08 464.285C1184.46 461.794 1182.35 458.345 1178.46 455.8C1175.73 454.003 1168.03 450.217 1164.44 449.998C1164.74 451.442 1166.93 452.545 1168.35 453.648C1169.86 454.815 1171.08 455.889 1172.42 457.183C1174.86 459.532 1177.43 462.135 1180.7 464.186C1184.42 466.52 1204.44 472.267 1206.46 471.606C1205.78 470.567 1203.43 470.653 1202.27 470.36C1193.11 468.031 1191.49 466.354 1187.38 458.976C1186.22 456.886 1185.6 455.043 1184.72 452.467C1183.89 450.053 1183.25 448.071 1181.97 445.989C1180.6 443.777 1178.66 442.409 1177.73 440.436C1174.6 433.695 1174.76 422.205 1171.43 419.775C1169.64 418.465 1170.71 421.53 1170.12 426.227C1169.23 433.318 1169.19 436.726 1172.34 441.154C1174.97 444.855 1179.4 448.501 1180.64 452.34C1181.5 454.991 1182.47 456.523 1183.94 458.471C1185.34 460.332 1186.73 462.39 1188.08 464.285L1188.08 464.285ZM1207.79 463.129C1206.48 461.524 1203.9 461.472 1203.86 456.154C1203.79 449.221 1208.58 450.543 1209.68 436.759C1209.98 433 1211.86 430.852 1211.4 426.687C1210.52 418.677 1214.4 420.816 1216.51 407.218C1217.25 402.419 1215.97 392.392 1211.85 390.923C1211.65 392.083 1212.92 394.308 1212.82 399.421C1212.74 402.7 1212.19 406.065 1211.75 409.36C1211.16 413.592 1210.18 415.366 1208.33 418.809C1204.08 426.732 1207.9 427.115 1207.15 432.359C1206.88 434.152 1205.99 435.888 1206.06 437.648C1206.4 448.076 1202 446.783 1203.08 457.147C1203.27 458.871 1205.27 464.362 1207.79 463.129L1207.79 463.129ZM1199.07 463.261L1195.3 462.523C1192.31 457.144 1192.3 449.482 1194.76 443.297C1195.14 442.357 1197.06 437.904 1197.53 437.439C1199.29 441.943 1197.67 445.901 1197.2 451.017C1196.4 459.93 1199.23 461.478 1199.07 463.262L1199.07 463.261Z" fill="#1E4CA1"/>
<path fill-rule="evenodd" clip-rule="evenodd" d="M686.198 687.673C687.368 686.485 688.909 686.402 690.48 686.184C694.205 685.664 698.282 683.017 699.384 680.288C691.907 679.997 691.474 686.09 686.295 685.237C686.733 684.305 685.337 685.313 687.301 684.292C688.453 683.693 690.984 683.339 692.025 681.48C690.2 681.096 687.722 682.239 685.765 681.739C686.904 678.881 693.273 683.427 696.342 676.204C698.981 669.981 690.134 662.518 691.973 648.728C692.62 643.888 693.732 641.519 695.024 637.26C696.609 632.039 694.267 628.718 692.887 623.345C691.574 618.247 692.065 613.871 690.318 608.246C688.637 602.832 687.153 599.324 687.113 593.577C687.097 591.192 687.218 583.109 689.385 581.565C690.502 584.486 690.195 587.3 691.845 591.093C698.009 605.276 693.982 605.663 697.812 617.21C697.843 617.298 698.141 618.08 698.162 618.125L698.924 619.157C699.077 614.95 699.463 613.005 698.902 608.071C697.93 599.505 695.169 591.16 702.251 582.41C703.302 581.111 703.678 579.036 705.429 578.507C705.145 580.337 704.401 581.612 704.204 583.957L703.797 602.919C704.532 617.061 706.471 612.059 702.685 627.66C697.69 648.251 711.032 659.722 704.782 672.641C704.058 674.132 702.768 676.276 702.496 677.769C705.713 676.144 708.144 673.121 709.614 670.104C716.308 656.342 710.292 658.715 709.662 645.996C708.717 626.843 714.097 624.808 716.329 612.988C718.689 600.496 710.599 593.045 709.5 589.203C713.699 588.725 717.975 593.297 719.573 598.359C723.053 609.401 721.548 618.54 717.073 628.438C714.5 634.13 713.624 634.967 713.164 641.992C712.81 647.451 712.486 652.037 713.41 657.848C714.513 664.777 709.291 675.091 702.71 678.846C699.485 680.686 699.765 683.267 694.801 686.006C691.592 687.774 687.04 687.824 686.909 687.813L686.198 687.673V687.673ZM709.724 680.848C714.211 677.77 716.828 673.508 721.622 670.361C725 668.14 734.517 663.461 738.938 663.189C738.57 664.974 735.873 666.337 734.123 667.701C732.267 669.145 730.748 670.472 729.089 672.069C726.077 674.973 722.894 678.192 718.854 680.727C714.253 683.611 689.513 690.715 687.018 689.895C687.861 688.611 690.778 688.718 692.204 688.355C703.521 685.478 705.517 683.406 710.585 674.288C712.026 671.703 712.791 669.426 713.887 666.242C714.91 663.258 715.702 660.808 717.296 658.236C718.986 655.501 721.389 653.811 722.519 651.373C726.388 643.04 726.196 628.84 730.311 625.837C732.525 624.218 731.195 628.004 731.93 633.811C733.037 642.575 733.094 646.787 729.189 652.26C725.933 656.833 720.466 661.34 718.924 666.085C717.866 669.362 716.666 671.256 714.849 673.663C713.111 675.963 711.39 678.507 709.723 680.848L709.724 680.848ZM685.367 679.42C686.987 677.434 690.174 677.372 690.235 670.799C690.309 662.23 684.387 663.863 683.039 646.826C682.671 642.184 680.346 639.526 680.912 634.38C682.001 624.48 677.195 627.123 674.599 610.315C673.68 604.387 675.264 591.993 680.356 590.178C680.601 591.611 679.028 594.361 679.165 600.681C679.253 604.732 679.935 608.892 680.492 612.963C681.205 618.195 682.421 620.387 684.702 624.644C689.956 634.435 685.231 634.907 686.179 641.389C686.498 643.606 687.6 645.751 687.526 647.926C687.085 660.815 692.537 659.216 691.19 672.028C690.967 674.158 688.476 680.943 685.368 679.421L685.367 679.42ZM696.149 679.582L700.798 678.67C704.519 672.022 704.527 662.554 701.477 654.907C701.012 653.745 698.627 648.243 698.053 647.665C695.878 653.233 697.896 658.125 698.465 664.449C699.455 675.465 695.949 677.38 696.149 679.582Z" fill="#1E4CA1"/>
<path fill-rule="evenodd" clip-rule="evenodd" d="M973.884 643.898C973.065 643.068 971.983 643.007 970.885 642.855C968.275 642.492 965.421 640.639 964.651 638.727C969.887 638.523 970.189 642.79 973.813 642.192C973.506 641.54 974.488 642.246 973.109 641.531C972.303 641.113 970.531 640.863 969.803 639.562C971.082 639.293 972.815 640.093 974.185 639.744C973.39 637.743 968.929 640.925 966.784 635.868C964.932 631.512 971.13 626.285 969.839 616.631C969.388 613.242 968.605 611.584 967.702 608.601C966.595 604.945 968.232 602.621 969.201 598.859C970.12 595.289 969.778 592.225 970.999 588.287C972.173 584.496 973.214 582.04 973.245 578.016C973.254 576.346 973.17 570.688 971.652 569.607C970.867 571.652 971.082 573.622 969.931 576.277C965.615 586.207 968.434 586.479 965.75 594.564C965.729 594.625 965.524 595.172 965.506 595.204L964.975 595.927C964.862 592.981 964.599 591.619 964.989 588.165C965.667 582.166 967.601 576.324 962.642 570.198C961.907 569.288 961.644 567.836 960.418 567.465C960.615 568.746 961.136 569.64 961.276 571.281L961.562 584.557C961.044 594.459 959.688 590.957 962.34 601.88C965.838 616.296 956.497 624.327 960.874 633.374C961.378 634.418 962.283 635.918 962.472 636.964C960.217 635.826 958.515 633.71 957.489 631.596C952.802 621.962 957.013 623.623 957.456 614.719C958.116 601.308 954.347 599.884 952.784 591.607C951.134 582.862 956.799 577.644 957.569 574.954C954.627 574.619 951.633 577.82 950.517 581.364C948.079 589.097 949.133 595.494 952.267 602.425C954.067 606.411 954.681 606.997 954.999 611.916C955.249 615.737 955.476 618.947 954.829 623.016C954.058 627.867 957.714 635.09 962.318 637.718C964.578 639.007 964.384 640.814 967.86 642.732C970.107 643.97 973.293 644.003 973.384 643.997L973.884 643.898L973.884 643.898ZM957.411 639.119C954.272 636.964 952.438 633.981 949.08 631.777C946.713 630.221 940.05 626.945 936.955 626.756C937.213 628.006 939.1 628.96 940.33 629.915C941.625 630.924 942.691 631.853 943.854 632.974C945.96 635.007 948.188 637.259 951.016 639.034C954.237 641.054 971.563 646.028 973.309 645.453C972.715 644.556 970.675 644.631 969.676 644.377C961.753 642.361 960.357 640.91 956.806 634.526C955.8 632.717 955.262 631.121 954.495 628.893C953.777 626.804 953.225 625.088 952.109 623.288C950.927 621.372 949.242 620.189 948.449 618.481C945.739 612.647 945.876 602.706 942.995 600.603C941.446 599.469 942.378 602.122 941.862 606.186C941.087 612.322 941.048 615.27 943.779 619.104C946.064 622.306 949.89 625.461 950.968 628.783C951.711 631.078 952.547 632.404 953.822 634.089C955.038 635.699 956.242 637.48 957.411 639.119ZM974.465 638.12C973.328 636.73 971.1 636.686 971.056 632.083C971.002 626.084 975.153 627.226 976.093 615.299C976.351 612.047 977.976 610.188 977.584 606.584C976.821 599.652 980.186 601.504 982.004 589.736C982.644 585.585 981.535 576.908 977.976 575.635C977.803 576.639 978.905 578.565 978.809 582.99C978.751 585.826 978.264 588.738 977.881 591.589C977.374 595.252 976.527 596.788 974.929 599.766C971.254 606.622 974.557 606.953 973.896 611.492C973.673 613.043 972.903 614.545 972.955 616.069C973.262 625.093 969.444 623.973 970.385 632.942C970.542 634.435 972.29 639.186 974.465 638.12V638.12ZM966.914 638.233L963.662 637.595C961.058 632.94 961.049 626.31 963.185 620.957C963.509 620.144 965.181 616.29 965.584 615.887C967.106 619.786 965.693 623.211 965.295 627.637C964.603 635.351 967.055 636.69 966.914 638.233H966.914Z" fill="#1E4CA1"/>
<path fill-rule="evenodd" clip-rule="evenodd" d="M116.047 563.789C117.695 564.029 118.674 565.224 119.778 566.359C122.399 569.057 126.944 570.78 129.797 570.055C125.614 563.854 120.444 567.108 118.069 562.425C119.079 562.228 117.44 561.697 119.426 562.68C120.588 563.254 122.372 565.084 124.487 564.827C123.716 563.125 121.329 561.802 120.577 559.932C123.553 559.158 123.654 566.983 131.292 565.187C137.875 563.637 138.661 552.089 150.871 545.421C155.159 543.081 157.727 542.581 161.925 541.103C167.072 539.293 168.366 535.441 171.884 531.151C175.22 527.081 179.039 524.888 182.545 520.155C185.919 515.599 187.869 512.328 192.48 508.897C194.393 507.473 200.985 502.795 203.512 503.629C201.818 506.258 199.366 507.673 197.281 511.245C189.486 524.601 186.792 521.581 179.745 531.499C179.691 531.575 179.236 532.276 179.213 532.322L178.829 533.546C182.315 531.185 184.11 530.342 187.759 526.974C194.094 521.126 199.193 513.966 210.436 514.504C212.105 514.584 214 513.66 215.462 514.759C213.819 515.614 212.351 515.768 210.342 516.995L194.807 527.875C183.837 536.831 189.017 535.437 174.196 541.606C154.636 549.752 153.271 567.292 139.156 569.888C137.526 570.189 135.033 570.411 133.668 571.077C136.882 572.711 140.758 572.886 144.059 572.285C159.117 569.55 153.644 566.1 163.531 558.073C178.421 545.985 183.242 549.125 194.096 543.936C205.565 538.455 206.794 527.524 209.244 524.37C212.111 527.472 210.951 533.622 207.811 537.902C200.962 547.239 192.702 551.426 182.074 553.67C175.962 554.96 174.767 554.747 168.831 558.532C164.219 561.472 160.328 563.921 156.188 568.102C151.251 573.087 139.846 574.975 132.93 571.889C129.537 570.376 127.62 572.125 122.474 569.739C119.152 568.199 116.422 564.555 116.353 564.445L116.047 563.789L116.047 563.789ZM135.459 578.725C140.594 580.524 145.579 580.118 150.95 582.123C154.741 583.535 164.14 588.444 166.971 591.851C165.317 592.61 162.623 591.241 160.487 590.632C158.227 589.989 156.256 589.548 153.988 589.155C149.866 588.444 145.388 587.778 140.954 586.019C135.909 584.017 115.552 568.259 114.738 565.762C116.273 565.686 117.909 568.099 119.047 569.037C128.058 576.462 130.91 576.847 141.262 575.545C144.196 575.176 146.487 574.451 149.701 573.449C152.713 572.511 155.158 571.703 158.173 571.465C161.378 571.212 164.162 572.15 166.797 571.622C175.807 569.816 187.147 561.268 191.998 562.809C194.615 563.639 190.773 564.805 186.524 568.829C180.11 574.902 176.748 577.441 170.027 577.528C164.41 577.601 157.543 575.858 152.807 577.421C149.534 578.502 147.301 578.657 144.285 578.613C141.403 578.571 138.334 578.688 135.46 578.725H135.459ZM122.212 558.239C124.772 558.372 126.706 560.904 132.043 557.067C138.997 552.062 134.18 548.248 147.123 537.091C150.652 534.049 151.419 530.602 155.905 528.016C164.533 523.042 159.56 520.73 171.581 508.698C175.82 504.453 186.752 498.404 191.227 501.437C190.217 502.485 187.069 502.841 182.052 506.687C178.836 509.153 175.885 512.162 172.93 515.016C169.132 518.685 168.082 520.964 165.999 525.319C161.206 535.341 158.034 531.815 153.365 536.406C151.767 537.977 150.686 540.132 148.887 541.359C138.232 548.623 142.745 552.076 131.617 558.564C129.766 559.642 122.822 561.644 122.211 558.239H122.212ZM128.454 567.029L131.939 570.24C139.501 569.311 147.143 563.722 151.506 556.739C152.168 555.679 155.196 550.5 155.322 549.697C149.546 551.234 146.794 555.754 142.029 559.951C133.728 567.262 130.113 565.565 128.454 567.029Z" fill="#1E4CA1"/>
<path fill-rule="evenodd" clip-rule="evenodd" d="M1294.41 353.54C1291.68 349.27 1292.06 338.002 1292.64 336.163C1292.95 335.193 1293.4 333.464 1294.35 331.394C1294.3 331.253 1294.24 331.111 1294.18 330.97C1294.18 330.97 1288.83 322.583 1275.53 307.327C1262.24 292.07 1262.78 280.115 1266.52 271.907C1270.27 263.699 1279.37 249.424 1279.19 243C1279.19 243 1278.06 255.822 1272.06 264.412C1272.06 264.412 1261.53 281.721 1271.88 295.639C1271.88 295.639 1276.87 304.561 1288.11 314.731C1292.17 318.397 1295.27 322.503 1297.58 326.255C1298.28 325.4 1299.09 324.542 1300.02 323.701C1305.45 318.785 1307.87 314.474 1307.87 314.474C1312.87 307.748 1307.78 299.384 1307.78 299.384C1304.88 295.232 1304.33 289.036 1304.33 289.036C1304.25 292.14 1308.64 299.039 1310.45 303.005C1312.26 306.972 1312.52 312.749 1306.1 320.122C1302.78 323.926 1300.49 326.847 1299.05 328.782C1302.06 334.261 1303.28 338.463 1303.28 338.463C1303.28 338.463 1303.51 340.041 1303.77 342.426C1304.19 342.365 1304.62 342.32 1305.05 342.29C1301.38 348.757 1297.48 351.96 1294.41 353.54ZM1296.95 348.041C1297.05 347.715 1297.16 347.391 1297.26 347.072C1297.3 343.559 1296.9 339.637 1295.73 335.479C1294.38 340.997 1295.66 345.367 1296.95 348.041V348.041Z" fill="#1E4CA1"/>
<path fill-rule="evenodd" clip-rule="evenodd" d="M1289.99 368.742C1291.44 363.887 1287.98 353.156 1286.91 351.548C1286.35 350.699 1285.45 349.161 1283.96 347.433C1283.97 347.282 1283.99 347.131 1284 346.978C1284 346.978 1286.85 337.443 1295.43 319.121C1304.02 300.798 1300.22 289.451 1294.36 282.589C1288.5 275.727 1275.83 264.503 1274.24 258.277C1274.24 258.277 1278.85 270.293 1286.98 276.903C1286.98 276.903 1301.86 290.651 1295.74 306.878C1295.74 306.878 1293.39 316.829 1285.37 329.698C1282.49 334.336 1280.63 339.136 1279.44 343.379C1278.53 342.751 1277.52 342.148 1276.39 341.594C1269.82 338.362 1266.31 334.88 1266.31 334.88C1259.65 329.788 1262.25 320.347 1262.25 320.347C1263.9 315.558 1262.72 309.45 1262.72 309.45C1263.66 312.411 1261.32 320.252 1260.67 324.564C1260.02 328.875 1261.36 334.501 1269.56 339.824C1273.8 342.571 1276.8 344.749 1278.72 346.213C1277.33 352.311 1277.31 356.685 1277.31 356.685C1277.31 356.685 1277.53 358.265 1277.94 360.629C1277.51 360.686 1277.09 360.76 1276.67 360.85C1281.98 366.058 1286.6 368.067 1289.99 368.742H1289.99ZM1286.04 364.153C1285.84 363.869 1285.66 363.586 1285.47 363.307C1284.47 359.941 1283.77 356.059 1283.75 351.741C1286.57 356.674 1286.54 361.228 1286.04 364.154V364.153Z" fill="#1E4CA1"/>
<path fill-rule="evenodd" clip-rule="evenodd" d="M1338.59 339.255C1339.54 339.147 1340.51 338.971 1341.53 338.713L1339.67 336.865C1339.67 336.865 1338.07 337.081 1336.47 337.858C1335.99 338.093 1335.58 338.158 1335.24 338.135C1334.93 338.021 1334.61 337.903 1334.29 337.778C1334.13 337.659 1334.05 337.556 1334.05 337.556C1334.05 337.556 1333.88 336.045 1335.18 335.484C1336.47 334.923 1337.94 335.096 1337.94 335.096L1335.22 331.902C1335.22 331.902 1333.75 331.73 1331.81 332.334C1329.87 332.938 1328.83 331.816 1328.83 331.816C1328.83 331.816 1328.27 330.564 1330.21 329.787C1332.16 329.011 1333.8 330.09 1333.8 330.09C1333.8 330.09 1332.15 328.494 1330.02 325.319C1328.81 325.144 1327.99 325.67 1325.98 325.925C1323.61 326.228 1323.48 324.415 1323.48 324.415C1323.48 324.415 1323.95 322.818 1325.9 322.775C1327.05 322.749 1328.19 323.238 1328.94 323.641C1328.18 322.401 1327.39 320.984 1326.61 319.388C1325.76 319.565 1324.19 319.78 1322.83 319.365C1320.85 318.761 1320.29 317.898 1320.29 316.905C1320.29 315.913 1322.18 315.826 1322.92 316.215C1323.65 316.603 1326.07 318.259 1326.07 318.259L1326.07 318.261C1325.28 316.55 1324.51 314.655 1323.81 312.576L1323.61 310.95L1323.81 312.58C1323.81 312.58 1319.51 310.734 1319.08 310.001C1318.65 309.267 1318.47 307.757 1318.95 307.109C1319.42 306.462 1321.11 307.282 1321.58 308.318C1321.89 308.985 1322.64 309.885 1323.14 310.441C1322.94 309.778 1322.75 309.1 1322.57 308.404C1322.57 308.404 1322.21 306.852 1322.14 304.067C1321.28 303.767 1319.48 303 1318.52 301.585C1317.22 299.686 1318.65 298.262 1318.65 298.262C1318.65 298.262 1320.54 298.089 1320.89 299.902C1321.11 301.064 1321.72 301.925 1322.13 302.393C1322.16 300.968 1322.26 299.314 1322.51 297.459L1323.22 295.845L1322.51 297.46C1320.67 296.441 1319.16 292.479 1319.16 292.479C1319.16 292.479 1318.95 290.148 1320.03 289.588C1321.11 289.026 1321.58 290.149 1321.58 290.149C1321.58 290.149 1322.05 291.659 1322.18 293.644C1322.25 294.699 1322.54 295.254 1322.8 295.543L1322.8 295.541C1323.11 293.71 1323.55 291.716 1324.17 289.58L1324.95 288.293L1324.17 289.58C1324.17 289.58 1322.4 284.84 1321.93 283.632C1321.45 282.424 1321.54 280.956 1322.66 280.266C1323.78 279.575 1324.3 281.345 1324.3 281.345C1324.3 281.345 1324.77 284.193 1324.56 285.488C1324.43 286.277 1324.6 287.146 1324.76 287.704L1324.75 287.69C1325.46 285.525 1326.34 283.231 1327.45 280.826L1327.46 280.811C1327.08 279.685 1326.12 276.913 1325.51 275.691C1324.73 274.137 1326.2 272.799 1326.2 272.799C1326.2 272.799 1327.88 272.929 1328.31 274.482C1328.74 276.036 1328.53 278.434 1328.53 278.434V278.432C1329.24 276.803 1329.84 275.353 1330.35 274.058C1330.35 273.955 1330.49 271.181 1329.44 270.08C1328.36 268.958 1328.83 267.749 1328.83 267.749C1328.83 267.749 1329.74 266.498 1330.51 267.447C1331.28 268.383 1331.3 271.352 1331.31 271.434C1333.82 264.072 1332.28 263.477 1332.28 263.477C1332.28 263.477 1332.11 261.319 1333.49 261.923C1334.87 262.527 1335.13 264.081 1335.13 264.081C1335.13 264.081 1335.09 267.102 1332.97 270.77C1332.39 271.787 1331.52 273.801 1330.57 276.182C1331.25 274.467 1333.02 273.878 1334.18 273.878C1335.35 273.878 1335.74 275.129 1335.74 275.129C1335.74 275.129 1335.99 275.82 1333.49 276.424C1330.99 277.027 1329.48 278.954 1329.48 278.963C1328.92 280.404 1328.37 281.887 1327.84 283.3C1327.85 283.297 1329.95 281.818 1331.42 281.43C1332.89 281.042 1333.32 282.293 1333.32 282.293C1333.32 282.293 1333.23 284.494 1330.9 284.71C1328.58 284.926 1326.43 287.193 1326.42 287.2C1325.87 288.72 1325.45 289.929 1325.22 290.577C1326.09 289.885 1326.98 289.291 1327.75 289.09C1328.99 288.766 1330.67 288.975 1330.83 289.774C1331 290.573 1329.2 291.644 1327.99 291.095C1327.2 290.74 1325.64 291.752 1324.67 292.523C1324.38 293.798 1323.99 295.854 1323.76 298.383C1324.86 297.019 1325.05 298.048 1326.31 297.186C1327.57 296.323 1328.49 295.124 1328.79 295.911C1329.09 296.699 1329.12 297.955 1327.96 298.759C1327.19 299.3 1324.95 300.303 1323.6 300.917C1323.56 302.269 1323.57 303.71 1323.67 305.204C1324.16 304.22 1324.71 303.316 1325.32 302.814C1326.3 301.992 1327.91 301.47 1328.4 302.123C1328.88 302.776 1327.71 304.508 1326.38 304.527C1325.47 304.54 1324.42 306.327 1323.89 307.436C1324.19 309.787 1324.74 312.222 1325.64 314.617C1325.91 313.164 1326.42 311.717 1327.04 310.811C1327.77 309.753 1329.6 309.054 1330.24 309.55C1330.89 310.047 1330.23 312.031 1328.96 312.41C1327.73 312.774 1326.27 315.913 1326.26 316.132C1326.89 317.544 1327.65 318.933 1328.57 320.272C1328.57 320.272 1328.65 320.406 1328.8 320.656C1328.68 319.096 1328.77 317.416 1329.39 316.831C1330.08 316.184 1331.95 315.074 1332.6 315.571C1333.24 316.067 1332.59 318.052 1331.31 318.43C1330.04 318.808 1329.7 322.211 1329.81 322.192L1329.63 321.996C1330.33 323.107 1331.4 324.705 1332.81 326.64C1332.8 324.968 1333.49 322.705 1334.12 322.117C1334.81 321.47 1335.47 320.964 1336.11 321.461C1336.76 321.957 1337.5 323.888 1335.82 324.752C1334.39 325.484 1333.93 327.432 1333.83 328.007C1334.81 329.31 1335.94 330.733 1337.2 332.237C1337.07 330.54 1337.66 327.822 1338.5 327.36C1339.36 326.886 1339.88 326.583 1340.53 327.08C1341.17 327.576 1341.56 329.324 1339.88 330.187C1338.2 331.05 1338.49 333.747 1338.49 333.747C1339.65 335.08 1340.92 336.465 1342.28 337.878C1342.14 336.197 1342.81 333.782 1343.66 333.315C1344.52 332.84 1345.6 333.444 1345.6 333.444C1345.6 333.444 1346.63 334.912 1344.95 335.775C1343.9 336.317 1343.49 337.427 1343.34 338.179C1343.66 338.071 1343.99 337.958 1344.32 337.835C1345.62 337.344 1346.93 336.864 1348.24 336.395L1347.21 339.68C1347.21 339.68 1346.07 341.478 1338.59 339.255L1338.59 339.255ZM1323.3 310.619L1323.29 310.614L1323.25 310.564L1323.3 310.619H1323.3ZM1322.52 304.19L1322.54 304.197L1322.55 304.198L1322.52 304.19ZM1324.89 288.129L1324.88 288.098L1324.88 288.094L1324.89 288.129H1324.89ZM1330.55 276.221C1330.21 277.082 1329.85 277.99 1329.5 278.915C1329.58 278.694 1329.96 277.721 1330.55 276.221Z" fill="#1E4CA1"/>
<path fill-rule="evenodd" clip-rule="evenodd" d="M1427.15 313.76C1427.98 313.279 1428.8 312.723 1429.63 312.075L1427.17 311.138C1427.17 311.138 1425.8 311.981 1424.65 313.337C1424.31 313.747 1423.96 313.973 1423.64 314.088C1423.31 314.109 1422.97 314.128 1422.62 314.146C1422.43 314.099 1422.32 314.036 1422.32 314.036C1422.32 314.036 1421.55 312.725 1422.51 311.688C1423.47 310.652 1424.88 310.217 1424.88 310.217L1421.1 308.394C1421.1 308.394 1419.69 308.829 1418.16 310.166C1416.63 311.504 1415.23 310.896 1415.23 310.896C1415.23 310.896 1414.21 309.978 1415.67 308.483C1417.13 306.987 1419.07 307.312 1419.07 307.312C1419.07 307.312 1416.92 306.518 1413.68 304.474C1412.51 304.799 1411.97 305.616 1410.24 306.659C1408.19 307.894 1407.34 306.289 1407.34 306.289C1407.34 306.289 1407.13 304.636 1408.89 303.812C1409.93 303.324 1411.18 303.306 1412.02 303.374C1410.83 302.546 1409.53 301.57 1408.17 300.427C1407.47 300.93 1406.12 301.76 1404.71 301.931C1402.65 302.181 1401.78 301.617 1401.38 300.71C1400.98 299.802 1402.68 298.955 1403.51 299.014C1404.34 299.074 1407.22 299.611 1407.22 299.611L1407.22 299.612C1405.81 298.367 1404.34 296.943 1402.86 295.324L1402.02 293.92L1402.86 295.328C1402.86 295.328 1398.18 295.379 1397.49 294.882C1396.8 294.385 1396.03 293.073 1396.2 292.29C1396.37 291.506 1398.24 291.575 1399.1 292.331C1399.65 292.818 1400.7 293.337 1401.38 293.645C1400.93 293.118 1400.49 292.573 1400.04 292.009C1400.04 292.009 1399.08 290.735 1397.89 288.217C1396.99 288.289 1395.03 288.315 1393.58 287.411C1391.62 286.197 1392.35 284.319 1392.35 284.319C1392.35 284.319 1394.02 283.393 1395.07 284.912C1395.74 285.886 1396.65 286.426 1397.21 286.688C1396.66 285.374 1396.09 283.818 1395.56 282.024L1395.56 280.26L1395.56 282.025C1393.47 281.836 1390.49 278.819 1390.49 278.819C1390.49 278.819 1389.35 276.775 1390.11 275.826C1390.87 274.877 1391.76 275.711 1391.76 275.711C1391.76 275.711 1392.8 276.902 1393.72 278.665C1394.21 279.602 1394.7 279.993 1395.05 280.155L1395.05 280.154C1394.59 278.353 1394.19 276.35 1393.9 274.145L1394.09 272.653L1393.9 274.146C1393.9 274.146 1390.36 270.524 1389.44 269.61C1388.52 268.697 1388 267.32 1388.75 266.235C1389.5 265.149 1390.69 266.559 1390.69 266.559C1390.69 266.559 1392.27 268.973 1392.6 270.244C1392.8 271.019 1393.31 271.744 1393.67 272.192L1393.66 272.181C1393.44 269.915 1393.32 267.458 1393.36 264.812V264.794C1392.56 263.918 1390.56 261.77 1389.51 260.899C1388.17 259.791 1388.97 257.975 1388.97 257.975C1388.97 257.975 1390.56 257.413 1391.59 258.66C1392.61 259.907 1393.38 262.188 1393.38 262.188L1393.38 262.186C1393.38 260.407 1393.34 258.838 1393.27 257.452C1393.24 257.355 1392.25 254.76 1390.83 254.18C1389.39 253.59 1389.34 252.292 1389.34 252.292C1389.34 252.292 1389.66 250.782 1390.76 251.336C1391.84 251.883 1393.06 254.589 1393.09 254.664C1392.42 246.914 1390.77 246.989 1390.77 246.989C1390.77 246.989 1389.74 245.085 1391.25 245.079C1392.76 245.074 1393.62 246.39 1393.62 246.39C1393.62 246.39 1394.8 249.171 1394.35 253.381C1394.23 254.548 1394.24 256.742 1394.33 259.305C1394.27 257.459 1395.65 256.205 1396.71 255.736C1397.78 255.265 1398.64 256.253 1398.64 256.253C1398.64 256.253 1399.15 256.781 1397.11 258.344C1395.07 259.904 1394.46 262.277 1394.46 262.288C1394.54 263.831 1394.63 265.412 1394.72 266.915C1394.72 266.91 1396.05 264.708 1397.24 263.76C1398.42 262.812 1399.32 263.783 1399.32 263.783C1399.32 263.783 1400.13 265.831 1398.09 266.97C1396.05 268.107 1395 271.049 1395 271.058C1395.11 272.67 1395.21 273.949 1395.26 274.634C1395.77 273.649 1396.35 272.745 1396.97 272.25C1397.98 271.452 1399.6 270.967 1400.07 271.631C1400.54 272.295 1399.33 274 1398 273.988C1397.14 273.981 1396.12 275.536 1395.55 276.634C1395.8 277.917 1396.27 279.957 1397.08 282.363C1397.53 280.672 1398.13 281.534 1398.93 280.237C1399.73 278.939 1400.09 277.471 1400.68 278.07C1401.27 278.67 1401.81 279.808 1401.08 281.009C1400.59 281.817 1398.95 283.638 1397.96 284.744C1398.46 286.001 1399.06 287.314 1399.75 288.639C1399.8 287.541 1399.94 286.492 1400.29 285.788C1400.86 284.637 1402.12 283.511 1402.83 283.911C1403.54 284.311 1403.17 286.369 1401.96 286.923C1401.13 287.306 1400.89 289.365 1400.86 290.592C1402.08 292.621 1403.57 294.628 1405.36 296.454C1405.01 295.017 1404.9 293.487 1405.1 292.408C1405.34 291.146 1406.73 289.767 1407.52 289.96C1408.31 290.152 1408.51 292.233 1407.5 293.094C1406.53 293.924 1406.46 297.385 1406.54 297.589C1407.68 298.627 1408.94 299.589 1410.33 300.441C1410.33 300.441 1410.45 300.533 1410.69 300.702C1409.95 299.323 1409.35 297.75 1409.68 296.964C1410.05 296.093 1411.31 294.324 1412.11 294.516C1412.9 294.709 1413.1 296.79 1412.09 297.651C1411.07 298.513 1412.14 301.762 1412.23 301.7L1411.98 301.594C1413.08 302.324 1414.7 303.357 1416.77 304.555C1416.09 303.028 1415.81 300.68 1416.14 299.89C1416.51 299.019 1416.91 298.291 1417.7 298.483C1418.5 298.676 1419.96 300.142 1418.77 301.611C1417.76 302.858 1418.12 304.825 1418.26 305.394C1419.69 306.188 1421.29 307.034 1423.05 307.9C1422.25 306.4 1421.69 303.678 1422.27 302.916C1422.87 302.133 1423.22 301.647 1424.01 301.84C1424.8 302.032 1425.87 303.474 1424.67 304.944C1423.48 306.413 1424.85 308.761 1424.85 308.761C1426.45 309.511 1428.16 310.268 1429.98 311.01C1429.17 309.53 1428.8 307.05 1429.39 306.28C1429.99 305.497 1431.22 305.614 1431.22 305.614C1431.22 305.614 1432.76 306.538 1431.57 308.007C1430.82 308.93 1430.91 310.108 1431.07 310.857C1431.32 310.628 1431.57 310.393 1431.82 310.146C1432.82 309.17 1433.82 308.202 1434.83 307.246L1435.22 310.664C1435.22 310.664 1434.9 312.772 1427.16 313.761L1427.15 313.76ZM1401.6 293.742L1401.59 293.74L1401.53 293.712L1401.6 293.742ZM1398.29 288.176L1398.31 288.173L1398.32 288.172L1398.29 288.176ZM1393.96 272.527L1393.94 272.503L1393.94 272.5L1393.97 272.527H1393.96ZM1394.33 259.346C1394.37 260.273 1394.41 261.247 1394.46 262.237C1394.45 262.001 1394.4 260.958 1394.33 259.346Z" fill="#1E4CA1"/>
<path fill-rule="evenodd" clip-rule="evenodd" d="M1422.89 319.041C1422.72 319.561 1422.52 320.091 1422.26 320.634L1421.43 319.383C1421.43 319.383 1421.72 318.51 1422.34 317.699C1422.52 317.454 1422.6 317.23 1422.63 317.036C1422.6 316.851 1422.56 316.66 1422.53 316.464C1422.48 316.364 1422.43 316.309 1422.43 316.309C1422.43 316.309 1421.6 316.046 1421.14 316.711C1420.69 317.377 1420.62 318.22 1420.62 318.22L1419.13 316.342C1419.13 316.342 1419.19 315.499 1419.75 314.475C1420.3 313.45 1419.78 312.745 1419.78 312.745C1419.78 312.745 1419.14 312.293 1418.49 313.298C1417.84 314.304 1418.27 315.343 1418.27 315.343C1418.27 315.343 1417.55 314.243 1416 312.697C1416.04 312.002 1416.42 311.595 1416.79 310.497C1417.22 309.197 1416.21 308.926 1416.21 308.926C1416.21 308.926 1415.26 309.017 1415.03 310.102C1414.89 310.745 1415.03 311.444 1415.18 311.908C1414.57 311.346 1413.86 310.745 1413.05 310.13C1413.24 309.673 1413.53 308.818 1413.45 308.007C1413.33 306.826 1412.9 306.416 1412.35 306.307C1411.79 306.198 1411.53 307.255 1411.67 307.71C1411.81 308.164 1412.47 309.704 1412.47 309.704L1412.47 309.705C1411.6 309.074 1410.62 308.434 1409.53 307.812L1408.64 307.519L1409.53 307.813C1409.53 307.813 1408.97 305.192 1408.6 304.869C1408.24 304.546 1407.41 304.283 1406.99 304.479C1406.58 304.674 1406.85 305.71 1407.38 306.09C1407.72 306.335 1408.15 306.857 1408.4 307.198C1408.05 307.015 1407.69 306.835 1407.32 306.658C1407.32 306.658 1406.49 306.284 1404.93 305.937C1404.86 305.423 1404.63 304.327 1403.94 303.63C1403.01 302.694 1402.06 303.337 1402.06 303.337C1402.06 303.337 1401.75 304.385 1402.73 304.777C1403.36 305.029 1403.78 305.468 1403.99 305.75C1403.19 305.608 1402.25 305.485 1401.18 305.417L1400.2 305.641L1401.18 305.417C1400.81 304.274 1398.75 302.992 1398.75 302.992C1398.75 302.992 1397.47 302.615 1397.03 303.16C1396.6 303.704 1397.18 304.094 1397.18 304.094C1397.18 304.094 1397.97 304.526 1399.08 304.817C1399.66 304.972 1399.94 305.195 1400.07 305.37L1400.07 305.369C1399.01 305.343 1397.84 305.372 1396.58 305.485L1395.77 305.781L1396.58 305.485C1396.58 305.485 1394.11 303.971 1393.48 303.572C1392.85 303.172 1392.02 303.06 1391.51 303.614C1391 304.168 1391.94 304.654 1391.94 304.654C1391.94 304.654 1393.48 305.234 1394.23 305.255C1394.69 305.267 1395.16 305.46 1395.46 305.609L1395.45 305.605C1394.16 305.764 1392.77 306.01 1391.3 306.367L1391.29 306.369C1390.7 306.031 1389.25 305.189 1388.63 304.711C1387.84 304.104 1386.93 304.781 1386.93 304.781C1386.93 304.781 1386.82 305.741 1387.64 306.154C1388.47 306.566 1389.84 306.709 1389.84 306.709H1389.84C1388.84 306.932 1387.96 307.109 1387.18 307.249C1387.12 307.241 1385.55 307.016 1385.05 306.3C1384.53 305.571 1383.8 305.705 1383.8 305.705C1383.8 305.705 1383 306.076 1383.45 306.617C1383.89 307.151 1385.56 307.491 1385.6 307.5C1381.19 308.101 1381.03 307.175 1381.03 307.175C1381.03 307.175 1379.83 306.841 1380.02 307.683C1380.21 308.525 1381.05 308.841 1381.05 308.841C1381.05 308.841 1382.75 309.149 1385.05 308.365C1385.68 308.147 1386.91 307.879 1388.35 307.606C1387.31 307.804 1386.79 308.732 1386.66 309.384C1386.53 310.038 1387.19 310.394 1387.19 310.394C1387.19 310.394 1387.55 310.615 1388.16 309.276C1388.78 307.94 1390.02 307.303 1390.03 307.3C1390.9 307.147 1391.79 306.998 1392.64 306.86C1392.64 306.862 1391.58 307.882 1391.2 308.662C1390.82 309.444 1391.48 309.824 1391.48 309.824C1391.48 309.824 1392.72 310.017 1393.1 308.732C1393.48 307.449 1394.99 306.493 1394.99 306.49C1395.91 306.349 1396.63 306.242 1397.02 306.184C1396.54 306.596 1396.1 307.034 1395.91 307.443C1395.59 308.105 1395.52 309.069 1395.95 309.249C1396.38 309.429 1397.18 308.539 1397.01 307.798C1396.89 307.318 1397.63 306.554 1398.17 306.093C1398.92 306.071 1400.12 306.075 1401.56 306.225C1400.68 306.691 1401.23 306.914 1400.61 307.526C1399.99 308.138 1399.21 308.523 1399.62 308.777C1400.03 309.031 1400.74 309.185 1401.31 308.626C1401.7 308.251 1402.51 307.105 1403 306.414C1403.77 306.537 1404.58 306.702 1405.4 306.923C1404.8 307.089 1404.23 307.301 1403.88 307.584C1403.31 308.048 1402.84 308.892 1403.15 309.238C1403.47 309.584 1404.57 309.118 1404.73 308.373C1404.83 307.859 1405.95 307.465 1406.63 307.292C1407.92 307.719 1409.23 308.294 1410.47 309.063C1409.63 309.053 1408.76 309.181 1408.18 309.431C1407.51 309.723 1406.92 310.674 1407.12 311.091C1407.33 311.509 1408.52 311.359 1408.87 310.684C1409.21 310.035 1411.13 309.559 1411.26 309.578C1411.98 310.087 1412.68 310.668 1413.33 311.332C1413.33 311.332 1413.39 311.389 1413.52 311.501C1412.65 311.264 1411.7 311.128 1411.3 311.414C1410.87 311.73 1410.04 312.656 1410.24 313.074C1410.45 313.492 1411.64 313.342 1411.99 312.667C1412.34 311.993 1414.29 312.176 1414.27 312.237L1414.18 312.113C1414.72 312.631 1415.51 313.404 1416.44 314.411C1415.5 314.224 1414.15 314.361 1413.75 314.649C1413.31 314.965 1412.96 315.279 1413.17 315.697C1413.37 316.115 1414.38 316.745 1415.05 315.895C1415.61 315.174 1416.76 315.13 1417.09 315.134C1417.72 315.831 1418.39 316.619 1419.1 317.494C1418.16 317.235 1416.57 317.264 1416.22 317.686C1415.86 318.118 1415.63 318.376 1415.84 318.794C1416.04 319.212 1416.98 319.622 1417.65 318.772C1418.32 317.921 1419.8 318.385 1419.8 318.385C1420.42 319.183 1421.06 320.044 1421.71 320.964C1420.78 320.7 1419.35 320.811 1418.99 321.236C1418.63 321.669 1418.85 322.341 1418.85 322.341C1418.85 322.341 1419.56 323.084 1420.23 322.234C1420.65 321.7 1421.32 321.597 1421.76 321.594C1421.66 321.763 1421.57 321.934 1421.46 322.105C1421.04 322.784 1420.63 323.467 1420.22 324.147L1422.18 323.934C1422.18 323.934 1423.31 323.488 1422.89 319.043L1422.89 319.041ZM1408.49 307.308L1408.48 307.305L1408.46 307.274L1408.49 307.308ZM1404.96 306.165L1404.96 306.178V306.18L1404.96 306.165ZM1395.68 305.729L1395.67 305.719L1395.66 305.718L1395.68 305.729ZM1388.37 307.6C1388.89 307.501 1389.44 307.402 1390 307.304C1389.87 307.328 1389.28 307.433 1388.37 307.6Z" fill="#1E4CA1"/>
<path fill-rule="evenodd" clip-rule="evenodd" d="M1349.29 328.577C1348.89 328.799 1348.47 329.004 1348 329.188L1348.21 327.949C1348.21 327.949 1348.89 327.587 1349.73 327.443C1349.98 327.399 1350.16 327.31 1350.28 327.206C1350.37 327.076 1350.46 326.941 1350.55 326.802C1350.58 326.713 1350.58 326.65 1350.58 326.65C1350.58 326.65 1350.23 326.015 1349.57 326.158C1348.91 326.302 1348.38 326.779 1348.38 326.779L1348.55 324.778C1348.55 324.778 1349.07 324.301 1349.99 323.994C1350.92 323.686 1351.01 322.961 1351.01 322.961C1351.01 322.961 1350.88 322.318 1349.9 322.558C1348.93 322.799 1348.6 323.676 1348.6 323.676C1348.6 323.676 1348.79 322.596 1348.73 320.767C1349.15 320.362 1349.62 320.336 1350.47 319.875C1351.48 319.33 1351.02 318.589 1351.02 318.589C1351.02 318.589 1350.39 318.101 1349.62 318.627C1349.17 318.938 1348.86 319.449 1348.68 319.814C1348.63 319.12 1348.54 318.348 1348.4 317.509C1348.78 317.34 1349.45 316.987 1349.86 316.445C1350.47 315.656 1350.44 315.164 1350.17 314.778C1349.89 314.392 1349.13 314.889 1348.95 315.245C1348.77 315.601 1348.3 316.92 1348.3 316.92L1348.29 316.92C1348.12 316.035 1347.89 315.083 1347.59 314.079L1347.21 313.391L1347.59 314.081C1347.59 314.081 1348.74 312.162 1348.71 311.756C1348.67 311.35 1348.31 310.715 1347.95 310.596C1347.58 310.477 1347.16 311.266 1347.26 311.801C1347.33 312.146 1347.29 312.706 1347.25 313.061C1347.14 312.749 1347.03 312.432 1346.9 312.111C1346.9 312.111 1346.61 311.407 1345.86 310.304C1346.11 309.948 1346.59 309.147 1346.57 308.328C1346.55 307.228 1345.6 307.072 1345.6 307.072C1345.6 307.072 1344.81 307.535 1345.18 308.336C1345.42 308.85 1345.42 309.355 1345.39 309.652C1344.99 309.105 1344.48 308.492 1343.87 307.838L1343.14 307.41L1343.87 307.838C1344.3 306.93 1343.78 304.968 1343.78 304.968C1343.78 304.968 1343.21 304.002 1342.64 304.086C1342.06 304.169 1342.19 304.738 1342.19 304.738C1342.19 304.738 1342.43 305.457 1342.93 306.265C1343.2 306.694 1343.24 306.991 1343.22 307.174V307.173C1342.59 306.549 1341.86 305.897 1341.02 305.239L1340.36 304.956L1341.02 305.239C1341.02 305.239 1340.39 302.903 1340.24 302.301C1340.08 301.698 1339.64 301.152 1339.01 301.197C1338.38 301.242 1338.67 302.075 1338.67 302.075C1338.67 302.075 1339.28 303.314 1339.73 303.757C1340 304.027 1340.18 304.413 1340.27 304.674L1340.27 304.668C1339.39 304.024 1338.41 303.379 1337.3 302.754L1337.3 302.75C1337.13 302.206 1336.73 300.861 1336.62 300.215C1336.49 299.394 1335.55 299.285 1335.55 299.285C1335.55 299.285 1334.93 299.805 1335.2 300.529C1335.46 301.253 1336.22 302.125 1336.22 302.125L1336.22 302.125C1335.48 301.691 1334.84 301.295 1334.29 300.932C1334.26 300.893 1333.43 299.855 1333.53 299.131C1333.64 298.394 1333.11 298.057 1333.11 298.057C1333.11 298.057 1332.41 297.823 1332.38 298.41C1332.34 298.988 1333.16 300.148 1333.18 300.181C1330.15 298.02 1330.58 297.361 1330.58 297.361C1330.58 297.361 1330.04 296.474 1329.68 297.094C1329.31 297.715 1329.64 298.391 1329.64 298.391C1329.64 298.391 1330.5 299.554 1332.35 300.389C1332.86 300.62 1333.76 301.16 1334.8 301.819C1334.05 301.345 1333.2 301.609 1332.75 301.934C1332.29 302.259 1332.49 302.854 1332.49 302.854C1332.49 302.854 1332.58 303.195 1333.73 302.73C1334.86 302.267 1335.99 302.594 1336 302.595C1336.61 303.001 1337.24 303.422 1337.84 303.825C1337.84 303.825 1336.61 303.839 1335.93 304.097C1335.25 304.356 1335.43 304.963 1335.43 304.963C1335.43 304.963 1336.08 305.795 1337.05 305.227C1338.01 304.661 1339.48 304.943 1339.48 304.944C1340.12 305.382 1340.63 305.732 1340.9 305.92C1340.36 305.894 1339.85 305.913 1339.5 306.05C1338.92 306.271 1338.33 306.82 1338.49 307.176C1338.65 307.533 1339.64 307.448 1339.96 306.896C1340.17 306.538 1341.06 306.496 1341.65 306.525C1342.12 306.939 1342.85 307.628 1343.64 308.548C1342.83 308.325 1343.04 308.779 1342.31 308.795C1341.58 308.811 1340.89 308.602 1341 308.992C1341.1 309.381 1341.44 309.877 1342.11 309.868C1342.57 309.862 1343.71 309.628 1344.41 309.489C1344.81 310.002 1345.2 310.565 1345.58 311.174C1345.12 310.928 1344.65 310.731 1344.27 310.704C1343.66 310.66 1342.89 310.906 1342.88 311.296C1342.88 311.687 1343.82 312.033 1344.34 311.669C1344.7 311.418 1345.61 311.819 1346.12 312.103C1346.66 313.101 1347.13 314.201 1347.45 315.383C1346.94 314.892 1346.33 314.473 1345.84 314.295C1345.26 314.087 1344.35 314.326 1344.24 314.7C1344.13 315.073 1344.94 315.661 1345.54 315.452C1346.12 315.252 1347.56 316.063 1347.63 316.146C1347.78 316.871 1347.87 317.623 1347.89 318.401C1347.89 318.401 1347.89 318.474 1347.91 318.613C1347.52 317.974 1347.01 317.345 1346.61 317.292C1346.16 317.233 1345.12 317.323 1345.01 317.697C1344.9 318.07 1345.71 318.658 1346.31 318.45C1346.91 318.241 1347.99 319.469 1347.94 319.492L1347.96 319.365C1347.99 319.994 1348.03 320.912 1348.02 322.059C1347.55 321.408 1346.65 320.72 1346.25 320.667C1345.8 320.608 1345.4 320.595 1345.29 320.969C1345.17 321.343 1345.42 322.301 1346.32 322.167C1347.08 322.053 1347.8 322.682 1348 322.875C1347.98 323.657 1347.94 324.525 1347.87 325.463C1347.45 324.767 1346.46 323.874 1346.01 323.929C1345.54 323.985 1345.25 324.012 1345.14 324.386C1345.03 324.76 1345.36 325.548 1346.26 325.413C1347.16 325.279 1347.79 326.41 1347.79 326.41C1347.71 327.252 1347.61 328.143 1347.48 329.073C1347.06 328.38 1346.13 327.628 1345.67 327.684C1345.2 327.74 1344.95 328.277 1344.95 328.277C1344.95 328.277 1344.95 329.136 1345.85 329.002C1346.41 328.918 1346.88 329.237 1347.15 329.486C1346.99 329.535 1346.83 329.582 1346.67 329.625C1346.03 329.8 1345.38 329.979 1344.75 330.16L1346.06 331.151C1346.06 331.151 1347.01 331.53 1349.29 328.577H1349.29ZM1347.24 313.175L1347.24 313.172L1347.24 313.14L1347.24 313.175H1347.24ZM1345.74 310.459L1345.74 310.468L1345.74 310.469L1345.74 310.459ZM1340.34 304.876L1340.33 304.861L1340.33 304.859L1340.34 304.876H1340.34ZM1334.81 301.829C1335.19 302.068 1335.58 302.322 1335.97 302.582C1335.88 302.521 1335.46 302.248 1334.81 301.829Z" fill="#1E4CA1"/>
<path fill-rule="evenodd" clip-rule="evenodd" d="M891.451 667.124C908.558 664.034 954.004 650.111 967.306 638.055C999.915 608.508 974.373 606.167 1029.3 606.167C1058.99 606.167 1050.57 607.97 1078.18 600.728C1131.89 586.639 1163.67 589.711 1193.45 530.834C1206.75 504.507 1209.05 526.317 1209.05 479.293C1209.05 428.264 1220.09 442.579 1233.72 396.541C1235.31 391.189 1283.06 322.607 1357.72 328.831C1394.77 331.918 1424.05 317.793 1426.86 305.002C1433.37 275.264 1440.23 266.574 1440.57 273.148C1445.04 359.54 1439.51 349.065 1439.48 350.25V829.068H3V350.25V340.502C17.0483 349.56 46.2135 409.776 47.9643 414.002C51.5467 422.65 92.7561 426.355 100.973 424.502L80.4727 424.168C118.1 424.168 121.901 428.776 151.001 452.002C157.102 456.869 160.725 475.594 155.386 483.889C152.548 488.299 151.134 516.063 151.001 522.002C150.64 538.091 120.744 538.033 126.473 557.002C131.391 573.283 151.001 578.162 151.001 606.404C151.001 634.598 160.266 638.453 179.471 651.095C190.42 658.302 231.557 651.2 247.12 661.176C247.211 661.234 271.348 671.181 271.587 671.258C289.309 677.037 298.533 684.113 318.718 688.194C338.08 692.108 337.074 693.886 357.741 693.886C374.418 693.886 384.531 682.267 400.639 675.959C403.833 674.707 418.055 664.145 423.018 663.072C450.611 657.113 475.863 646.934 500.786 668.029C510.372 676.144 512.559 679.618 526.427 680.915C552.632 683.366 550.247 675.672 572.384 667.773C585.999 662.916 594.437 655.166 611.993 651.604C635.545 646.823 634.375 650.989 655.046 663.894C665.709 670.553 661.105 672.717 679.361 677.375C693.159 680.893 689.936 677.55 703.45 685.956C712.122 691.35 725.263 693.886 735.41 693.886C768.401 693.886 762.981 693.517 794.879 677.29C828.241 660.316 832.002 667.122 866.475 667.122C874.802 667.122 883.129 667.122 891.452 667.122L891.451 667.124Z" fill="#1E4CA1"/>
</svg>
