<svg width="1440" height="830" viewBox="0 0 1440 830" fill="none" xmlns="http://www.w3.org/2000/svg">
<g clip-path="url(#clip0_331_45987)">
<path fill-rule="evenodd" clip-rule="evenodd" d="M997.803 648.961C998.022 651.169 997.286 649.815 999.581 651.443C1004.02 654.581 1004.17 651.231 1009.38 652.593C1008.01 656.293 1007.31 653.005 1004.63 654.627C1006.16 656.42 1006.83 656.273 1010.16 656.013C1011.77 653.902 1011.44 653.128 1014.39 653.379C1014.17 657.313 1013.7 653.662 1012.99 657.155C1017.13 656.405 1015.49 654.62 1017.39 653.764C1019.49 652.825 1019.81 654.58 1021.09 655.598C1018.98 656.005 1018.79 655.221 1017.36 655.914C1018.51 659.836 1018.55 656.91 1021.96 658.485C1021.61 660.034 1022.95 659.487 1019.37 658.96C1020.23 661.294 1018.01 659.981 1021.43 660.815C1022.29 661.025 1022.04 660.546 1023.54 660.883C1025.92 665.01 1023.52 666.429 1024.11 669.856C1030.21 669.837 1028.9 670.118 1028.12 666.021C1027.07 660.49 1029.11 662.223 1032.43 662.374L1031.6 659.798C1031.52 659.078 1031.77 657.701 1031.77 656.525C1029.98 657.043 1031.24 656.673 1030.2 657.611C1030.17 657.638 1029.75 658.355 1029.18 658.825C1028.36 656.366 1030.39 655.372 1032.97 655.413C1032.38 660.719 1033.24 658.959 1034.67 662.492C1036.42 661.624 1035.14 662.365 1035.89 661.409L1038.01 662.125C1038.67 658.491 1035.78 659.925 1035.29 657.525C1037.45 658.288 1038.93 661.516 1041.88 659.772C1040.9 657.969 1041.07 658.788 1039.02 657.615C1042.13 657.012 1040.39 657.331 1040.42 656.202C1036.49 652.435 1037.72 655.582 1035.11 653.75L1040.11 653.122C1040.56 653.669 1040.53 653.569 1040.99 654.397C1041.09 654.567 1041.34 655.096 1041.43 655.28C1042.75 658.192 1042.49 658.749 1046.05 658.818L1044.09 656.54L1049.46 656.327C1048.05 654.768 1045.32 654.412 1043.5 653.304C1047.39 653.023 1045.31 653.782 1048.43 653.812L1053.05 652.054C1049.79 650.255 1050.64 653.378 1047.91 652.051C1050.45 650.424 1053.12 650.987 1054.57 648.196L1053.17 647.898C1053.06 647.902 1052.86 647.921 1052.74 647.938C1051.32 648.146 1052.91 647.823 1051.23 648.708C1052.75 646.943 1052.95 647.723 1053.89 644.982C1053.77 644.913 1053.54 644.931 1053.46 644.927L1052.65 644.876C1050.29 644.876 1052.66 646.186 1051.21 644.982C1052.01 643.644 1052.65 641.746 1051.69 640.134C1051.58 640.292 1051.48 640.517 1051.41 640.646C1051.36 640.773 1051.22 640.996 1051.15 641.15C1049.73 644.136 1048.42 647.178 1044.33 646.43C1045.96 645.02 1045.95 645.92 1047.16 644.953C1048.89 643.562 1048.7 641.818 1051.26 640.145C1053.54 638.67 1052.57 639.94 1053.54 637.907C1051.25 636.721 1048.29 638.672 1047.23 640.556C1044.24 645.906 1045.2 641.918 1042.41 645.339C1041.69 642.945 1039.42 644.62 1043.32 643.383C1046.1 642.496 1046.08 642.286 1046.04 638.863C1042.84 640.118 1045.67 638.363 1043.33 641.357C1042.13 641.162 1042.5 640.175 1041.04 639.547C1040.21 642.156 1039.73 641.777 1038.66 644.209C1037.48 646.878 1038.36 647.845 1035.98 647.887C1036.89 645.61 1037.85 642.564 1039.18 640.822C1041.46 637.842 1044.06 639.357 1047.84 638.779C1049.28 637.61 1049.14 637.134 1049.81 636.658C1053.43 634.072 1053.06 635.894 1053.51 629.904C1051.69 631.441 1052.61 632.215 1051.05 634.306C1048.51 632.318 1052.01 630.664 1050.41 627.696C1049.03 629.125 1048.93 630.298 1048.43 632.848C1047.85 635.784 1048.55 636.504 1046.18 636.881C1046.97 634.388 1048.9 631.577 1049.14 628.7C1049.44 624.999 1049.04 626.547 1048.19 625.722C1047.39 627.477 1047.12 629.82 1046.36 631.942C1045.82 633.44 1044.71 635.704 1044.09 637.256L1043.65 636.373C1043.62 636.259 1043.53 636.052 1043.52 635.926L1048.73 623.117L1046.42 622.336C1046.98 621.894 1047.62 621.939 1047.85 620.396C1048.55 615.622 1048.32 619.149 1046.83 617.771C1046.2 620.524 1045.05 621.567 1043.97 623.275C1043.58 622.287 1043.73 622.262 1043.37 621.272L1039.62 626.496C1037.49 630.893 1040.68 631.493 1037.54 633.382C1036.8 632.424 1036.68 634.915 1036.95 630.924C1037.2 627.077 1044.02 618.68 1038.83 615.704C1038.25 617.021 1038.67 623.093 1036.35 627.732C1034.86 630.694 1034.93 631.011 1034.96 634.725C1034.98 638.345 1034.65 638.128 1032.3 639.837C1034.14 645.439 1032.46 642.527 1030.3 649.23C1029.33 647.282 1031.6 642.208 1031.7 639.929C1031.88 635.747 1031.28 639.187 1032.64 636.41L1036.02 624.872L1034.97 616.103C1030.81 620.133 1036.63 623.204 1031.94 628.947C1031.47 624.691 1033.29 621.165 1031.71 617.335C1031.66 617.205 1031.47 617.122 1031.42 616.841C1031.38 616.552 1031.23 616.502 1031.11 616.346C1029.01 620.68 1032.66 627.844 1028.58 630.976C1029.67 627.301 1030.22 624.427 1027.9 621.56C1027.81 621.715 1027.75 621.937 1027.72 622.053L1027.8 625.98L1025.58 626.334C1026.56 628.321 1026.47 627.022 1026.86 628.087L1026.61 630.141C1022.46 625.854 1025.87 624.358 1025.15 620.085C1023.19 621.066 1024.88 620.314 1023.39 622.246C1021.84 619.967 1023.71 621.014 1021.61 620.047L1024.13 630.098C1025.64 632.887 1029.15 632.307 1029.38 636.199C1027.68 635.447 1028.86 635.355 1026.64 634.718C1027.01 638.658 1027.96 636.977 1029.44 640.2C1029.22 640.061 1028.37 639.519 1028.2 639.495L1026.41 639.838C1027.17 642.755 1028.35 641.736 1027.91 645.006C1027.46 648.429 1027.38 645.713 1025.52 646.359C1025.51 649.171 1027.16 650.235 1027.16 654.579C1025.23 652.02 1027.13 651.827 1023.26 651.087C1024.01 653.077 1026.75 656.306 1025.97 658.562C1023.54 656.837 1025.43 658.384 1024.64 656.614L1021.41 650.769C1023.04 647.685 1025.74 645.09 1025.98 640.361C1026.24 635.56 1026.71 632.032 1021.69 630.469C1023.13 635.24 1024.05 631.598 1023.62 637.79C1023.46 640.105 1023.61 643.232 1022.11 644.975L1021.98 641.166C1022.01 634.792 1019.75 637.013 1022.22 628.906C1021.26 627.154 1021.06 625.847 1019.33 624.916L1019 629.482L1015.86 623.45C1015.83 623.199 1015.76 623.12 1015.68 622.964C1014.96 623.86 1015.18 622.903 1015.04 624.468C1014.7 627.946 1014.41 622.716 1015.12 625.421C1015.38 626.461 1015.49 626.15 1016.33 626.977L1015.69 627.009C1014.03 627.006 1015.12 626.453 1013.6 626.977C1014.22 630.265 1013.9 628.153 1017.19 630.023C1017.33 632.264 1017.75 632.265 1018.01 633.425C1018.34 634.906 1017.72 634.956 1018.29 637.038L1019.38 641.124C1019.36 641.123 1019.33 641.088 1019.32 641.085L1017.63 644.802L1016.12 645.161C1013.31 642.071 1020.37 633.191 1013.07 629.579C1013.12 633.732 1016.8 636.928 1011.29 638.546C1012.33 639.898 1013.15 639.408 1013.59 641.124C1012.15 641.91 1011.65 641.102 1010.19 640.343C1010.1 637.398 1011.66 636.303 1012.08 633.389C1012.54 630.181 1011.3 628.872 1010.84 625.967C1008.66 627.044 1010.46 626.111 1009.53 627.549C1007.8 630.236 1010.46 626.92 1007.4 628.906C1008.49 632.075 1008.14 629.021 1010.25 632.12L1007.51 632.661C1007.43 632.503 1007.16 632.695 1007 632.765C1008.21 634.989 1008.71 633.621 1009.41 635.98C1008.72 637.239 1008.63 637.737 1007.35 638.339C1004.73 635.973 1007.7 631.895 1004.1 629.929C1004.03 630.07 1003.98 630.287 1003.97 630.385L1004.05 634.047C1004.15 636.311 1003.65 635.93 1004.11 638.552C1005.72 641.814 1010.42 641.159 1012.93 645.79C1014.38 648.472 1016.43 648.597 1017.02 650C1017.71 651.632 1016.06 651.881 1014.76 648.723C1014.55 648.791 1014.3 648.954 1014.16 649.012C1012.15 649.851 1013.64 650.147 1012.34 649.392C1011.76 647.133 1012.24 645.982 1010.47 644.419C1009.88 643.896 1009.2 643.505 1008.5 643.127C1006.48 642.04 1009.28 642.685 1005.73 642.02C1006.33 645.165 1005.97 645.132 1009.09 645.989C1007.79 646.585 1008.31 646.219 1007.71 647.553C1010.86 649.549 1010.28 646.662 1010.47 650.936C1007.22 648.717 1006.32 647.463 1005.25 643.899C1004.75 642.207 1003.88 640.675 1003.37 639.336C1002.1 636.039 1003.39 636.848 1000.89 635.779C1000.8 635.896 1000.77 636.107 1000.76 636.186L1000.67 637.43C1000.7 637.63 1001.18 638.535 1001.32 639.194C999.112 640.182 1000.44 636.572 998.834 640.193C1002.24 642.826 1001.07 639.144 1003.7 645.155C997.973 644.555 1003.65 643.596 998.786 642.495C999.647 650.339 1003.47 643.522 1005.26 650.122C1002.76 649.441 1004.18 649.133 1001.59 648.791C1002.08 650.464 1001.61 649.841 1003.08 651.183C1000.26 651.506 1001.29 649.944 997.801 648.963L997.803 648.961Z" fill="#193973"/>
<path fill-rule="evenodd" clip-rule="evenodd" d="M159.292 599.567C164.749 602.828 165.667 605.614 169.096 610.804C165.115 612.133 168.966 608.673 166.031 610.538C169.446 614.937 170.765 610.772 170.974 619.799L167.555 618.398C169.063 621.886 169.853 619.5 171.958 626.189C173.588 631.364 176.024 630.198 173.879 635.562L170.403 631.151C170.315 631.021 170.16 630.789 170.022 630.622C170.417 634.155 174.11 640.978 168.94 643.504C165.185 640.018 169.313 631.876 168.319 626.654L167.963 625.474C166.32 628.809 167.432 635.421 165.696 638.768C163.255 633.473 166.826 617.23 165.692 615.244L163.836 620.121C161.948 619.603 162.913 619.39 162.01 619.603C162.699 623.657 163.599 625.376 163.537 630.542C160.895 628.781 157.625 624.533 158.365 620.593C159.205 616.122 162.403 617.128 162.108 608.315L160.411 612.894C159.878 614.956 160.326 614.991 158.444 616.405C158.949 613.982 160.238 610.425 158.896 607.982L157.88 613.362L155.377 610.34C155.526 612.843 156.807 614.63 157.024 616.674C157.327 619.499 156.152 620.724 157.11 624.453C158.419 629.561 162.071 629.695 163.095 635.885C158.907 635.358 158.963 635.312 156.687 633.231C157.657 640.012 164.4 631.91 165.173 645.462C162.661 644.202 163.846 644.173 161.449 643.801C164.431 650.396 174.1 651.026 174.374 659.587C174.473 662.649 174.042 666.42 173.957 669.616C164.827 663.527 172.73 664.063 170.651 655.42C169.081 656.228 171.463 655.107 169.811 656.255C168.298 657.307 170.408 656.861 167.895 657.256C165.782 655.089 167.184 655.457 165.696 653.287C164.055 656.299 167.368 658.035 168.795 659.641L167.179 664.641L164.266 661.213C163.899 667.231 169.515 666.671 171.909 671.52C173.089 673.908 172.418 675.307 174.348 678.235C177.48 682.989 175.102 679.663 175.696 685.049C186.975 685.691 173.856 682.451 190.38 670.739C194.152 668.064 194.129 670.3 195.759 665.572C193.281 667.433 195.205 667.138 192.137 667.996L191.139 664.278C189.896 670.045 189.893 670.471 185.211 672.352C189.556 657.914 196.583 663.049 197.152 659.225L191.378 660.141C193.717 656.014 193.712 657.61 196.325 655.516C199.433 653.028 197.794 651.37 197.851 648.073C195.305 651.654 199.127 652.188 195.159 654.397L193.882 649.026C191.307 655.076 195.723 653.789 190.823 657.807C187.974 651.455 190.06 650.872 192.291 645.374C193.183 643.174 193.105 643.278 194.216 641.509L192.438 641.337C191.582 641.019 191.437 639.432 190.98 641.671C190.166 645.655 192.146 644.4 189.115 648.274L186.843 646.05C186.277 645.182 185.885 644.177 185.433 643.02C187.849 639.103 187.654 639.676 191.703 637.295C193.968 635.965 197.484 635.176 197.88 632.041C196.356 633.755 196.445 633.899 193.703 634.119C193.807 631.544 194.932 628.892 193.589 626.798C193.169 629.489 192.655 634.05 190.626 635.764C187.202 629.478 190.544 628.538 190.944 622.476L188.683 626.081C187.999 627.876 188.093 628.634 187.604 630.257C187.434 630.187 187.199 629.834 187.132 629.968C187.066 630.103 186.762 629.738 186.671 629.668C186.581 629.596 186.341 629.428 186.232 629.338L183.636 627.051C185.877 633.728 192.304 633.081 185.558 639.989C183.917 638.936 182.25 637.705 180.849 636.386C180.903 631.462 181.648 634.521 183.023 630.934H179.769C179.481 632.66 179.8 636.107 177.898 636.556L176.139 636.976C179.693 640.016 181.055 637.382 182.743 641.072C185.979 648.155 191.519 658.566 186.085 665.472C185.996 665.326 183.019 657.276 182.631 656.121C181.372 652.355 179.318 651.189 183.648 647.374L181.284 645.363C181.19 645.284 180.985 645.114 180.844 644.983C180.824 646.588 181.082 646.53 180.567 648.072C179.559 651.087 180.513 648.94 179.294 649.834C176.538 644.321 180.347 645.716 179.809 641.114L177.598 644.171C176.676 643.112 176.811 643.222 175.052 642.551L177.392 649.445C178.625 654.034 180.008 653.02 181.266 656.713L176.794 653.522C178.633 660.265 187.003 659.279 182.896 671.577C182.114 673.92 180.974 675.713 178.942 677.065C179.625 669.451 182.536 672.787 182.221 664.225C181.105 666.41 181.932 668.195 179.697 669.173L181.4 661.876C181.44 661.872 181.277 661.88 181.253 661.979C181.228 662.082 181.004 662.046 180.968 662.049C178.953 662.289 182.03 662.936 179.632 662.055L177.363 660.446C177.233 660.34 177.031 660.114 176.83 659.999C177.672 662.739 178.263 662.843 179.014 664.927L177.097 664.631C178.891 669.922 178.636 669.588 177.256 675.647C173.977 671.395 176.965 661.246 176.041 656.046C174.682 648.402 169.391 648.269 173.167 640.666C175.495 635.984 181.3 623.901 185.855 621.621C190.188 619.453 191.07 622.577 192.386 617.176C192.21 617.289 191.971 617.285 191.886 617.553C191.396 619.106 188.259 619.513 186.835 619.763C188.157 615.775 189.854 611.175 190.07 606.062C187.336 609.001 188.643 616.607 184.856 618.629C181.497 612.877 187.495 609.713 187.127 603.464C185.583 605.583 185.519 606.374 184.609 609.08C182.551 605.502 183.17 602.9 183.182 598.262C179.575 602.836 183.073 607.967 182.509 613.613C180.922 611.785 180.781 610.645 180.136 608.096C177.54 613.011 185.114 617.423 182.522 622.104C179.806 621.944 178.599 615.449 177.783 613.628C175.679 616.894 179.668 620.963 180.809 624.136C179.586 626.713 178.104 629.515 175.968 630.969C174.219 626.969 174.562 626.004 178.454 624.026C178.338 623.912 178.127 623.594 178.084 623.708L175.183 619.298C175.145 622.72 175.877 623.121 174.006 625.559C169.435 618.856 178.329 609.588 176.965 598.935L175.802 604.084C173.081 603.586 175.795 602.42 173.375 602.986C174.164 605.331 175.248 605.666 174.615 608.755L171.739 613.468C170.441 610.279 169.364 608.654 169.871 605.751C170.535 601.949 173.02 600.689 171.739 598.123L169.85 601.125C168.057 597.918 170.002 599.086 167.175 597.47C167.663 600.246 169.181 603.492 167.962 605.685C165.216 603.368 162.507 600.13 161.493 596.422L160.987 597.498C159.863 599.465 159.506 598.261 159.292 599.567L159.292 599.567Z" fill="#193973"/>
<path fill-rule="evenodd" clip-rule="evenodd" d="M1206.34 506.351C1213.68 510.732 1214.91 514.474 1219.52 521.446C1214.17 523.231 1219.34 518.585 1215.41 521.088C1219.99 526.994 1221.76 521.404 1222.04 533.525L1217.44 531.646C1219.48 536.331 1220.54 533.127 1223.35 542.109C1225.56 549.063 1228.83 547.496 1225.94 554.701L1221.27 548.775C1221.16 548.602 1220.95 548.288 1220.76 548.064C1221.29 552.808 1226.25 561.975 1219.31 565.367C1214.26 560.687 1219.81 549.75 1218.47 542.735L1218 541.151C1215.79 545.63 1217.28 554.509 1214.94 559.005C1211.68 551.895 1216.47 530.077 1214.94 527.409L1212.45 533.959C1209.92 533.265 1211.22 532.977 1210 533.265C1210.93 538.71 1212.14 541.018 1212.06 547.955C1208.5 545.593 1204.11 539.885 1205.1 534.594C1206.23 528.588 1210.53 529.939 1210.13 518.102L1207.85 524.252C1207.14 527.022 1207.73 527.07 1205.21 528.968C1205.88 525.714 1207.62 520.938 1205.82 517.655L1204.45 524.88L1201.09 520.825C1201.29 524.185 1203.01 526.584 1203.3 529.329C1203.71 533.124 1202.14 534.767 1203.42 539.779C1205.18 546.639 1210.08 546.819 1211.46 555.133C1205.83 554.425 1205.91 554.363 1202.85 551.568C1204.16 560.676 1213.2 549.793 1214.25 567.999C1210.88 566.305 1212.47 566.266 1209.25 565.766C1213.25 574.625 1226.24 575.469 1226.61 586.968C1226.74 591.081 1226.16 596.148 1226.04 600.437C1213.78 592.262 1224.4 592.98 1221.61 581.371C1219.5 582.457 1222.7 580.951 1220.48 582.492C1218.45 583.904 1221.28 583.305 1217.91 583.838C1215.07 580.926 1216.95 581.42 1214.94 578.506C1212.75 582.551 1217.19 584.885 1219.12 587.04L1216.95 593.756L1213.04 589.152C1212.54 597.235 1220.08 596.483 1223.3 602.997C1224.88 606.203 1223.98 608.084 1226.57 612.017C1230.77 618.401 1227.59 613.934 1228.38 621.169C1243.53 622.029 1225.91 617.679 1248.1 601.947C1253.17 598.356 1253.14 601.359 1255.33 595.008C1252 597.508 1254.58 597.112 1250.46 598.263L1249.13 593.269C1247.45 601.016 1247.45 601.589 1241.16 604.114C1247 584.719 1256.43 591.619 1257.2 586.482L1249.45 587.712C1252.59 582.169 1252.58 584.312 1256.09 581.501C1260.27 578.158 1258.06 575.931 1258.14 571.504C1254.73 576.312 1259.85 577.03 1254.53 579.997L1252.81 572.785C1249.35 580.909 1255.28 579.181 1248.7 584.578C1244.88 576.046 1247.68 575.261 1250.66 567.88C1251.88 564.923 1251.77 565.063 1253.26 562.688L1250.87 562.455C1249.72 562.028 1249.52 559.897 1248.9 562.904C1247.82 568.255 1250.47 566.572 1246.41 571.775L1243.35 568.788C1242.6 567.621 1242.07 566.271 1241.46 564.718C1244.71 559.456 1244.45 560.226 1249.88 557.028C1252.92 555.241 1257.65 554.179 1258.17 549.971C1256.13 552.272 1256.26 552.465 1252.57 552.762C1252.71 549.302 1254.22 545.742 1252.41 542.928C1251.85 546.543 1251.16 552.669 1248.43 554.971C1243.83 546.527 1248.32 545.265 1248.86 537.122L1245.83 541.965C1244.91 544.377 1245.04 545.394 1244.38 547.575C1244.16 547.48 1243.83 547.008 1243.74 547.188C1243.65 547.367 1243.24 546.877 1243.12 546.781C1243.01 546.688 1242.69 546.46 1242.54 546.34L1239.04 543.269C1242.06 552.237 1250.69 551.368 1241.63 560.647C1239.43 559.232 1237.19 557.578 1235.31 555.806C1235.38 549.194 1236.38 553.301 1238.22 548.483H1233.85C1233.47 550.803 1233.88 555.432 1231.34 556.034L1228.98 556.6C1233.75 560.682 1235.58 557.146 1237.85 562.102C1242.19 571.613 1249.64 585.597 1242.34 594.874C1242.22 594.679 1238.22 583.867 1237.69 582.315C1236 577.257 1233.25 575.69 1239.06 570.564L1235.89 567.865C1235.77 567.759 1235.49 567.53 1235.3 567.354C1235.28 569.51 1235.62 569.432 1234.92 571.506C1233.57 575.554 1234.85 572.67 1233.21 573.87C1229.5 566.465 1234.63 568.339 1233.91 562.155L1230.94 566.262C1229.69 564.843 1229.88 564.988 1227.52 564.087L1230.66 573.347C1232.32 579.51 1234.17 578.149 1235.86 583.109L1229.86 578.823C1232.32 587.88 1243.57 586.557 1238.05 603.074C1237 606.221 1235.48 608.629 1232.74 610.443C1233.66 600.217 1237.57 604.699 1237.14 593.199C1235.64 596.134 1236.76 598.532 1233.75 599.844L1236.06 590.045C1236.1 590.037 1235.88 590.048 1235.84 590.181C1235.81 590.318 1235.51 590.27 1235.47 590.275C1232.76 590.596 1236.89 591.466 1233.67 590.282L1230.63 588.122C1230.44 587.98 1230.17 587.676 1229.91 587.522C1231.04 591.201 1231.83 591.342 1232.84 594.141L1230.26 593.742C1232.67 600.85 1232.32 600.399 1230.49 608.537C1226.07 602.826 1230.1 589.195 1228.85 582.212C1227.02 571.945 1219.91 571.765 1224.99 561.555C1228.11 555.265 1235.91 539.035 1242.03 535.972C1247.84 533.059 1249.04 537.257 1250.8 530.002C1250.56 530.153 1250.24 530.149 1250.13 530.509C1249.47 532.595 1245.26 533.142 1243.35 533.478C1245.11 528.121 1247.41 521.941 1247.69 515.073C1244.02 519.022 1245.78 529.238 1240.69 531.952C1236.18 524.227 1244.23 519.976 1243.74 511.583C1241.67 514.431 1241.58 515.493 1240.36 519.127C1237.59 514.322 1238.42 510.827 1238.43 504.598C1233.59 510.739 1238.28 517.633 1237.54 525.215C1235.4 522.761 1235.22 521.229 1234.35 517.805C1230.85 524.406 1241.04 530.333 1237.55 536.621C1233.91 536.405 1232.28 527.683 1231.19 525.237C1228.36 529.623 1233.72 535.089 1235.24 539.351C1233.62 542.81 1231.62 546.575 1228.75 548.528C1226.4 543.156 1226.85 541.861 1232.09 539.201C1231.92 539.048 1231.66 538.622 1231.59 538.774L1227.69 532.851C1227.64 537.448 1228.63 537.987 1226.11 541.262C1219.98 532.258 1231.92 519.808 1230.1 505.501L1228.53 512.417C1224.87 511.746 1228.53 510.182 1225.27 510.939C1226.33 514.09 1227.79 514.543 1226.93 518.691L1223.07 525.02C1221.33 520.738 1219.88 518.555 1220.56 514.655C1221.45 509.55 1224.79 507.857 1223.07 504.41L1220.54 508.443C1218.12 504.134 1220.74 505.704 1216.94 503.534C1217.59 507.262 1219.63 511.623 1218 514.566C1214.31 511.457 1210.68 507.105 1209.32 502.124L1208.63 503.569C1207.11 506.213 1206.64 504.593 1206.34 506.349L1206.34 506.351Z" fill="#193973"/>
<path fill-rule="evenodd" clip-rule="evenodd" d="M94.051 430.678C93.7348 429.398 93.2774 427.99 92.6213 426.498C93.6449 421.914 95.4771 416.163 98.5981 412.898C104.356 406.873 121.563 407.248 121.563 407.248C121.563 407.248 132.074 408.501 136.187 400.249C140.3 391.996 134.221 386.91 134.221 386.91C123.239 380.616 118.213 390.958 118.213 390.958C131.043 380.232 135.284 393.011 135.284 393.011C137.821 398.421 129.109 406.708 121.6 404.277C114.09 401.846 100.277 406.342 100.277 406.342C93.8722 410.127 90.4237 415.215 88.5878 419.942C87.8653 419.048 87.0587 418.149 86.1599 417.252C89.3439 401.496 100.655 394.949 100.655 394.949C100.655 394.949 113.157 389.13 117.465 370.079C121.773 351.027 136.311 353.484 136.311 353.484C156.997 355.964 150.29 373.741 150.29 373.741C154.43 365.153 152.812 355.897 137.246 351.938C121.681 347.978 115.257 366.453 115.257 366.453C115.257 366.453 111.63 382.923 104.328 387.134C97.0262 391.344 89.016 398.471 89.016 398.471C84.9171 402.974 82.5646 408.161 81.2542 413.111L81.193 413.068C83.5824 418.673 87.6949 426.06 94.051 430.678Z" fill="#193973"/>
<path fill-rule="evenodd" clip-rule="evenodd" d="M55.404 407.293C56.6848 406.979 58.1443 406.731 59.7699 406.62C63.3557 403.586 67.5999 399.295 69.0444 395.015C71.7094 387.119 63.3942 372.051 63.3942 372.051C63.3942 372.051 57.4067 363.321 62.8087 355.849C68.2108 348.376 75.537 351.401 75.537 351.401C86.2082 358.209 79.3784 367.459 79.3784 367.459C82.9274 351.118 69.6393 353.29 69.6393 353.29C63.6698 353.552 60.3711 365.115 66.0086 370.639C71.6461 376.164 74.0732 390.486 74.0732 390.486C73.6915 397.916 70.7849 403.332 67.4495 407.151C68.5761 407.377 69.7468 407.674 70.9585 408.054C83.4383 397.923 83.9899 384.865 83.9899 384.865C83.9899 384.865 83.3436 371.091 98.2211 358.435C113.099 345.778 104.177 334.041 104.177 334.041C92.3821 316.867 79.7466 331.056 79.7466 331.056C85.4335 323.403 94.3835 320.543 105.113 332.494C115.843 344.445 102.458 358.709 102.458 358.709C102.458 358.709 89.5504 369.564 89.2088 377.985C88.8674 386.407 86.2705 396.81 86.2705 396.81C84.1831 402.53 80.6799 407.021 76.9028 410.478L76.9697 410.512C70.8958 410.996 62.444 410.781 55.404 407.293Z" fill="#193973"/>
<path fill-rule="evenodd" clip-rule="evenodd" d="M14.0646 331.412C13.2423 330.931 12.4179 330.375 11.5913 329.728L14.0446 328.791C14.0446 328.791 15.4184 329.634 16.565 330.989C16.9119 331.399 17.2622 331.625 17.5823 331.741C17.91 331.762 18.2475 331.781 18.594 331.798C18.7846 331.752 18.8978 331.689 18.8978 331.689C18.8978 331.689 19.6661 330.377 18.7084 329.341C17.7508 328.304 16.3386 327.869 16.3386 327.869L20.116 326.046C20.116 326.046 21.5277 326.481 23.0604 327.819C24.5926 329.156 25.9937 328.548 25.9937 328.548C25.9937 328.548 27.0126 327.63 25.5498 326.135C24.0869 324.64 22.1513 324.964 22.1513 324.964C22.1513 324.964 24.3019 324.17 27.5344 322.127C28.7057 322.452 29.2501 323.268 30.9806 324.311C33.03 325.546 33.8808 323.941 33.8808 323.941C33.8808 323.941 34.0919 322.289 32.3328 321.464C31.2918 320.977 30.043 320.959 29.1973 321.026C30.3924 320.198 31.6897 319.222 33.0491 318.079C33.754 318.582 35.0989 319.412 36.5132 319.583C38.5736 319.833 39.4355 319.27 39.8364 318.362C40.2374 317.454 38.5353 316.608 37.7071 316.667C36.8792 316.726 33.9978 317.263 33.9978 317.263L33.9957 317.264C35.4096 316.019 36.8784 314.596 38.3595 312.977L39.2027 311.572L38.3574 312.98C38.3574 312.98 43.04 313.031 43.7312 312.534C44.4224 312.038 45.1907 310.726 45.0179 309.942C44.8451 309.158 42.9741 309.228 42.1211 309.984C41.5717 310.471 40.5187 310.989 39.839 311.297C40.2854 310.77 40.7319 310.225 41.1771 309.661C41.1771 309.661 42.1356 308.388 43.3265 305.87C44.2313 305.942 46.1904 305.968 47.6439 305.063C49.5954 303.849 48.868 301.971 48.868 301.971C48.868 301.971 47.2008 301.046 46.1526 302.564C45.4805 303.538 44.5727 304.078 44.0083 304.34C44.5608 303.027 45.1324 301.471 45.661 299.676L45.6601 297.912L45.661 299.677C47.752 299.488 50.7309 296.472 50.7309 296.472C50.7309 296.472 51.8698 294.427 51.1097 293.478C50.3495 292.529 49.4617 293.364 49.4617 293.364C49.4617 293.364 48.4173 294.554 47.4967 296.317C47.008 297.254 46.5199 297.646 46.17 297.807L46.1721 297.806C46.6267 296.005 47.0268 294.002 47.3238 291.798L47.1323 290.306L47.3238 291.798C47.3238 291.798 50.8565 288.176 51.7788 287.263C52.7015 286.349 53.2152 284.972 52.4678 283.887C51.7204 282.802 50.5317 284.211 50.5317 284.211C50.5317 284.211 48.9467 286.625 48.6211 287.896C48.4232 288.671 47.9133 289.396 47.5456 289.844L47.555 289.833C47.7827 287.567 47.8993 285.11 47.858 282.464V282.447C48.6616 281.57 50.6577 279.422 51.7107 278.551C53.0488 277.444 52.2474 275.627 52.2474 275.627C52.2474 275.627 50.6556 275.066 49.6328 276.312C48.6105 277.559 47.8393 279.84 47.8393 279.84L47.8397 279.839C47.8427 278.06 47.8805 276.491 47.9448 275.104C47.981 275.007 48.9714 272.412 50.3849 271.832C51.8252 271.242 51.8788 269.945 51.8788 269.945C51.8788 269.945 51.5553 268.434 50.4611 268.988C49.3821 269.535 48.1602 272.241 48.1261 272.316C48.8037 264.567 50.4453 264.641 50.4453 264.641C50.4453 264.641 51.4749 262.737 49.9678 262.731C48.4602 262.726 47.5958 264.043 47.5958 264.043C47.5958 264.043 46.4147 266.824 46.8672 271.034C46.9923 272.2 46.9753 274.395 46.8855 276.957C46.9497 275.111 45.5699 273.857 44.508 273.388C43.4422 272.918 42.5808 273.906 42.5808 273.906C42.5808 273.906 42.0649 274.433 44.1105 275.997C46.1513 277.556 46.7548 279.93 46.7578 279.941C46.682 281.483 46.5914 283.064 46.4981 284.567C46.4956 284.563 45.1668 282.36 43.9828 281.413C42.7974 280.464 41.8968 281.435 41.8968 281.435C41.8968 281.435 41.0865 283.484 43.1311 284.622C45.1724 285.759 46.2202 288.701 46.2236 288.711C46.1104 290.322 46.0138 291.601 45.961 292.286C45.4456 291.302 44.8672 290.397 44.2449 289.903C43.2392 289.104 41.6227 288.619 41.1494 289.283C40.6762 289.947 41.8858 291.652 43.2158 291.641C44.0785 291.633 45.0949 293.189 45.6716 294.287C45.4213 295.57 44.9515 297.61 44.139 300.015C43.6853 298.324 43.0911 299.186 42.2884 297.889C41.4857 296.592 41.1286 295.123 40.5374 295.723C39.9462 296.322 39.4134 297.46 40.1424 298.662C40.6323 299.469 42.2722 301.29 43.2601 302.397C42.7561 303.653 42.1628 304.966 41.4657 306.291C41.4163 305.194 41.2759 304.144 40.9264 303.44C40.3557 302.289 39.0988 301.164 38.3881 301.564C37.6773 301.964 38.048 304.021 39.2567 304.575C40.0914 304.958 40.331 307.017 40.3638 308.245C39.138 310.274 37.6539 312.28 35.862 314.106C36.2059 312.67 36.3225 311.14 36.1191 310.06C35.8816 308.798 34.4907 307.42 33.6982 307.612C32.9053 307.805 32.7048 309.885 33.7178 310.747C34.6929 311.576 34.7622 315.037 34.6814 315.241C33.5352 316.279 32.2762 317.241 30.8938 318.094C30.8938 318.094 30.7708 318.186 30.5329 318.355C31.2692 316.975 31.8693 315.403 31.5348 314.617C31.1645 313.745 29.9064 311.976 29.1139 312.169C28.3214 312.361 28.1205 314.442 29.1339 315.303C30.1473 316.165 29.0828 319.415 28.9879 319.352L29.2348 319.246C28.1392 319.977 26.5215 321.009 24.4453 322.207C25.1267 320.68 25.4115 318.333 25.0757 317.542C24.7054 316.671 24.3083 315.943 23.5158 316.136C22.7233 316.328 21.2626 317.795 22.4534 319.264C23.4634 320.51 23.0965 322.478 22.9616 323.047C21.532 323.84 19.9278 324.687 18.1645 325.553C18.9676 324.053 19.532 321.331 18.9502 320.568C18.3522 319.785 18.0006 319.3 17.2082 319.492C16.4152 319.685 15.3537 321.127 16.5446 322.596C17.7355 324.066 16.3735 326.413 16.3735 326.413C14.7732 327.163 13.0597 327.92 11.2427 328.662C12.0514 327.182 12.414 324.702 11.8258 323.932C11.2283 323.149 9.99696 323.266 9.99696 323.266C9.99696 323.266 8.45665 324.19 9.64752 325.66C10.3949 326.582 10.3136 327.76 10.1497 328.509C9.89821 328.28 9.64625 328.046 9.39428 327.799C8.39792 326.823 7.39474 325.854 6.39242 324.899L6 328.316C6 328.316 6.32261 330.425 14.0624 331.413L14.0646 331.412ZM39.6202 311.395L39.6262 311.392L39.6883 311.364L39.6202 311.395ZM42.9285 305.828L42.9064 305.825L42.9034 305.825L42.9285 305.828ZM47.254 290.179L47.2757 290.156L47.2787 290.153L47.2536 290.179H47.254ZM46.8846 276.999C46.8518 277.925 46.8097 278.899 46.7608 279.89C46.7718 279.653 46.8195 278.611 46.8846 276.999Z" fill="#193973"/>
<path fill-rule="evenodd" clip-rule="evenodd" d="M27.6869 390.664C27.3252 389.783 27.0072 388.84 26.7429 387.824L29.2613 388.568C29.2613 388.568 29.8423 390.071 29.9312 391.845C29.958 392.381 30.0997 392.773 30.2836 393.06C30.5313 393.275 30.788 393.495 31.0527 393.719C31.2323 393.798 31.3604 393.817 31.3604 393.817C31.3604 393.817 32.7671 393.24 32.6343 391.835C32.5019 390.431 31.643 389.228 31.643 389.228L35.7519 390.07C35.7519 390.07 36.6104 391.273 37.0173 393.266C37.4242 395.258 38.9066 395.625 38.9066 395.625C38.9066 395.625 40.2737 395.513 40.0179 393.437C39.7625 391.361 38.0264 390.445 38.0264 390.445C38.0264 390.445 40.2175 391.118 44.0272 391.455C44.7609 392.424 44.6984 393.403 45.4411 395.283C46.3208 397.508 47.9709 396.748 47.9709 396.748C47.9709 396.748 49.1409 395.562 48.2429 393.84C47.7113 392.82 46.7294 392.049 46.0165 391.589C47.4683 391.656 49.092 391.667 50.8668 391.583C51.1213 392.411 51.6874 393.887 52.7076 394.88C54.1943 396.328 55.2208 396.404 56.0904 395.926C56.9599 395.447 56.1202 393.742 55.4264 393.286C54.7322 392.831 52.116 391.51 52.116 391.51L52.1139 391.509C53.9934 391.377 56.0244 391.137 58.1844 390.748L59.7068 390.143L58.1806 390.75C58.1806 390.75 61.8724 393.631 62.7232 393.655C63.574 393.68 64.9806 393.103 65.319 392.375C65.6574 391.647 64.1277 390.568 62.9913 390.651C62.2588 390.705 61.1071 390.478 60.3802 390.311C61.0548 390.162 61.7404 390 62.4367 389.822C62.4367 389.822 63.9711 389.391 66.4456 388.112C67.1215 388.718 68.6626 389.927 70.3668 390.09C72.6545 390.309 73.2159 388.375 73.2159 388.375C73.2159 388.375 72.4519 386.628 70.6971 387.199C69.5722 387.566 68.5226 387.444 67.9148 387.31C69.1512 386.601 70.5498 385.711 72.0586 384.605L73.1282 383.202L72.0578 384.606C73.8351 385.724 78.033 385.133 78.033 385.133C78.033 385.133 80.1789 384.199 80.15 382.984C80.1215 381.768 78.9097 381.893 78.9097 381.893C78.9097 381.893 77.3571 382.205 75.5555 383.049C74.5987 383.497 73.973 383.512 73.5972 383.428L73.5993 383.428C75.0528 382.273 76.5867 380.923 78.1598 379.351L78.9127 378.049L78.1598 379.351C78.1598 379.351 83.1655 378.615 84.453 378.449C85.7404 378.282 86.9845 377.5 87.0484 376.183C87.1126 374.867 85.3123 375.267 85.3123 375.267C85.3123 375.267 82.5879 376.224 81.5575 377.037C80.9301 377.533 80.0849 377.8 79.5205 377.933L79.5345 377.93C81.0906 376.267 82.6735 374.384 84.2465 372.255L84.2568 372.242C85.4272 372.033 88.3176 371.536 89.6829 371.483C91.4186 371.414 91.8834 369.484 91.8834 369.484C91.8834 369.484 90.9585 368.072 89.3897 368.442C87.8204 368.814 85.8234 370.159 85.8234 370.159L85.8247 370.158C86.9066 368.745 87.8885 367.521 88.7806 366.458C88.8683 366.403 91.23 364.941 92.7052 365.338C94.2081 365.742 95.038 364.743 95.038 364.743C95.038 364.743 95.6977 363.346 94.4911 363.123C93.3015 362.903 90.6886 364.312 90.6163 364.352C95.8565 358.603 97.1159 359.658 97.1159 359.658C97.1159 359.658 99.0899 358.769 97.8947 357.85C96.6996 356.931 95.2134 357.453 95.2134 357.453C95.2134 357.453 92.5873 358.947 90.3928 362.569C89.7846 363.572 88.4397 365.306 86.8134 367.289C87.9847 365.86 87.6481 364.026 87.0884 363.009C86.5266 361.988 85.2429 362.251 85.2429 362.251C85.2429 362.251 84.513 362.357 85.1905 364.841C85.866 367.32 84.9067 369.572 84.902 369.583C83.9065 370.763 82.8748 371.965 81.8886 373.103C81.889 373.098 82.1691 370.541 81.8026 369.069C81.4353 367.596 80.1308 367.822 80.1308 367.822C80.1308 367.822 78.2441 368.958 79.1783 371.104C80.1113 373.247 79.1596 376.221 79.1566 376.23C78.0887 377.443 77.2362 378.401 76.7787 378.913C76.9664 377.818 77.0553 376.748 76.8604 375.978C76.5455 374.733 75.5546 373.366 74.7757 373.607C73.9964 373.848 73.9241 375.937 74.9886 376.735C75.6789 377.252 75.5431 379.105 75.3358 380.328C74.3582 381.196 72.7473 382.533 70.6417 383.953C71.307 382.333 70.3119 382.658 70.4604 381.14C70.6094 379.622 71.2167 378.237 70.383 378.355C69.5492 378.474 68.4354 379.055 68.286 380.452C68.1855 381.391 68.3843 383.834 68.4979 385.313C67.3351 386.006 66.0668 386.689 64.7091 387.32C65.3356 386.418 65.8608 385.498 66.0102 384.726C66.2545 383.466 65.9383 381.808 65.1304 381.695C64.3226 381.582 63.3693 383.442 63.9936 384.616C64.4248 385.427 63.3663 387.21 62.6478 388.205C60.4427 389.074 58.0457 389.768 55.5132 390.133C56.6581 389.2 57.6792 388.054 58.1725 387.072C58.7492 385.925 58.4798 383.986 57.7328 383.658C56.9859 383.33 55.5639 384.863 55.8469 386.162C56.1193 387.413 54.0742 390.206 53.8861 390.319C52.3454 390.449 50.7612 390.45 49.1448 390.289C49.1448 390.289 48.9911 390.287 48.6996 390.277C50.122 389.627 51.5529 388.741 51.764 387.913C51.9981 386.996 52.0713 384.827 51.3243 384.499C50.5774 384.171 49.1554 385.704 49.4384 387.003C49.7215 388.302 46.9035 390.24 46.866 390.133L47.1269 390.199C45.813 390.115 43.9003 389.954 41.5228 389.647C42.9904 388.847 44.6418 387.153 44.8541 386.321C45.0882 385.404 45.2142 384.584 44.4677 384.257C43.7207 383.929 41.6701 384.209 41.725 386.099C41.7718 387.703 40.2864 389.044 39.834 389.415C38.2162 389.178 36.4274 388.877 34.5002 388.497C36.0486 387.791 38.1486 385.97 38.1486 385.011C38.1486 384.025 38.1635 383.426 37.4165 383.098C36.6695 382.77 34.9509 383.273 35.0062 385.164C35.0611 387.054 32.5547 388.093 32.5547 388.093C30.8271 387.719 29.0059 387.281 27.1115 386.769C28.6522 386.083 30.4449 384.331 30.4449 383.362C30.4449 382.377 29.3949 381.723 29.3949 381.723C29.3949 381.723 27.6103 381.523 27.6652 383.414C27.6997 384.6 26.9204 385.487 26.3356 385.984C26.2743 385.649 26.2164 385.31 26.1662 384.961C25.9662 383.581 25.7563 382.202 25.5397 380.834L23.1541 383.313C23.1541 383.313 22.1318 385.185 27.6844 390.666L27.6869 390.664ZM60.1465 390.256L60.1529 390.257L60.2188 390.273L60.1465 390.256ZM66.1536 387.838L66.1375 387.822L66.1353 387.82L66.1536 387.838V387.838ZM79.0859 378.022L79.1179 378.017L79.1221 378.016L79.0859 378.022ZM86.7887 367.32C86.2005 368.037 85.5762 368.785 84.9365 369.543C85.0884 369.362 85.7592 368.562 86.7887 367.32Z" fill="#193973"/>
<path fill-rule="evenodd" clip-rule="evenodd" d="M18.3308 336.693C18.4955 337.213 18.702 337.743 18.9586 338.287L19.7915 337.036C19.7915 337.036 19.4949 336.163 18.8833 335.352C18.6981 335.106 18.6164 334.882 18.5922 334.689C18.6219 334.503 18.6539 334.313 18.6879 334.117C18.7381 334.016 18.7871 333.961 18.7871 333.961C18.7871 333.961 19.6162 333.698 20.0737 334.364C20.5308 335.029 20.5955 335.872 20.5955 335.872L22.0903 333.994C22.0903 333.994 22.026 333.151 21.4731 332.127C20.9207 331.103 21.437 330.398 21.437 330.398C21.437 330.398 22.0784 329.945 22.7279 330.951C23.3773 331.956 22.9517 332.995 22.9517 332.995C22.9517 332.995 23.6668 331.895 25.2156 330.349C25.182 329.655 24.7951 329.247 24.4316 328.15C24.0013 326.85 25.0049 326.578 25.0049 326.578C25.0049 326.578 25.954 326.669 26.1915 327.755C26.3324 328.397 26.1843 329.096 26.04 329.56C26.6525 328.998 27.362 328.397 28.1715 327.783C27.9795 327.326 27.6863 326.47 27.7693 325.659C27.8906 324.478 28.3136 324.068 28.8712 323.959C29.4283 323.851 29.6858 324.907 29.5483 325.362C29.4104 325.816 28.7465 327.357 28.7465 327.357L28.7456 327.358C29.6194 326.726 30.5996 326.086 31.69 325.464L32.5809 325.171L31.6879 325.465C31.6879 325.465 32.2514 322.845 32.6162 322.522C32.9809 322.199 33.81 321.936 34.2259 322.131C34.6413 322.327 34.3663 323.362 33.8364 323.742C33.4951 323.988 33.0724 324.51 32.8149 324.85C33.1656 324.668 33.5261 324.487 33.8973 324.31C33.8973 324.31 34.7289 323.936 36.285 323.59C36.359 323.075 36.5923 321.979 37.2805 321.282C38.2045 320.346 39.1609 320.99 39.1609 320.99C39.1609 320.99 39.4665 322.037 38.4867 322.43C37.8581 322.682 37.4418 323.12 37.2243 323.402C38.0275 323.26 38.9681 323.138 40.0364 323.07L41.0208 323.293L40.0355 323.069C40.4054 321.926 42.4653 320.645 42.4653 320.645C42.4653 320.645 43.7503 320.268 44.184 320.812C44.6177 321.356 44.0397 321.746 44.0397 321.746C44.0397 321.746 43.2438 322.179 42.1427 322.47C41.5579 322.624 41.2779 322.847 41.1438 323.022L41.1447 323.021C42.207 322.995 43.3757 323.025 44.6432 323.138L45.4515 323.433L44.6428 323.138C44.6428 323.138 47.1105 321.624 47.737 321.224C48.3635 320.825 49.1969 320.712 49.708 321.267C50.2192 321.821 49.2824 322.306 49.2824 322.306C49.2824 322.306 47.7353 322.886 46.9841 322.907C46.5266 322.92 46.0575 323.112 45.7609 323.261L45.7681 323.257C47.0616 323.416 48.4474 323.662 49.9191 324.019L49.9285 324.022C50.5193 323.684 51.9702 322.841 52.5895 322.363C53.3768 321.756 54.2894 322.434 54.2894 322.434C54.2894 322.434 54.4017 323.393 53.5765 323.806C52.7512 324.219 51.3811 324.361 51.3811 324.361H51.382C52.3754 324.584 53.2556 324.761 54.0378 324.901C54.0966 324.893 55.6696 324.668 56.1719 323.953C56.6834 323.224 57.4142 323.358 57.4142 323.358C57.4142 323.358 58.2165 323.729 57.7688 324.27C57.3274 324.803 55.6628 325.143 55.6169 325.152C60.0275 325.753 60.1931 324.828 60.1931 324.828C60.1931 324.828 61.3857 324.494 61.1984 325.335C61.0107 326.177 60.1667 326.494 60.1667 326.494C60.1667 326.494 58.4655 326.801 56.1731 326.017C55.5381 325.799 54.3111 325.532 52.8695 325.258C53.9076 325.456 54.4332 326.384 54.5609 327.036C54.689 327.69 54.0289 328.046 54.0289 328.046C54.0289 328.046 53.6697 328.268 53.0551 326.928C52.4422 325.592 51.1943 324.955 51.1883 324.952C50.3179 324.799 49.4242 324.65 48.5733 324.512C48.5755 324.514 49.637 325.534 50.0162 326.315C50.3954 327.096 49.74 327.476 49.74 327.476C49.74 327.476 48.4946 327.67 48.1171 326.385C47.7404 325.101 46.2312 324.145 46.2261 324.142C45.3123 324.002 44.5866 323.894 44.1976 323.836C44.6819 324.248 45.1135 324.686 45.311 325.095C45.6298 325.758 45.6962 326.721 45.2655 326.901C44.8352 327.081 44.0363 326.191 44.2108 325.45C44.324 324.97 43.5843 324.206 43.0446 323.745C42.2968 323.723 41.0987 323.727 39.6537 323.877C40.5403 324.344 39.984 324.566 40.6067 325.178C41.2294 325.79 42.004 326.175 41.5945 326.429C41.1851 326.683 40.4828 326.837 39.9044 326.278C39.5158 325.903 38.7067 324.757 38.2139 324.066C37.449 324.189 36.6412 324.354 35.8138 324.575C36.4199 324.742 36.9881 324.953 37.3371 325.237C37.907 325.701 38.3769 326.545 38.0636 326.891C37.7504 327.237 36.6493 326.77 36.4923 326.025C36.3842 325.511 35.2652 325.117 34.5847 324.944C33.2976 325.372 31.9901 325.947 30.7443 326.716C31.5896 326.706 32.4583 326.834 33.0354 327.084C33.7096 327.375 34.3029 328.326 34.0956 328.744C33.8879 329.162 32.7013 329.011 32.3489 328.336C32.0097 327.687 30.0863 327.212 29.9625 327.231C29.2385 327.739 28.5426 328.32 27.8918 328.984C27.8918 328.984 27.825 329.041 27.7007 329.153C28.5639 328.916 29.5173 328.78 29.9139 329.066C30.3532 329.383 31.1814 330.308 30.9742 330.727C30.7665 331.145 29.5798 330.994 29.2274 330.319C28.8746 329.645 26.9266 329.829 26.9495 329.89L27.0398 329.765C26.4937 330.284 25.7127 331.056 24.7819 332.064C25.7199 331.876 27.0666 332.014 27.465 332.301C27.9042 332.618 28.2604 332.931 28.0527 333.349C27.8455 333.767 26.8423 334.397 26.1728 333.547C25.6046 332.826 24.4605 332.782 24.126 332.786C23.5025 333.483 22.8275 334.272 22.1209 335.146C23.0598 334.888 24.6504 334.917 25.0019 335.338C25.3633 335.771 25.5897 336.028 25.3824 336.446C25.1747 336.864 24.2362 337.274 23.5663 336.424C22.8964 335.574 21.4148 336.037 21.4148 336.037C20.7939 336.836 20.155 337.696 19.5111 338.616C20.4393 338.352 21.869 338.464 22.2248 338.889C22.5861 339.322 22.3652 339.994 22.3652 339.994C22.3652 339.994 21.6549 340.736 20.9854 339.886C20.5649 339.353 19.8975 339.249 19.4583 339.246C19.554 339.416 19.6532 339.586 19.7592 339.757C20.178 340.437 20.5917 341.119 20.9986 341.799L19.0416 341.586C19.0416 341.586 17.9056 341.14 18.3321 336.696L18.3308 336.693ZM32.7319 324.961L32.7345 324.958L32.7575 324.927L32.7319 324.961ZM36.2565 323.818L36.2552 323.831V323.832L36.2565 323.818ZM45.5366 323.381L45.5528 323.372L45.5549 323.37L45.5366 323.381ZM52.8461 325.252C52.3247 325.154 51.7757 325.054 51.2169 324.956C51.3501 324.98 51.9378 325.085 52.8461 325.252Z" fill="#193973"/>
<path fill-rule="evenodd" clip-rule="evenodd" d="M31.8832 376.138C31.8802 376.594 31.9075 377.069 31.9717 377.567L32.957 376.787C32.957 376.787 32.946 376.015 32.6685 375.212C32.5846 374.969 32.5774 374.77 32.6076 374.61C32.6791 374.47 32.7536 374.326 32.8311 374.18C32.897 374.113 32.9502 374.081 32.9502 374.081C32.9502 374.081 33.678 374.086 33.8704 374.733C34.0628 375.381 33.8964 376.068 33.8964 376.068L35.5699 374.959C35.5699 374.959 35.7363 374.272 35.5605 373.314C35.3848 372.356 35.9776 371.929 35.9776 371.929C35.9776 371.929 36.6046 371.734 36.8621 372.701C37.12 373.669 36.5131 374.386 36.5131 374.386C36.5131 374.386 37.3656 373.695 38.9965 372.864C39.1489 372.303 38.9459 371.879 38.9399 370.912C38.9323 369.767 39.8014 369.809 39.8014 369.809C39.8014 369.809 40.533 370.126 40.4423 371.051C40.3887 371.599 40.0908 372.117 39.8563 372.449C40.4887 372.16 41.208 371.864 42.0107 371.584C41.9758 371.171 41.9631 370.415 42.238 369.791C42.6389 368.882 43.0811 368.665 43.5532 368.722C44.0247 368.779 43.9571 369.686 43.7306 370.012C43.5038 370.339 42.5785 371.393 42.5785 371.393L42.5776 371.394C43.4357 371.117 44.3806 370.86 45.4088 370.646L46.1932 370.643L45.4071 370.646C45.4071 370.646 46.5312 368.707 46.9045 368.544C47.2777 368.381 48.0055 368.385 48.286 368.648C48.5665 368.911 48.0804 369.664 47.5607 369.83C47.2258 369.937 46.7551 370.244 46.4622 370.448C46.7883 370.393 47.1215 370.342 47.4629 370.297C47.4629 370.297 48.2209 370.214 49.5484 370.339C49.7399 369.95 50.2081 369.137 50.9355 368.76C51.9118 368.253 52.5073 369.012 52.5073 369.012C52.5073 369.012 52.4804 369.924 51.5994 369.985C51.0342 370.023 50.5899 370.265 50.3443 370.433C51.0202 370.527 51.8003 370.672 52.6677 370.893L53.3934 371.325L52.6673 370.893C53.2563 370.078 55.2257 369.59 55.2257 369.59C55.2257 369.59 56.3455 369.621 56.5502 370.166C56.7549 370.711 56.1948 370.872 56.1948 370.872C56.1948 370.872 55.45 371.011 54.4987 370.959C53.9935 370.931 53.7135 371.036 53.5615 371.14L53.5623 371.14C54.4144 371.393 55.3368 371.718 56.3165 372.134L56.8834 372.578L56.3161 372.134C56.3161 372.134 58.6697 371.566 59.2716 371.409C59.873 371.253 60.5654 371.378 60.8289 371.951C61.0928 372.524 60.222 372.668 60.222 372.668C60.222 372.668 58.8413 372.731 58.2386 372.554C57.8713 372.446 57.4482 372.479 57.1737 372.52L57.1805 372.519C58.1688 372.979 59.2081 373.532 60.2875 374.196L60.2943 374.2C60.8514 374.084 62.2236 373.787 62.8395 373.567C63.6222 373.287 64.1738 374.061 64.1738 374.061C64.1738 374.061 64.0159 374.853 63.2528 374.969C62.4896 375.085 61.3626 374.845 61.3626 374.845H61.3635C62.0964 375.279 62.7514 375.646 63.3379 375.959C63.3868 375.968 64.6965 376.195 65.2808 375.754C65.8758 375.306 66.4228 375.601 66.4228 375.601C66.4228 375.601 66.9658 376.103 66.47 376.418C65.9814 376.728 64.5692 376.57 64.53 376.565C67.8847 378.181 68.2555 377.487 68.2555 377.487C68.2555 377.487 69.291 377.528 68.9245 378.15C68.5581 378.772 67.8051 378.806 67.8051 378.806C67.8051 378.806 66.3721 378.612 64.7501 377.397C64.3006 377.06 63.3932 376.531 62.3168 375.941C63.0923 376.366 63.2711 377.24 63.2042 377.792C63.1374 378.346 62.5203 378.459 62.5203 378.459C62.5203 378.459 62.1772 378.542 62.0338 377.318C61.8904 376.097 61.0617 375.268 61.0579 375.265C60.4045 374.919 59.7317 374.57 59.0907 374.241C59.092 374.243 59.6738 375.328 59.7738 376.047C59.8742 376.767 59.255 376.9 59.255 376.9C59.255 376.9 58.2139 376.733 58.245 375.613C58.276 374.495 57.3214 373.344 57.3184 373.341C56.6276 372.994 56.0777 372.721 55.7828 372.575C56.062 373.028 56.2927 373.487 56.3442 373.863C56.4272 374.473 56.2314 375.257 55.8428 375.289C55.4538 375.321 55.0478 374.407 55.3776 373.862C55.5917 373.509 55.1997 372.71 54.889 372.205C54.2995 371.994 53.3453 371.689 52.1566 371.435C52.7413 372.035 52.2417 372.069 52.5792 372.717C52.9167 373.364 53.4342 373.87 53.0427 373.967C52.6511 374.063 52.0527 374.005 51.7365 373.411C51.5237 373.012 51.1751 371.892 50.961 371.215C50.3209 371.115 49.6356 371.038 48.9197 371.001C49.3594 371.29 49.7569 371.604 49.9612 371.92C50.2953 372.436 50.4515 373.229 50.1127 373.423C49.7744 373.618 49.0185 372.963 49.0857 372.33C49.1321 371.893 48.3435 371.291 47.8463 370.977C46.7117 370.986 45.5233 371.106 44.3337 371.397C45.0092 371.607 45.6672 371.933 46.0622 372.281C46.5235 372.687 46.7504 373.596 46.4776 373.875C46.2047 374.155 45.299 373.729 45.1926 373.101C45.0896 372.497 43.6821 371.622 43.5783 371.606C42.8713 371.824 42.1674 372.107 41.4787 372.467C41.4787 372.467 41.4106 372.496 41.2834 372.552C42.0312 372.586 42.8249 372.724 43.0667 373.053C43.3348 373.418 43.7549 374.369 43.4821 374.648C43.2093 374.927 42.3036 374.501 42.1971 373.873C42.0903 373.246 40.493 372.89 40.4955 372.944L40.5994 372.868C40.0312 373.14 39.2106 373.554 38.21 374.115C39.0046 374.208 40.0406 374.664 40.284 374.996C40.5521 375.361 40.7547 375.703 40.4815 375.981C40.2087 376.261 39.2481 376.503 38.9344 375.654C38.6684 374.933 37.769 374.604 37.5018 374.52C36.8259 374.914 36.0853 375.368 35.2979 375.882C36.1117 375.918 37.3698 376.351 37.5413 376.777C37.7175 377.214 37.8312 377.478 37.5584 377.757C37.2855 378.036 36.4326 378.12 36.1189 377.271C35.8053 376.422 34.5067 376.409 34.5067 376.409C33.8066 376.884 33.0762 377.405 32.3267 377.971C33.1337 378 34.2428 378.457 34.416 378.887C34.5923 379.325 34.2432 379.803 34.2432 379.803C34.2432 379.803 33.4865 380.211 33.1728 379.361C32.9758 378.828 32.4714 378.574 32.1228 378.458C32.1556 378.618 32.1905 378.778 32.2305 378.942C32.3888 379.591 32.5416 380.24 32.6902 380.887L31.1878 380.212C31.1878 380.212 30.3991 379.564 31.8841 376.138H31.8832ZM46.3678 370.514L46.3703 370.512L46.3967 370.493L46.3673 370.514L46.3678 370.514ZM49.4675 370.513L49.4633 370.523L49.4628 370.525L49.4675 370.513ZM56.9647 372.558L56.9796 372.555L56.9817 372.555L56.9647 372.558ZM62.299 375.932C61.9095 375.719 61.4984 375.498 61.0787 375.276C61.1787 375.329 61.6192 375.565 62.299 375.932Z" fill="#193973"/>
<path fill-rule="evenodd" clip-rule="evenodd" d="M4 355.731C17.3894 360.948 9.4927 319.224 31.5 360.731C42.8937 366.096 25.5382 374.653 41 375.731C45.0165 376.013 46.5 382.731 50.5 382.731C63.6545 382.731 50.5224 391.843 62 391.231C65 390.731 70.8088 403.181 74.5726 408.231C75.8005 409.878 104.167 417.099 104.167 430.166C104.167 449.15 105.165 445.824 96.2913 462.459C86.0288 481.697 125.301 476.454 116.35 491.166C115.127 493.176 104.533 514.085 104.167 517.036C103.413 523.113 102.164 517.439 101.567 527.12C101.008 536.175 110.168 580.515 110.333 586.699C110.473 591.847 105.855 600.873 111.073 613.904C111.842 615.825 111.235 621.541 116.35 631.198C119.024 636.251 117.596 640.232 121.039 649.423C123.626 656.327 126.816 676.244 134.42 675.873C135.407 675.825 164.958 683.357 167.2 683.748C188.575 687.496 208.175 674.996 229.596 680.202C247.744 684.613 248.947 689.097 271.067 689.097C282.347 689.097 290.337 688.289 301.602 690.87C335.923 698.73 348.912 711.956 384.213 690.287C388.868 687.43 394.414 688.064 401.163 680.871C408.799 672.732 448.675 682.992 461.24 682.992C472.166 682.992 476.766 683.75 487.696 681.22C501.057 678.129 520.566 671.548 525.321 689.765C530.6 710.001 542.235 721.366 561.512 716.302C574.88 712.791 610.157 682.639 624.188 695.2C632.135 702.311 653.684 701.37 658.013 707.058C667.568 719.616 685.039 727.348 699.358 728.682C705.005 729.21 708.922 729.439 713.404 728.771C752.992 703.281 765.03 726.227 787.976 707.753C801.646 696.75 792.184 693.117 815.097 683.832C825.57 679.588 819.816 677.902 837.043 677.902C848.091 677.902 854.765 667.325 861.716 682.814C865.278 690.75 895.074 691.499 900.972 687.144C905.481 683.812 940.573 678.5 944.455 681.971C954.763 691.196 962.472 679.937 971.215 679.937C991.497 679.937 985.194 660.871 1000.66 661.626C1004.21 661.801 1019.52 657.063 1027.57 660.347C1039.34 665.146 1066.72 652.256 1071.14 652.469C1097.27 653.744 1092.68 648.099 1103.91 631.193C1112.59 618.154 1144.33 629.072 1155.88 629.072C1162.13 629.072 1168.38 629.072 1174.62 629.072C1188.8 624.471 1205.03 638.387 1216.77 618.988C1218.05 616.878 1225.06 603.815 1225.47 602.625C1229.22 594.452 1235.54 589.685 1243.31 588.469C1248.27 587.692 1274.36 581.376 1275.42 576.175C1283.69 575.083 1272.85 536.718 1293.05 523.186C1313.86 509.234 1304.93 500.074 1311.85 484.616C1311.89 484.524 1312.58 477.882 1312.9 476.478C1321.64 469.198 1316.9 470.842 1323.36 463.657C1328.79 457.642 1328.77 451.687 1338.3 446.888C1342.88 444.589 1345.71 441.003 1353.94 438.081C1386.45 426.516 1319.25 372.178 1345.39 358.742C1350.21 356.266 1416.36 333.818 1422.35 333.818C1429.69 333.818 1441.45 242.478 1446.92 243.002L1446.98 821.732L3 818.297L3.5 587.014L4 355.731Z" fill="#193973"/>
</g>
<defs>
<clipPath id="clip0_331_45987">
<rect width="1446" height="836" fill="white"/>
</clipPath>
</defs>
</svg>
